<ttFont>
    <TTGlyph name=".notdef" xMin="21" yMin="-303" xMax="1067" yMax="1513">
      <contour>
        <pt x="384" y="1513" on="1"/>
        <pt x="1067" y="1513" on="1"/>
        <pt x="704" y="-303" on="1"/>
        <pt x="21" y="-303" on="1"/>
      </contour>
      <contour>
        <pt x="641" y="-225" on="1"/>
        <pt x="973" y="1435" on="1"/>
        <pt x="446" y="1435" on="1"/>
        <pt x="114" y="-225" on="1"/>
      </contour>
    </TTGlyph>
    <TTGlyph name="A" xMin="-66" yMin="0" xMax="909" yMax="1362">
      <contour>
        <pt x="582" y="1362" on="1"/>
        <pt x="817" y="1362" on="1"/>
        <pt x="909" y="0" on="1"/>
        <pt x="657" y="0" on="1"/>
        <pt x="645" y="352" on="1"/>
        <pt x="322" y="352" on="1"/>
        <pt x="161" y="0" on="1"/>
        <pt x="-66" y="0" on="1"/>
      </contour>
      <contour>
        <pt x="638" y="556" on="1"/>
        <pt x="622" y="1006" on="1"/>
        <pt x="416" y="556" on="1"/>
      </contour>
    </TTGlyph>
    <TTGlyph name="A.hex" xMin="-37" yMin="0" xMax="880" yMax="1210">
      <contour>
        <pt x="589" y="1210" on="1"/>
        <pt x="746" y="1210" on="1"/>
        <pt x="880" y="0" on="1"/>
        <pt x="712" y="0" on="1"/>
        <pt x="683" y="310" on="1"/>
        <pt x="273" y="310" on="1"/>
        <pt x="114" y="0" on="1"/>
        <pt x="-37" y="0" on="1"/>
      </contour>
      <contour>
        <pt x="671" y="446" on="1"/>
        <pt x="620" y="990" on="1"/>
        <pt x="342" y="446" on="1"/>
      </contour>
    </TTGlyph>
    <TTGlyph name="Aacute" xMin="-173" yMin="0" xMax="1002" yMax="1870">
      <component glyphName="A" x="-107" y="0" flags="0x0"/>
      <component glyphName="acutecomb.case" x="-107" y="0" flags="0x0"/>
    </TTGlyph>
    <TTGlyph name="Abreve" xMin="-173" yMin="0" xMax="969" yMax="1823">
      <component glyphName="A" x="-107" y="0" flags="0x0"/>
      <component glyphName="uni0306.case" x="-107" y="0" flags="0x0"/>
    </TTGlyph>
    <TTGlyph name="Acircumflex" xMin="-173" yMin="0" xMax="926" yMax="1870">
      <component glyphName="A" x="-107" y="0" flags="0x0"/>
      <component glyphName="uni0302.case" x="-107" y="0" flags="0x0"/>
    </TTGlyph>
    <TTGlyph name="Adieresis" xMin="-173" yMin="0" xMax="1019" yMax="1861">
      <component glyphName="A" x="-107" y="0" flags="0x0"/>
      <component glyphName="uni0308.case" x="-107" y="0" flags="0x0"/>
    </TTGlyph>
    <TTGlyph name="Agrave" xMin="-173" yMin="0" xMax="802" yMax="1870">
      <component glyphName="A" x="-107" y="0" flags="0x0"/>
      <component glyphName="gravecomb.case" x="-107" y="0" flags="0x0"/>
    </TTGlyph>
    <TTGlyph name="Amacron" xMin="-173" yMin="0" xMax="951" yMax="1710">
      <component glyphName="A" x="-107" y="0" flags="0x0"/>
      <component glyphName="uni0304.case" x="-107" y="0" flags="0x0"/>
    </TTGlyph>
    <TTGlyph name="Aogonek" xMin="-66" yMin="-303" xMax="909" yMax="1362">
      <contour>
        <pt x="608" y="-303" on="0"/>
        <pt x="497" y="-228" on="0"/>
        <pt x="497" y="-167" on="1"/>
        <pt x="497" y="-151" on="0"/>
        <pt x="499" y="-142" on="1"/>
        <pt x="510" y="-92" on="0"/>
        <pt x="581" y="-18" on="0"/>
        <pt x="651" y="11" on="1"/>
        <pt x="645" y="352" on="1"/>
        <pt x="322" y="352" on="1"/>
        <pt x="161" y="0" on="1"/>
        <pt x="-66" y="0" on="1"/>
        <pt x="582" y="1362" on="1"/>
        <pt x="817" y="1362" on="1"/>
        <pt x="909" y="0" on="1"/>
        <pt x="887" y="-2" on="1"/>
        <pt x="821" y="-18" on="0"/>
        <pt x="750" y="-64" on="0"/>
        <pt x="746" y="-87" on="1"/>
        <pt x="745" y="-90" on="0"/>
        <pt x="745" y="-96" on="1"/>
        <pt x="745" y="-104" on="0"/>
        <pt x="761" y="-110" on="0"/>
        <pt x="784" y="-110" on="1"/>
        <pt x="798" y="-110" on="0"/>
        <pt x="835" y="-103" on="0"/>
        <pt x="853" y="-99" on="1"/>
        <pt x="860" y="-284" on="1"/>
        <pt x="784" y="-303" on="0"/>
        <pt x="700" y="-303" on="1"/>
      </contour>
      <contour>
        <pt x="638" y="556" on="1"/>
        <pt x="622" y="1006" on="1"/>
        <pt x="416" y="556" on="1"/>
      </contour>
    </TTGlyph>
    <TTGlyph name="Aring" xMin="-173" yMin="0" xMax="896" yMax="1902">
      <component glyphName="A" x="-107" y="0" flags="0x0"/>
      <component glyphName="uni030A.case" x="-107" y="0" flags="0x0"/>
    </TTGlyph>
    <TTGlyph name="Atilde" xMin="-173" yMin="0" xMax="996" yMax="1794">
      <component glyphName="A" x="-107" y="0" flags="0x0"/>
      <component glyphName="tildecomb.case" x="-107" y="0" flags="0x0"/>
    </TTGlyph>
    <TTGlyph name="B" xMin="15" yMin="0" xMax="1027" yMax="1362">
      <contour>
        <pt x="288" y="1362" on="1"/>
        <pt x="612" y="1362" on="1"/>
        <pt x="816" y="1362" on="0"/>
        <pt x="1027" y="1209" on="0"/>
        <pt x="1027" y="1076" on="1"/>
        <pt x="1027" y="1042" on="0"/>
        <pt x="1019" y="999" on="1"/>
        <pt x="979" y="791" on="0"/>
        <pt x="769" y="698" on="1"/>
        <pt x="843" y="660" on="0"/>
        <pt x="924" y="526" on="0"/>
        <pt x="924" y="437" on="1"/>
        <pt x="924" y="395" on="0"/>
        <pt x="915" y="350" on="1"/>
        <pt x="882" y="182" on="0"/>
        <pt x="616" y="0" on="0"/>
        <pt x="381" y="0" on="1"/>
        <pt x="15" y="0" on="1"/>
      </contour>
      <contour>
        <pt x="526" y="199" on="0"/>
        <pt x="670" y="311" on="0"/>
        <pt x="688" y="402" on="1"/>
        <pt x="695" y="433" on="0"/>
        <pt x="695" y="462" on="1"/>
        <pt x="695" y="529" on="0"/>
        <pt x="609" y="586" on="0"/>
        <pt x="518" y="586" on="1"/>
        <pt x="359" y="586" on="1"/>
        <pt x="282" y="199" on="1"/>
        <pt x="411" y="199" on="1"/>
      </contour>
      <contour>
        <pt x="618" y="790" on="0"/>
        <pt x="758" y="886" on="0"/>
        <pt x="778" y="991" on="1"/>
        <pt x="784" y="1018" on="0"/>
        <pt x="784" y="1043" on="1"/>
        <pt x="784" y="1102" on="0"/>
        <pt x="697" y="1163" on="0"/>
        <pt x="594" y="1163" on="1"/>
        <pt x="475" y="1163" on="1"/>
        <pt x="400" y="790" on="1"/>
        <pt x="501" y="790" on="1"/>
      </contour>
    </TTGlyph>
    <TTGlyph name="B.hex" xMin="44" yMin="0" xMax="974" yMax="1210">
      <contour>
        <pt x="286" y="1210" on="1"/>
        <pt x="581" y="1210" on="1"/>
        <pt x="774" y="1210" on="0"/>
        <pt x="974" y="1073" on="0"/>
        <pt x="974" y="953" on="1"/>
        <pt x="974" y="928" on="0"/>
        <pt x="967" y="889" on="1"/>
        <pt x="948" y="794" on="0"/>
        <pt x="818" y="657" on="0"/>
        <pt x="708" y="618" on="1"/>
        <pt x="792" y="587" on="0"/>
        <pt x="885" y="462" on="0"/>
        <pt x="885" y="377" on="1"/>
        <pt x="885" y="343" on="0"/>
        <pt x="878" y="311" on="1"/>
        <pt x="848" y="160" on="0"/>
        <pt x="601" y="0" on="0"/>
        <pt x="381" y="0" on="1"/>
        <pt x="44" y="0" on="1"/>
      </contour>
      <contour>
        <pt x="536" y="132" on="0"/>
        <pt x="708" y="251" on="0"/>
        <pt x="727" y="351" on="1"/>
        <pt x="732" y="379" on="0"/>
        <pt x="732" y="400" on="1"/>
        <pt x="732" y="474" on="0"/>
        <pt x="618" y="545" on="0"/>
        <pt x="504" y="545" on="1"/>
        <pt x="305" y="545" on="1"/>
        <pt x="223" y="132" on="1"/>
        <pt x="396" y="132" on="1"/>
      </contour>
      <contour>
        <pt x="619" y="681" on="0"/>
        <pt x="789" y="789" on="0"/>
        <pt x="809" y="890" on="1"/>
        <pt x="814" y="918" on="0"/>
        <pt x="814" y="937" on="1"/>
        <pt x="814" y="1006" on="0"/>
        <pt x="701" y="1078" on="0"/>
        <pt x="575" y="1078" on="1"/>
        <pt x="412" y="1078" on="1"/>
        <pt x="332" y="681" on="1"/>
        <pt x="487" y="681" on="1"/>
      </contour>
    </TTGlyph>
    <TTGlyph name="C" xMin="100" yMin="-21" xMax="1070" yMax="1382">
      <contour>
        <pt x="284" y="-21" on="0"/>
        <pt x="100" y="197" on="0"/>
        <pt x="100" y="414" on="1"/>
        <pt x="100" y="534" on="0"/>
        <pt x="130" y="690" on="1"/>
        <pt x="201" y="1040" on="0"/>
        <pt x="511" y="1382" on="0"/>
        <pt x="744" y="1382" on="1"/>
        <pt x="838" y="1382" on="0"/>
        <pt x="995" y="1318" on="0"/>
        <pt x="1070" y="1262" on="1"/>
        <pt x="957" y="1110" on="1"/>
        <pt x="894" y="1142" on="0"/>
        <pt x="785" y="1178" on="0"/>
        <pt x="708" y="1178" on="1"/>
        <pt x="642" y="1178" on="0"/>
        <pt x="520" y="1103" on="0"/>
        <pt x="402" y="879" on="0"/>
        <pt x="360" y="672" on="1"/>
        <pt x="329" y="511" on="0"/>
        <pt x="329" y="414" on="1"/>
        <pt x="329" y="293" on="0"/>
        <pt x="421" y="183" on="0"/>
        <pt x="518" y="183" on="1"/>
        <pt x="574" y="183" on="0"/>
        <pt x="691" y="223" on="0"/>
        <pt x="778" y="263" on="1"/>
        <pt x="849" y="99" on="1"/>
        <pt x="773" y="57" on="0"/>
        <pt x="665" y="9" on="0"/>
        <pt x="533" y="-21" on="0"/>
        <pt x="453" y="-21" on="1"/>
      </contour>
    </TTGlyph>
    <TTGlyph name="C.hex" xMin="118" yMin="-21" xMax="1011" yMax="1231">
      <contour>
        <pt x="293" y="-21" on="0"/>
        <pt x="118" y="177" on="0"/>
        <pt x="118" y="374" on="1"/>
        <pt x="118" y="479" on="0"/>
        <pt x="145" y="614" on="1"/>
        <pt x="268" y="1231" on="0"/>
        <pt x="714" y="1231" on="1"/>
        <pt x="800" y="1231" on="0"/>
        <pt x="943" y="1167" on="0"/>
        <pt x="1011" y="1111" on="1"/>
        <pt x="940" y="1013" on="1"/>
        <pt x="888" y="1050" on="0"/>
        <pt x="770" y="1095" on="0"/>
        <pt x="695" y="1095" on="1"/>
        <pt x="561" y="1095" on="0"/>
        <pt x="351" y="869" on="0"/>
        <pt x="296" y="596" on="1"/>
        <pt x="270" y="461" on="0"/>
        <pt x="270" y="371" on="1"/>
        <pt x="270" y="238" on="0"/>
        <pt x="378" y="115" on="0"/>
        <pt x="490" y="115" on="1"/>
        <pt x="556" y="115" on="0"/>
        <pt x="676" y="163" on="0"/>
        <pt x="769" y="213" on="1"/>
        <pt x="820" y="99" on="1"/>
        <pt x="748" y="57" on="0"/>
        <pt x="648" y="9" on="0"/>
        <pt x="527" y="-21" on="0"/>
        <pt x="453" y="-21" on="1"/>
      </contour>
    </TTGlyph>
    <TTGlyph name="Cacute" xMin="-7" yMin="-21" xMax="1046" yMax="1870">
      <component glyphName="C" x="-107" y="0" flags="0x0"/>
      <component glyphName="acutecomb.case" x="-63" y="0" flags="0x0"/>
    </TTGlyph>
    <TTGlyph name="Ccaron" xMin="-7" yMin="-21" xMax="1049" yMax="1870">
      <component glyphName="C" x="-107" y="0" flags="0x0"/>
      <component glyphName="uni030C.case" x="-63" y="0" flags="0x0"/>
    </TTGlyph>
    <TTGlyph name="Ccedilla" xMin="100" yMin="-303" xMax="1070" yMax="1382">
      <contour>
        <pt x="284" y="-21" on="0"/>
        <pt x="100" y="197" on="0"/>
        <pt x="100" y="414" on="1"/>
        <pt x="100" y="534" on="0"/>
        <pt x="130" y="690" on="1"/>
        <pt x="201" y="1040" on="0"/>
        <pt x="511" y="1382" on="0"/>
        <pt x="744" y="1382" on="1"/>
        <pt x="838" y="1382" on="0"/>
        <pt x="995" y="1318" on="0"/>
        <pt x="1070" y="1262" on="1"/>
        <pt x="957" y="1110" on="1"/>
        <pt x="894" y="1142" on="0"/>
        <pt x="785" y="1178" on="0"/>
        <pt x="708" y="1178" on="1"/>
        <pt x="642" y="1178" on="0"/>
        <pt x="520" y="1103" on="0"/>
        <pt x="402" y="879" on="0"/>
        <pt x="360" y="672" on="1"/>
        <pt x="329" y="511" on="0"/>
        <pt x="329" y="414" on="1"/>
        <pt x="329" y="293" on="0"/>
        <pt x="421" y="183" on="0"/>
        <pt x="518" y="183" on="1"/>
        <pt x="574" y="183" on="0"/>
        <pt x="691" y="223" on="0"/>
        <pt x="778" y="263" on="1"/>
        <pt x="849" y="99" on="1"/>
        <pt x="778" y="60" on="0"/>
        <pt x="677" y="13" on="0"/>
        <pt x="615" y="-7" on="1"/>
        <pt x="613" y="-64" on="0"/>
        <pt x="607" y="-92" on="1"/>
        <pt x="586" y="-200" on="0"/>
        <pt x="439" y="-303" on="0"/>
        <pt x="334" y="-303" on="1"/>
        <pt x="278" y="-303" on="0"/>
        <pt x="213" y="-285" on="1"/>
        <pt x="237" y="-162" on="1"/>
        <pt x="264" y="-166" on="0"/>
        <pt x="315" y="-166" on="1"/>
        <pt x="383" y="-166" on="0"/>
        <pt x="465" y="-102" on="0"/>
        <pt x="477" y="-42" on="1"/>
        <pt x="487" y="-21" on="1"/>
        <pt x="479" y="-22" on="0"/>
        <pt x="462" y="-21" on="0"/>
        <pt x="453" y="-21" on="1"/>
      </contour>
    </TTGlyph>
    <TTGlyph name="Ccircumflex" xMin="-7" yMin="-21" xMax="970" yMax="1870">
      <component glyphName="C" x="-107" y="0" flags="0x0"/>
      <component glyphName="uni0302.case" x="-63" y="0" flags="0x0"/>
    </TTGlyph>
    <TTGlyph name="Cdotaccent" xMin="-7" yMin="-21" xMax="963" yMax="1833">
      <component glyphName="C" x="-107" y="0" flags="0x0"/>
      <component glyphName="uni0307" x="-4" y="294" flags="0x4"/>
    </TTGlyph>
    <TTGlyph name="D" xMin="15" yMin="0" xMax="1037" yMax="1362">
      <contour>
        <pt x="831" y="1362" on="0"/>
        <pt x="1037" y="1135" on="0"/>
        <pt x="1037" y="921" on="1"/>
        <pt x="1037" y="811" on="0"/>
        <pt x="1010" y="676" on="1"/>
        <pt x="967" y="457" on="0"/>
        <pt x="791" y="155" on="0"/>
        <pt x="539" y="0" on="0"/>
        <pt x="381" y="0" on="1"/>
        <pt x="15" y="0" on="1"/>
        <pt x="288" y="1362" on="1"/>
        <pt x="627" y="1362" on="1"/>
      </contour>
      <contour>
        <pt x="474" y="1157" on="1"/>
        <pt x="283" y="204" on="1"/>
        <pt x="408" y="204" on="1"/>
        <pt x="540" y="204" on="0"/>
        <pt x="723" y="425" on="0"/>
        <pt x="774" y="685" on="1"/>
        <pt x="804" y="835" on="0"/>
        <pt x="804" y="930" on="1"/>
        <pt x="804" y="1053" on="0"/>
        <pt x="708" y="1157" on="0"/>
        <pt x="609" y="1157" on="1"/>
      </contour>
    </TTGlyph>
    <TTGlyph name="D.hex" xMin="44" yMin="0" xMax="990" yMax="1210">
      <contour>
        <pt x="795" y="1210" on="0"/>
        <pt x="990" y="1008" on="0"/>
        <pt x="990" y="815" on="1"/>
        <pt x="990" y="719" on="0"/>
        <pt x="966" y="600" on="1"/>
        <pt x="926" y="401" on="0"/>
        <pt x="759" y="133" on="0"/>
        <pt x="524" y="0" on="0"/>
        <pt x="381" y="0" on="1"/>
        <pt x="44" y="0" on="1"/>
        <pt x="286" y="1210" on="1"/>
        <pt x="596" y="1210" on="1"/>
      </contour>
      <contour>
        <pt x="411" y="1074" on="1"/>
        <pt x="223" y="136" on="1"/>
        <pt x="401" y="136" on="1"/>
        <pt x="551" y="136" on="0"/>
        <pt x="760" y="361" on="0"/>
        <pt x="810" y="612" on="1"/>
        <pt x="835" y="742" on="0"/>
        <pt x="835" y="822" on="1"/>
        <pt x="835" y="957" on="0"/>
        <pt x="716" y="1074" on="0"/>
        <pt x="593" y="1074" on="1"/>
      </contour>
    </TTGlyph>
    <TTGlyph name="Dcaron" xMin="-92" yMin="0" xMax="990" yMax="1870">
      <component glyphName="D" x="-107" y="0" flags="0x0"/>
      <component glyphName="uni030C.case" x="-122" y="0" flags="0x0"/>
    </TTGlyph>
    <TTGlyph name="Dcroat" xMin="-97" yMin="0" xMax="930" yMax="1362">
      <component glyphName="Eth" x="-107" y="0" flags="0x0"/>
    </TTGlyph>
    <TTGlyph name="E" xMin="38" yMin="0" xMax="1078" yMax="1362">
      <contour>
        <pt x="311" y="1362" on="1"/>
        <pt x="1078" y="1362" on="1"/>
        <pt x="1037" y="1157" on="1"/>
        <pt x="497" y="1157" on="1"/>
        <pt x="423" y="787" on="1"/>
        <pt x="895" y="787" on="1"/>
        <pt x="854" y="582" on="1"/>
        <pt x="382" y="582" on="1"/>
        <pt x="306" y="204" on="1"/>
        <pt x="854" y="204" on="1"/>
        <pt x="813" y="0" on="1"/>
        <pt x="38" y="0" on="1"/>
      </contour>
    </TTGlyph>
    <TTGlyph name="E.hex" xMin="67" yMin="0" xMax="1018" yMax="1210">
      <contour>
        <pt x="309" y="1210" on="1"/>
        <pt x="1018" y="1210" on="1"/>
        <pt x="991" y="1074" on="1"/>
        <pt x="433" y="1074" on="1"/>
        <pt x="354" y="677" on="1"/>
        <pt x="844" y="677" on="1"/>
        <pt x="816" y="541" on="1"/>
        <pt x="326" y="541" on="1"/>
        <pt x="245" y="136" on="1"/>
        <pt x="811" y="136" on="1"/>
        <pt x="784" y="0" on="1"/>
        <pt x="67" y="0" on="1"/>
      </contour>
    </TTGlyph>
    <TTGlyph name="Eacute" xMin="-69" yMin="0" xMax="1012" yMax="1870">
      <component glyphName="E" x="-107" y="0" flags="0x0"/>
      <component glyphName="acutecomb.case" x="-97" y="0" flags="0x0"/>
    </TTGlyph>
    <TTGlyph name="Ebreve" xMin="-69" yMin="0" xMax="979" yMax="1823">
      <component glyphName="E" x="-107" y="0" flags="0x0"/>
      <component glyphName="uni0306.case" x="-97" y="0" flags="0x0"/>
    </TTGlyph>
    <TTGlyph name="Ecaron" xMin="-69" yMin="0" xMax="1015" yMax="1870">
      <component glyphName="E" x="-107" y="0" flags="0x0"/>
      <component glyphName="uni030C.case" x="-97" y="0" flags="0x0"/>
    </TTGlyph>
    <TTGlyph name="Ecircumflex" xMin="-69" yMin="0" xMax="971" yMax="1870">
      <component glyphName="E" x="-107" y="0" flags="0x0"/>
      <component glyphName="uni0302.case" x="-97" y="0" flags="0x0"/>
    </TTGlyph>
    <TTGlyph name="Edieresis" xMin="-69" yMin="0" xMax="1029" yMax="1861">
      <component glyphName="E" x="-107" y="0" flags="0x0"/>
      <component glyphName="uni0308.case" x="-97" y="0" flags="0x0"/>
    </TTGlyph>
    <TTGlyph name="Edotaccent" xMin="-69" yMin="0" xMax="971" yMax="1833">
      <component glyphName="E" x="-107" y="0" flags="0x0"/>
      <component glyphName="uni0307" x="-38" y="294" flags="0x4"/>
    </TTGlyph>
    <TTGlyph name="Egrave" xMin="-69" yMin="0" xMax="971" yMax="1870">
      <component glyphName="E" x="-107" y="0" flags="0x0"/>
      <component glyphName="gravecomb.case" x="-97" y="0" flags="0x0"/>
    </TTGlyph>
    <TTGlyph name="Emacron" xMin="-69" yMin="0" xMax="971" yMax="1710">
      <component glyphName="E" x="-107" y="0" flags="0x0"/>
      <component glyphName="uni0304.case" x="-97" y="0" flags="0x0"/>
    </TTGlyph>
    <TTGlyph name="Eogonek" xMin="38" yMin="-303" xMax="1078" yMax="1362">
      <contour>
        <pt x="311" y="1362" on="1"/>
        <pt x="1078" y="1362" on="1"/>
        <pt x="1037" y="1157" on="1"/>
        <pt x="497" y="1157" on="1"/>
        <pt x="423" y="787" on="1"/>
        <pt x="895" y="787" on="1"/>
        <pt x="854" y="582" on="1"/>
        <pt x="382" y="582" on="1"/>
        <pt x="306" y="204" on="1"/>
        <pt x="854" y="204" on="1"/>
        <pt x="814" y="4" on="1"/>
        <pt x="821" y="-2" on="1"/>
        <pt x="755" y="-18" on="0"/>
        <pt x="684" y="-64" on="0"/>
        <pt x="680" y="-87" on="1"/>
        <pt x="679" y="-90" on="0"/>
        <pt x="679" y="-96" on="1"/>
        <pt x="679" y="-104" on="0"/>
        <pt x="695" y="-110" on="0"/>
        <pt x="718" y="-110" on="1"/>
        <pt x="732" y="-110" on="0"/>
        <pt x="769" y="-103" on="0"/>
        <pt x="787" y="-99" on="1"/>
        <pt x="794" y="-284" on="1"/>
        <pt x="718" y="-303" on="0"/>
        <pt x="634" y="-303" on="1"/>
        <pt x="542" y="-303" on="0"/>
        <pt x="431" y="-228" on="0"/>
        <pt x="431" y="-167" on="1"/>
        <pt x="431" y="-151" on="0"/>
        <pt x="433" y="-142" on="1"/>
        <pt x="443" y="-95" on="0"/>
        <pt x="507" y="-25" on="0"/>
        <pt x="569" y="4" on="1"/>
        <pt x="38" y="0" on="1"/>
      </contour>
    </TTGlyph>
    <TTGlyph name="Eth" xMin="10" yMin="0" xMax="1037" yMax="1362">
      <contour>
        <pt x="51" y="790" on="1"/>
        <pt x="173" y="790" on="1"/>
        <pt x="288" y="1362" on="1"/>
        <pt x="627" y="1362" on="1"/>
        <pt x="831" y="1362" on="0"/>
        <pt x="1037" y="1135" on="0"/>
        <pt x="1037" y="921" on="1"/>
        <pt x="1037" y="811" on="0"/>
        <pt x="1010" y="676" on="1"/>
        <pt x="967" y="457" on="0"/>
        <pt x="791" y="155" on="0"/>
        <pt x="539" y="0" on="0"/>
        <pt x="381" y="0" on="1"/>
        <pt x="15" y="0" on="1"/>
        <pt x="132" y="586" on="1"/>
        <pt x="10" y="586" on="1"/>
      </contour>
      <contour>
        <pt x="474" y="1157" on="1"/>
        <pt x="400" y="790" on="1"/>
        <pt x="611" y="790" on="1"/>
        <pt x="570" y="586" on="1"/>
        <pt x="359" y="586" on="1"/>
        <pt x="283" y="204" on="1"/>
        <pt x="408" y="204" on="1"/>
        <pt x="540" y="204" on="0"/>
        <pt x="723" y="425" on="0"/>
        <pt x="774" y="685" on="1"/>
        <pt x="804" y="835" on="0"/>
        <pt x="804" y="930" on="1"/>
        <pt x="804" y="1053" on="0"/>
        <pt x="708" y="1157" on="0"/>
        <pt x="609" y="1157" on="1"/>
      </contour>
    </TTGlyph>
    <TTGlyph name="F" xMin="54" yMin="0" xMax="1112" yMax="1362">
      <contour>
        <pt x="327" y="1362" on="1"/>
        <pt x="1112" y="1362" on="1"/>
        <pt x="1071" y="1157" on="1"/>
        <pt x="513" y="1157" on="1"/>
        <pt x="431" y="751" on="1"/>
        <pt x="828" y="751" on="1"/>
        <pt x="788" y="547" on="1"/>
        <pt x="391" y="547" on="1"/>
        <pt x="281" y="0" on="1"/>
        <pt x="54" y="0" on="1"/>
      </contour>
    </TTGlyph>
    <TTGlyph name="F.hex" xMin="82" yMin="0" xMax="1043" yMax="1210">
      <contour>
        <pt x="324" y="1210" on="1"/>
        <pt x="1043" y="1210" on="1"/>
        <pt x="1016" y="1074" on="1"/>
        <pt x="448" y="1074" on="1"/>
        <pt x="364" y="654" on="1"/>
        <pt x="780" y="654" on="1"/>
        <pt x="753" y="518" on="1"/>
        <pt x="337" y="518" on="1"/>
        <pt x="233" y="0" on="1"/>
        <pt x="82" y="0" on="1"/>
      </contour>
    </TTGlyph>
    <TTGlyph name="G" xMin="100" yMin="-21" xMax="1071" yMax="1382">
      <contour>
        <pt x="291" y="-21" on="0"/>
        <pt x="100" y="200" on="0"/>
        <pt x="100" y="416" on="1"/>
        <pt x="100" y="537" on="0"/>
        <pt x="130" y="690" on="1"/>
        <pt x="270" y="1382" on="0"/>
        <pt x="752" y="1382" on="1"/>
        <pt x="916" y="1382" on="0"/>
        <pt x="1071" y="1293" on="1"/>
        <pt x="971" y="1122" on="1"/>
        <pt x="899" y="1153" on="0"/>
        <pt x="786" y="1178" on="0"/>
        <pt x="727" y="1178" on="1"/>
        <pt x="590" y="1178" on="0"/>
        <pt x="412" y="933" on="0"/>
        <pt x="360" y="672" on="1"/>
        <pt x="329" y="512" on="0"/>
        <pt x="329" y="416" on="1"/>
        <pt x="329" y="294" on="0"/>
        <pt x="423" y="183" on="0"/>
        <pt x="524" y="183" on="1"/>
        <pt x="570" y="183" on="0"/>
        <pt x="635" y="196" on="1"/>
        <pt x="690" y="435" on="1"/>
        <pt x="498" y="435" on="1"/>
        <pt x="539" y="639" on="1"/>
        <pt x="958" y="639" on="1"/>
        <pt x="846" y="44" on="1"/>
        <pt x="751" y="10" on="0"/>
        <pt x="573" y="-21" on="0"/>
        <pt x="479" y="-21" on="1"/>
      </contour>
    </TTGlyph>
    <TTGlyph name="Gbreve" xMin="-7" yMin="-21" xMax="1027" yMax="1890">
      <component glyphName="G" x="-107" y="0" flags="0x0"/>
      <component glyphName="uni0306" x="-4" y="294" flags="0x4"/>
    </TTGlyph>
    <TTGlyph name="Gcaron" xMin="-7" yMin="-21" xMax="1049" yMax="1870">
      <component glyphName="G" x="-107" y="0" flags="0x0"/>
      <component glyphName="uni030C.case" x="-63" y="0" flags="0x0"/>
    </TTGlyph>
    <TTGlyph name="Gcircumflex" xMin="-7" yMin="-21" xMax="970" yMax="1870">
      <component glyphName="G" x="-107" y="0" flags="0x0"/>
      <component glyphName="uni0302.case" x="-63" y="0" flags="0x0"/>
    </TTGlyph>
    <TTGlyph name="Gdotaccent" xMin="-7" yMin="-21" xMax="964" yMax="1833">
      <component glyphName="G" x="-107" y="0" flags="0x0"/>
      <component glyphName="uni0307" x="-4" y="294" flags="0x4"/>
    </TTGlyph>
    <TTGlyph name="H" xMin="16" yMin="0" xMax="1102" yMax="1362">
      <contour>
        <pt x="289" y="1362" on="1"/>
        <pt x="516" y="1362" on="1"/>
        <pt x="401" y="790" on="1"/>
        <pt x="760" y="790" on="1"/>
        <pt x="875" y="1362" on="1"/>
        <pt x="1102" y="1362" on="1"/>
        <pt x="829" y="0" on="1"/>
        <pt x="602" y="0" on="1"/>
        <pt x="719" y="586" on="1"/>
        <pt x="360" y="586" on="1"/>
        <pt x="243" y="0" on="1"/>
        <pt x="16" y="0" on="1"/>
      </contour>
    </TTGlyph>
    <TTGlyph name="Hbar" xMin="16" yMin="0" xMax="1197" yMax="1362">
      <contour>
        <pt x="225" y="1042" on="1"/>
        <pt x="102" y="1042" on="1"/>
        <pt x="138" y="1224" on="1"/>
        <pt x="261" y="1224" on="1"/>
        <pt x="289" y="1362" on="1"/>
        <pt x="516" y="1362" on="1"/>
        <pt x="488" y="1224" on="1"/>
        <pt x="847" y="1224" on="1"/>
        <pt x="875" y="1362" on="1"/>
        <pt x="1102" y="1362" on="1"/>
        <pt x="1074" y="1224" on="1"/>
        <pt x="1197" y="1224" on="1"/>
        <pt x="1161" y="1042" on="1"/>
        <pt x="1038" y="1042" on="1"/>
        <pt x="829" y="0" on="1"/>
        <pt x="602" y="0" on="1"/>
        <pt x="719" y="586" on="1"/>
        <pt x="360" y="586" on="1"/>
        <pt x="243" y="0" on="1"/>
        <pt x="16" y="0" on="1"/>
      </contour>
      <contour>
        <pt x="760" y="790" on="1"/>
        <pt x="811" y="1042" on="1"/>
        <pt x="452" y="1042" on="1"/>
        <pt x="401" y="790" on="1"/>
      </contour>
    </TTGlyph>
    <TTGlyph name="Hcircumflex" xMin="-91" yMin="0" xMax="995" yMax="1870">
      <component glyphName="H" x="-107" y="0" flags="0x0"/>
      <component glyphName="uni0302.case" x="-107" y="0" flags="0x0"/>
    </TTGlyph>
    <TTGlyph name="I" xMin="6" yMin="0" xMax="960" yMax="1362">
      <contour>
        <pt x="43" y="182" on="1"/>
        <pt x="274" y="202" on="1"/>
        <pt x="465" y="1159" on="1"/>
        <pt x="242" y="1180" on="1"/>
        <pt x="279" y="1362" on="1"/>
        <pt x="960" y="1362" on="1"/>
        <pt x="923" y="1180" on="1"/>
        <pt x="692" y="1159" on="1"/>
        <pt x="501" y="202" on="1"/>
        <pt x="724" y="182" on="1"/>
        <pt x="687" y="0" on="1"/>
        <pt x="6" y="0" on="1"/>
      </contour>
    </TTGlyph>
    <TTGlyph name="I.sans" xMin="25" yMin="0" xMax="525" yMax="1362">
      <contour>
        <pt x="298" y="1362" on="1"/>
        <pt x="525" y="1362" on="1"/>
        <pt x="252" y="0" on="1"/>
        <pt x="25" y="0" on="1"/>
      </contour>
    </TTGlyph>
    <TTGlyph name="I.sans.prop" xMin="309" yMin="0" xMax="809" yMax="1362">
      <contour>
        <pt x="582" y="1362" on="1"/>
        <pt x="809" y="1362" on="1"/>
        <pt x="536" y="0" on="1"/>
        <pt x="309" y="0" on="1"/>
      </contour>
    </TTGlyph>
    <TTGlyph name="Iacute" xMin="-101" yMin="0" xMax="927" yMax="1870">
      <component glyphName="I" x="-107" y="0" flags="0x0"/>
      <component glyphName="acutecomb.case" x="-182" y="0" flags="0x0"/>
    </TTGlyph>
    <TTGlyph name="Ibreve" xMin="-101" yMin="0" xMax="894" yMax="1823">
      <component glyphName="I" x="-107" y="0" flags="0x0"/>
      <component glyphName="uni0306.case" x="-182" y="0" flags="0x0"/>
    </TTGlyph>
    <TTGlyph name="Icircumflex" xMin="-101" yMin="0" xMax="853" yMax="1870">
      <component glyphName="I" x="-107" y="0" flags="0x0"/>
      <component glyphName="uni0302.case" x="-182" y="0" flags="0x0"/>
    </TTGlyph>
    <TTGlyph name="Idieresis" xMin="-101" yMin="0" xMax="944" yMax="1861">
      <component glyphName="I" x="-107" y="0" flags="0x0"/>
      <component glyphName="uni0308.case" x="-182" y="0" flags="0x0"/>
    </TTGlyph>
    <TTGlyph name="Idotaccent" xMin="-101" yMin="0" xMax="853" yMax="1833">
      <component glyphName="I" x="-107" y="0" flags="0x0"/>
      <component glyphName="uni0307" x="-123" y="294" flags="0x4"/>
    </TTGlyph>
    <TTGlyph name="Igrave" xMin="-101" yMin="0" xMax="853" yMax="1870">
      <component glyphName="I" x="-107" y="0" flags="0x0"/>
      <component glyphName="gravecomb.case" x="-182" y="0" flags="0x0"/>
    </TTGlyph>
    <TTGlyph name="Imacron" xMin="-101" yMin="0" xMax="876" yMax="1710">
      <component glyphName="I" x="-107" y="0" flags="0x0"/>
      <component glyphName="uni0304.case" x="-182" y="0" flags="0x0"/>
    </TTGlyph>
    <TTGlyph name="Iogonek" xMin="6" yMin="-303" xMax="960" yMax="1362">
      <contour>
        <pt x="43" y="182" on="1"/>
        <pt x="274" y="202" on="1"/>
        <pt x="465" y="1159" on="1"/>
        <pt x="242" y="1180" on="1"/>
        <pt x="279" y="1362" on="1"/>
        <pt x="960" y="1362" on="1"/>
        <pt x="923" y="1180" on="1"/>
        <pt x="692" y="1159" on="1"/>
        <pt x="501" y="202" on="1"/>
        <pt x="724" y="182" on="1"/>
        <pt x="694" y="-2" on="1"/>
        <pt x="628" y="-18" on="0"/>
        <pt x="557" y="-64" on="0"/>
        <pt x="553" y="-87" on="1"/>
        <pt x="552" y="-90" on="0"/>
        <pt x="552" y="-96" on="1"/>
        <pt x="552" y="-104" on="0"/>
        <pt x="568" y="-110" on="0"/>
        <pt x="591" y="-110" on="1"/>
        <pt x="605" y="-110" on="0"/>
        <pt x="642" y="-103" on="0"/>
        <pt x="660" y="-99" on="1"/>
        <pt x="667" y="-284" on="1"/>
        <pt x="591" y="-303" on="0"/>
        <pt x="507" y="-303" on="1"/>
        <pt x="415" y="-303" on="0"/>
        <pt x="304" y="-228" on="0"/>
        <pt x="304" y="-167" on="1"/>
        <pt x="304" y="-151" on="0"/>
        <pt x="306" y="-142" on="1"/>
        <pt x="316" y="-95" on="0"/>
        <pt x="380" y="-25" on="0"/>
        <pt x="442" y="4" on="1"/>
        <pt x="6" y="0" on="1"/>
      </contour>
    </TTGlyph>
    <TTGlyph name="Itilde" xMin="-101" yMin="0" xMax="921" yMax="1794">
      <component glyphName="I" x="-107" y="0" flags="0x0"/>
      <component glyphName="tildecomb.case" x="-182" y="0" flags="0x0"/>
    </TTGlyph>
    <TTGlyph name="J" xMin="-41" yMin="-23" xMax="967" yMax="1362">
      <contour>
        <pt x="188" y="-23" on="0"/>
        <pt x="24" y="88" on="0"/>
        <pt x="-41" y="196" on="1"/>
        <pt x="128" y="306" on="1"/>
        <pt x="175" y="244" on="0"/>
        <pt x="264" y="182" on="0"/>
        <pt x="326" y="182" on="1"/>
        <pt x="410" y="182" on="0"/>
        <pt x="524" y="282" on="0"/>
        <pt x="544" y="383" on="1"/>
        <pt x="699" y="1157" on="1"/>
        <pt x="322" y="1157" on="1"/>
        <pt x="363" y="1362" on="1"/>
        <pt x="967" y="1362" on="1"/>
        <pt x="769" y="375" on="1"/>
        <pt x="744" y="250" on="0"/>
        <pt x="615" y="71" on="0"/>
        <pt x="424" y="-23" on="0"/>
        <pt x="308" y="-23" on="1"/>
      </contour>
    </TTGlyph>
    <TTGlyph name="Jcircumflex" xMin="-148" yMin="-23" xMax="881" yMax="1870">
      <component glyphName="J" x="-107" y="0" flags="0x0"/>
      <component glyphName="uni0302.case" x="-152" y="0" flags="0x0"/>
    </TTGlyph>
    <TTGlyph name="K" xMin="15" yMin="0" xMax="1090" yMax="1362">
      <contour>
        <pt x="288" y="1362" on="1"/>
        <pt x="515" y="1362" on="1"/>
        <pt x="396" y="769" on="1"/>
        <pt x="842" y="1362" on="1"/>
        <pt x="1090" y="1362" on="1"/>
        <pt x="573" y="705" on="1"/>
        <pt x="847" y="0" on="1"/>
        <pt x="579" y="0" on="1"/>
        <pt x="365" y="612" on="1"/>
        <pt x="242" y="0" on="1"/>
        <pt x="15" y="0" on="1"/>
      </contour>
    </TTGlyph>
    <TTGlyph name="L" xMin="16" yMin="0" xMax="766" yMax="1362">
      <contour>
        <pt x="289" y="1362" on="1"/>
        <pt x="516" y="1362" on="1"/>
        <pt x="284" y="204" on="1"/>
        <pt x="766" y="204" on="1"/>
        <pt x="725" y="0" on="1"/>
        <pt x="16" y="0" on="1"/>
      </contour>
    </TTGlyph>
    <TTGlyph name="Lacute" xMin="-91" yMin="0" xMax="719" yMax="1870">
      <component glyphName="L" x="-107" y="0" flags="0x0"/>
      <component glyphName="acutecomb.case" x="-390" y="0" flags="0x0"/>
    </TTGlyph>
    <TTGlyph name="M" xMin="4" yMin="0" xMax="1346" yMax="1362">
      <contour>
        <pt x="660" y="389" on="1"/>
        <pt x="1025" y="1362" on="1"/>
        <pt x="1346" y="1362" on="1"/>
        <pt x="1144" y="0" on="1"/>
        <pt x="928" y="0" on="1"/>
        <pt x="1065" y="926" on="1"/>
        <pt x="718" y="0" on="1"/>
        <pt x="429" y="0" on="1"/>
        <pt x="453" y="929" on="1"/>
        <pt x="219" y="0" on="1"/>
        <pt x="4" y="0" on="1"/>
        <pt x="347" y="1362" on="1"/>
        <pt x="685" y="1362" on="1"/>
      </contour>
    </TTGlyph>
    <TTGlyph name="N" xMin="15" yMin="0" xMax="1103" yMax="1362">
      <contour>
        <pt x="288" y="1362" on="1"/>
        <pt x="540" y="1362" on="1"/>
        <pt x="738" y="590" on="1"/>
        <pt x="893" y="1362" on="1"/>
        <pt x="1103" y="1362" on="1"/>
        <pt x="830" y="0" on="1"/>
        <pt x="643" y="0" on="1"/>
        <pt x="408" y="914" on="1"/>
        <pt x="225" y="0" on="1"/>
        <pt x="15" y="0" on="1"/>
      </contour>
    </TTGlyph>
    <TTGlyph name="Nacute" xMin="-92" yMin="0" xMax="1002" yMax="1870">
      <component glyphName="N" x="-107" y="0" flags="0x0"/>
      <component glyphName="acutecomb.case" x="-107" y="0" flags="0x0"/>
    </TTGlyph>
    <TTGlyph name="Ncaron" xMin="-92" yMin="0" xMax="1005" yMax="1870">
      <component glyphName="N" x="-107" y="0" flags="0x0"/>
      <component glyphName="uni030C.case" x="-107" y="0" flags="0x0"/>
    </TTGlyph>
    <TTGlyph name="Ntilde" xMin="-92" yMin="0" xMax="996" yMax="1794">
      <component glyphName="N" x="-107" y="0" flags="0x0"/>
      <component glyphName="tildecomb.case" x="-107" y="0" flags="0x0"/>
    </TTGlyph>
    <TTGlyph name="O" xMin="72" yMin="-19" xMax="1047" yMax="1380">
      <contour>
        <pt x="250" y="-19" on="0"/>
        <pt x="72" y="193" on="0"/>
        <pt x="72" y="402" on="1"/>
        <pt x="72" y="525" on="0"/>
        <pt x="104" y="690" on="1"/>
        <pt x="244" y="1380" on="0"/>
        <pt x="690" y="1380" on="1"/>
        <pt x="1047" y="1380" on="0"/>
        <pt x="1047" y="965" on="1"/>
        <pt x="1047" y="839" on="0"/>
        <pt x="1014" y="672" on="1"/>
        <pt x="970" y="451" on="0"/>
        <pt x="804" y="142" on="0"/>
        <pt x="570" y="-19" on="0"/>
        <pt x="426" y="-19" on="1"/>
      </contour>
      <contour>
        <pt x="566" y="182" on="0"/>
        <pt x="728" y="430" on="0"/>
        <pt x="779" y="690" on="1"/>
        <pt x="817" y="877" on="0"/>
        <pt x="817" y="983" on="1"/>
        <pt x="817" y="1087" on="0"/>
        <pt x="744" y="1180" on="0"/>
        <pt x="666" y="1180" on="1"/>
        <pt x="587" y="1180" on="0"/>
        <pt x="468" y="1076" on="0"/>
        <pt x="376" y="853" on="0"/>
        <pt x="339" y="672" on="1"/>
        <pt x="305" y="503" on="0"/>
        <pt x="305" y="392" on="1"/>
        <pt x="305" y="284" on="0"/>
        <pt x="376" y="182" on="0"/>
        <pt x="451" y="182" on="1"/>
      </contour>
    </TTGlyph>
    <TTGlyph name="Oacute" xMin="-35" yMin="-19" xMax="1002" yMax="1870">
      <component glyphName="O" x="-107" y="0" flags="0x0"/>
      <component glyphName="acutecomb.case" x="-107" y="0" flags="0x0"/>
    </TTGlyph>
    <TTGlyph name="Obreve" xMin="-35" yMin="-19" xMax="969" yMax="1823">
      <component glyphName="O" x="-107" y="0" flags="0x0"/>
      <component glyphName="uni0306.case" x="-107" y="0" flags="0x0"/>
    </TTGlyph>
    <TTGlyph name="Ocircumflex" xMin="-35" yMin="-19" xMax="940" yMax="1870">
      <component glyphName="O" x="-107" y="0" flags="0x0"/>
      <component glyphName="uni0302.case" x="-107" y="0" flags="0x0"/>
    </TTGlyph>
    <TTGlyph name="Odieresis" xMin="-35" yMin="-19" xMax="1019" yMax="1861">
      <component glyphName="O" x="-107" y="0" flags="0x0"/>
      <component glyphName="uni0308.case" x="-107" y="0" flags="0x0"/>
    </TTGlyph>
    <TTGlyph name="Ograve" xMin="-35" yMin="-19" xMax="940" yMax="1870">
      <component glyphName="O" x="-107" y="0" flags="0x0"/>
      <component glyphName="gravecomb.case" x="-107" y="0" flags="0x0"/>
    </TTGlyph>
    <TTGlyph name="Omacron" xMin="-35" yMin="-19" xMax="951" yMax="1710">
      <component glyphName="O" x="-107" y="0" flags="0x0"/>
      <component glyphName="uni0304.case" x="-107" y="0" flags="0x0"/>
    </TTGlyph>
    <TTGlyph name="Otilde" xMin="-35" yMin="-19" xMax="996" yMax="1794">
      <component glyphName="O" x="-107" y="0" flags="0x0"/>
      <component glyphName="tildecomb.case" x="-107" y="0" flags="0x0"/>
    </TTGlyph>
    <TTGlyph name="P" xMin="15" yMin="0" xMax="1015" yMax="1362">
      <contour>
        <pt x="288" y="1362" on="1"/>
        <pt x="616" y="1362" on="1"/>
        <pt x="813" y="1362" on="0"/>
        <pt x="1015" y="1183" on="0"/>
        <pt x="1015" y="1024" on="1"/>
        <pt x="1015" y="963" on="0"/>
        <pt x="1002" y="901" on="1"/>
        <pt x="959" y="684" on="0"/>
        <pt x="668" y="435" on="0"/>
        <pt x="427" y="435" on="1"/>
        <pt x="389" y="435" on="0"/>
        <pt x="339" y="445" on="1"/>
        <pt x="242" y="0" on="1"/>
        <pt x="15" y="0" on="1"/>
      </contour>
      <contour>
        <pt x="416" y="639" on="0"/>
        <pt x="440" y="639" on="1"/>
        <pt x="547" y="639" on="0"/>
        <pt x="677" y="695" on="0"/>
        <pt x="747" y="810" on="0"/>
        <pt x="766" y="907" on="1"/>
        <pt x="778" y="963" on="0"/>
        <pt x="778" y="1006" on="1"/>
        <pt x="778" y="1082" on="0"/>
        <pt x="693" y="1157" on="0"/>
        <pt x="595" y="1157" on="1"/>
        <pt x="474" y="1157" on="1"/>
        <pt x="363" y="643" on="1"/>
      </contour>
    </TTGlyph>
    <TTGlyph name="Q" xMin="72" yMin="-310" xMax="1047" yMax="1380">
      <contour>
        <pt x="459" y="-310" on="0"/>
        <pt x="315" y="-175" on="0"/>
        <pt x="315" y="-40" on="1"/>
        <pt x="315" y="-17" on="0"/>
        <pt x="316" y="-5" on="1"/>
        <pt x="72" y="54" on="0"/>
        <pt x="72" y="403" on="1"/>
        <pt x="72" y="525" on="0"/>
        <pt x="104" y="690" on="1"/>
        <pt x="244" y="1380" on="0"/>
        <pt x="690" y="1380" on="1"/>
        <pt x="1047" y="1380" on="0"/>
        <pt x="1047" y="965" on="1"/>
        <pt x="1047" y="839" on="0"/>
        <pt x="1014" y="672" on="1"/>
        <pt x="955" y="378" on="0"/>
        <pt x="703" y="28" on="0"/>
        <pt x="516" y="-17" on="1"/>
        <pt x="517" y="-70" on="0"/>
        <pt x="577" y="-110" on="0"/>
        <pt x="649" y="-110" on="1"/>
        <pt x="677" y="-110" on="0"/>
        <pt x="747" y="-101" on="0"/>
        <pt x="782" y="-96" on="1"/>
        <pt x="788" y="-287" on="1"/>
        <pt x="708" y="-310" on="0"/>
        <pt x="589" y="-310" on="1"/>
      </contour>
      <contour>
        <pt x="566" y="182" on="0"/>
        <pt x="728" y="430" on="0"/>
        <pt x="779" y="690" on="1"/>
        <pt x="817" y="877" on="0"/>
        <pt x="817" y="983" on="1"/>
        <pt x="817" y="1087" on="0"/>
        <pt x="744" y="1180" on="0"/>
        <pt x="666" y="1180" on="1"/>
        <pt x="587" y="1180" on="0"/>
        <pt x="468" y="1076" on="0"/>
        <pt x="376" y="853" on="0"/>
        <pt x="339" y="672" on="1"/>
        <pt x="305" y="503" on="0"/>
        <pt x="305" y="392" on="1"/>
        <pt x="305" y="284" on="0"/>
        <pt x="376" y="182" on="0"/>
        <pt x="451" y="182" on="1"/>
      </contour>
    </TTGlyph>
    <TTGlyph name="R" xMin="15" yMin="0" xMax="1022" yMax="1362">
      <contour>
        <pt x="288" y="1362" on="1"/>
        <pt x="616" y="1362" on="1"/>
        <pt x="817" y="1362" on="0"/>
        <pt x="1022" y="1194" on="0"/>
        <pt x="1022" y="1046" on="1"/>
        <pt x="1022" y="1001" on="0"/>
        <pt x="1011" y="944" on="1"/>
        <pt x="983" y="797" on="0"/>
        <pt x="808" y="602" on="0"/>
        <pt x="661" y="563" on="1"/>
        <pt x="862" y="0" on="1"/>
        <pt x="581" y="0" on="1"/>
        <pt x="416" y="533" on="1"/>
        <pt x="349" y="533" on="1"/>
        <pt x="242" y="0" on="1"/>
        <pt x="15" y="0" on="1"/>
      </contour>
      <contour>
        <pt x="627" y="738" on="0"/>
        <pt x="752" y="839" on="0"/>
        <pt x="774" y="950" on="1"/>
        <pt x="783" y="991" on="0"/>
        <pt x="783" y="1024" on="1"/>
        <pt x="783" y="1091" on="0"/>
        <pt x="696" y="1157" on="0"/>
        <pt x="595" y="1157" on="1"/>
        <pt x="474" y="1157" on="1"/>
        <pt x="390" y="738" on="1"/>
        <pt x="511" y="738" on="1"/>
      </contour>
    </TTGlyph>
    <TTGlyph name="Racute" xMin="-92" yMin="0" xMax="968" yMax="1870">
      <component glyphName="R" x="-107" y="0" flags="0x0"/>
      <component glyphName="acutecomb.case" x="-141" y="0" flags="0x0"/>
    </TTGlyph>
    <TTGlyph name="Rcaron" xMin="-92" yMin="0" xMax="971" yMax="1870">
      <component glyphName="R" x="-107" y="0" flags="0x0"/>
      <component glyphName="uni030C.case" x="-141" y="0" flags="0x0"/>
    </TTGlyph>
    <TTGlyph name="S" xMin="-27" yMin="-17" xMax="960" yMax="1380">
      <contour>
        <pt x="131" y="-17" on="0"/>
        <pt x="-27" y="89" on="1"/>
        <pt x="71" y="257" on="1"/>
        <pt x="133" y="221" on="0"/>
        <pt x="266" y="183" on="0"/>
        <pt x="326" y="183" on="1"/>
        <pt x="410" y="183" on="0"/>
        <pt x="534" y="275" on="0"/>
        <pt x="549" y="348" on="1"/>
        <pt x="552" y="366" on="0"/>
        <pt x="552" y="382" on="1"/>
        <pt x="552" y="425" on="0"/>
        <pt x="510" y="499" on="0"/>
        <pt x="448" y="560" on="0"/>
        <pt x="393" y="605" on="1"/>
        <pt x="324" y="662" on="0"/>
        <pt x="240" y="748" on="0"/>
        <pt x="181" y="868" on="0"/>
        <pt x="181" y="943" on="1"/>
        <pt x="181" y="975" on="0"/>
        <pt x="189" y="1020" on="1"/>
        <pt x="210" y="1123" on="0"/>
        <pt x="329" y="1286" on="0"/>
        <pt x="513" y="1380" on="0"/>
        <pt x="627" y="1380" on="1"/>
        <pt x="719" y="1380" on="0"/>
        <pt x="889" y="1330" on="0"/>
        <pt x="960" y="1288" on="1"/>
        <pt x="870" y="1120" on="1"/>
        <pt x="805" y="1152" on="0"/>
        <pt x="688" y="1180" on="0"/>
        <pt x="629" y="1180" on="1"/>
        <pt x="578" y="1180" on="0"/>
        <pt x="489" y="1137" on="0"/>
        <pt x="429" y="1064" on="0"/>
        <pt x="420" y="1020" on="1"/>
        <pt x="416" y="1003" on="0"/>
        <pt x="416" y="984" on="1"/>
        <pt x="416" y="941" on="0"/>
        <pt x="457" y="868" on="0"/>
        <pt x="520" y="809" on="0"/>
        <pt x="573" y="766" on="1"/>
        <pt x="642" y="710" on="0"/>
        <pt x="727" y="625" on="0"/>
        <pt x="787" y="503" on="0"/>
        <pt x="787" y="424" on="1"/>
        <pt x="787" y="384" on="0"/>
        <pt x="778" y="336" on="1"/>
        <pt x="757" y="230" on="0"/>
        <pt x="629" y="70" on="0"/>
        <pt x="433" y="-17" on="0"/>
        <pt x="314" y="-17" on="1"/>
      </contour>
    </TTGlyph>
    <TTGlyph name="Sacute" xMin="-134" yMin="-17" xMax="936" yMax="1870">
      <component glyphName="S" x="-107" y="0" flags="0x0"/>
      <component glyphName="acutecomb.case" x="-173" y="0" flags="0x0"/>
    </TTGlyph>
    <TTGlyph name="Scaron" xMin="-134" yMin="-17" xMax="939" yMax="1870">
      <component glyphName="S" x="-107" y="0" flags="0x0"/>
      <component glyphName="uni030C.case" x="-173" y="0" flags="0x0"/>
    </TTGlyph>
    <TTGlyph name="Scedilla" xMin="-27" yMin="-303" xMax="960" yMax="1380">
      <contour>
        <pt x="131" y="-17" on="0"/>
        <pt x="-27" y="89" on="1"/>
        <pt x="71" y="257" on="1"/>
        <pt x="133" y="221" on="0"/>
        <pt x="266" y="183" on="0"/>
        <pt x="326" y="183" on="1"/>
        <pt x="410" y="183" on="0"/>
        <pt x="534" y="275" on="0"/>
        <pt x="549" y="348" on="1"/>
        <pt x="552" y="366" on="0"/>
        <pt x="552" y="382" on="1"/>
        <pt x="552" y="425" on="0"/>
        <pt x="510" y="499" on="0"/>
        <pt x="448" y="560" on="0"/>
        <pt x="393" y="605" on="1"/>
        <pt x="324" y="662" on="0"/>
        <pt x="240" y="748" on="0"/>
        <pt x="181" y="868" on="0"/>
        <pt x="181" y="943" on="1"/>
        <pt x="181" y="975" on="0"/>
        <pt x="189" y="1020" on="1"/>
        <pt x="210" y="1123" on="0"/>
        <pt x="329" y="1286" on="0"/>
        <pt x="513" y="1380" on="0"/>
        <pt x="627" y="1380" on="1"/>
        <pt x="719" y="1380" on="0"/>
        <pt x="889" y="1330" on="0"/>
        <pt x="960" y="1288" on="1"/>
        <pt x="870" y="1120" on="1"/>
        <pt x="805" y="1152" on="0"/>
        <pt x="688" y="1180" on="0"/>
        <pt x="629" y="1180" on="1"/>
        <pt x="578" y="1180" on="0"/>
        <pt x="489" y="1137" on="0"/>
        <pt x="429" y="1064" on="0"/>
        <pt x="420" y="1020" on="1"/>
        <pt x="416" y="1003" on="0"/>
        <pt x="416" y="984" on="1"/>
        <pt x="416" y="941" on="0"/>
        <pt x="457" y="868" on="0"/>
        <pt x="520" y="809" on="0"/>
        <pt x="573" y="766" on="1"/>
        <pt x="642" y="710" on="0"/>
        <pt x="727" y="625" on="0"/>
        <pt x="787" y="503" on="0"/>
        <pt x="787" y="424" on="1"/>
        <pt x="787" y="384" on="0"/>
        <pt x="778" y="336" on="1"/>
        <pt x="755" y="216" on="0"/>
        <pt x="600" y="46" on="0"/>
        <pt x="476" y="2" on="1"/>
        <pt x="476" y="-49" on="0"/>
        <pt x="468" y="-92" on="1"/>
        <pt x="447" y="-200" on="0"/>
        <pt x="300" y="-303" on="0"/>
        <pt x="195" y="-303" on="1"/>
        <pt x="139" y="-303" on="0"/>
        <pt x="74" y="-285" on="1"/>
        <pt x="98" y="-162" on="1"/>
        <pt x="125" y="-166" on="0"/>
        <pt x="176" y="-166" on="1"/>
        <pt x="244" y="-166" on="0"/>
        <pt x="326" y="-102" on="0"/>
        <pt x="338" y="-42" on="1"/>
        <pt x="349" y="-17" on="1"/>
        <pt x="340" y="-18" on="0"/>
        <pt x="323" y="-17" on="0"/>
        <pt x="314" y="-17" on="1"/>
      </contour>
    </TTGlyph>
    <TTGlyph name="Scircumflex" xMin="-134" yMin="-17" xMax="860" yMax="1870">
      <component glyphName="S" x="-107" y="0" flags="0x0"/>
      <component glyphName="uni0302.case" x="-173" y="0" flags="0x0"/>
    </TTGlyph>
    <TTGlyph name="T" xMin="223" yMin="0" xMax="1127" yMax="1362">
      <contour>
        <pt x="541" y="1157" on="1"/>
        <pt x="223" y="1157" on="1"/>
        <pt x="264" y="1362" on="1"/>
        <pt x="1127" y="1362" on="1"/>
        <pt x="1086" y="1157" on="1"/>
        <pt x="768" y="1157" on="1"/>
        <pt x="536" y="0" on="1"/>
        <pt x="309" y="0" on="1"/>
      </contour>
    </TTGlyph>
    <TTGlyph name="Tcaron" xMin="116" yMin="0" xMax="1020" yMax="1870">
      <component glyphName="T" x="-107" y="0" flags="0x0"/>
      <component glyphName="uni030C.case" x="-107" y="0" flags="0x0"/>
    </TTGlyph>
    <TTGlyph name="Thorn" xMin="15" yMin="0" xMax="975" yMax="1362">
      <contour>
        <pt x="288" y="1362" on="1"/>
        <pt x="515" y="1362" on="1"/>
        <pt x="467" y="1122" on="1"/>
        <pt x="568" y="1122" on="1"/>
        <pt x="771" y="1123" on="0"/>
        <pt x="975" y="954" on="0"/>
        <pt x="975" y="807" on="1"/>
        <pt x="975" y="762" on="0"/>
        <pt x="964" y="707" on="1"/>
        <pt x="924" y="508" on="0"/>
        <pt x="642" y="278" on="0"/>
        <pt x="396" y="278" on="1"/>
        <pt x="364" y="278" on="0"/>
        <pt x="307" y="288" on="1"/>
        <pt x="242" y="0" on="1"/>
        <pt x="15" y="0" on="1"/>
      </contour>
      <contour>
        <pt x="385" y="482" on="0"/>
        <pt x="409" y="482" on="1"/>
        <pt x="521" y="482" on="0"/>
        <pt x="649" y="533" on="0"/>
        <pt x="711" y="631" on="0"/>
        <pt x="727" y="713" on="1"/>
        <pt x="736" y="762" on="0"/>
        <pt x="736" y="787" on="1"/>
        <pt x="736" y="853" on="0"/>
        <pt x="650" y="919" on="0"/>
        <pt x="548" y="918" on="1"/>
        <pt x="426" y="918" on="1"/>
        <pt x="332" y="486" on="1"/>
      </contour>
    </TTGlyph>
    <TTGlyph name="U" xMin="84" yMin="-23" xMax="1099" yMax="1362">
      <contour>
        <pt x="261" y="-23" on="0"/>
        <pt x="84" y="137" on="0"/>
        <pt x="84" y="286" on="1"/>
        <pt x="84" y="340" on="0"/>
        <pt x="96" y="403" on="1"/>
        <pt x="288" y="1362" on="1"/>
        <pt x="515" y="1362" on="1"/>
        <pt x="318" y="379" on="1"/>
        <pt x="311" y="344" on="0"/>
        <pt x="311" y="311" on="1"/>
        <pt x="311" y="246" on="0"/>
        <pt x="382" y="183" on="0"/>
        <pt x="457" y="183" on="1"/>
        <pt x="547" y="183" on="0"/>
        <pt x="674" y="303" on="0"/>
        <pt x="694" y="405" on="1"/>
        <pt x="886" y="1362" on="1"/>
        <pt x="1099" y="1362" on="1"/>
        <pt x="905" y="394" on="1"/>
        <pt x="866" y="193" on="0"/>
        <pt x="613" y="-23" on="0"/>
        <pt x="425" y="-23" on="1"/>
      </contour>
    </TTGlyph>
    <TTGlyph name="Uacute" xMin="-23" yMin="-23" xMax="1012" yMax="1870">
      <component glyphName="U" x="-107" y="0" flags="0x0"/>
      <component glyphName="acutecomb.case" x="-97" y="0" flags="0x0"/>
    </TTGlyph>
    <TTGlyph name="Ubreve" xMin="-23" yMin="-23" xMax="992" yMax="1823">
      <component glyphName="U" x="-107" y="0" flags="0x0"/>
      <component glyphName="uni0306.case" x="-97" y="0" flags="0x0"/>
    </TTGlyph>
    <TTGlyph name="Ucircumflex" xMin="-23" yMin="-23" xMax="992" yMax="1870">
      <component glyphName="U" x="-107" y="0" flags="0x0"/>
      <component glyphName="uni0302.case" x="-97" y="0" flags="0x0"/>
    </TTGlyph>
    <TTGlyph name="Udieresis" xMin="-23" yMin="-23" xMax="1029" yMax="1861">
      <component glyphName="U" x="-107" y="0" flags="0x0"/>
      <component glyphName="uni0308.case" x="-97" y="0" flags="0x0"/>
    </TTGlyph>
    <TTGlyph name="Ugrave" xMin="-23" yMin="-23" xMax="992" yMax="1870">
      <component glyphName="U" x="-107" y="0" flags="0x0"/>
      <component glyphName="gravecomb.case" x="-97" y="0" flags="0x0"/>
    </TTGlyph>
    <TTGlyph name="Umacron" xMin="-23" yMin="-23" xMax="992" yMax="1710">
      <component glyphName="U" x="-107" y="0" flags="0x0"/>
      <component glyphName="uni0304.case" x="-97" y="0" flags="0x0"/>
    </TTGlyph>
    <TTGlyph name="Uogonek" xMin="84" yMin="-303" xMax="1099" yMax="1362">
      <contour>
        <pt x="302" y="-303" on="0"/>
        <pt x="191" y="-228" on="0"/>
        <pt x="191" y="-167" on="1"/>
        <pt x="191" y="-151" on="0"/>
        <pt x="193" y="-142" on="1"/>
        <pt x="203" y="-98" on="0"/>
        <pt x="259" y="-35" on="0"/>
        <pt x="318" y="-11" on="1"/>
        <pt x="206" y="12" on="0"/>
        <pt x="84" y="165" on="0"/>
        <pt x="84" y="287" on="1"/>
        <pt x="84" y="342" on="0"/>
        <pt x="96" y="403" on="1"/>
        <pt x="288" y="1362" on="1"/>
        <pt x="515" y="1362" on="1"/>
        <pt x="318" y="379" on="1"/>
        <pt x="311" y="344" on="0"/>
        <pt x="311" y="311" on="1"/>
        <pt x="311" y="246" on="0"/>
        <pt x="382" y="183" on="0"/>
        <pt x="457" y="183" on="1"/>
        <pt x="547" y="183" on="0"/>
        <pt x="674" y="303" on="0"/>
        <pt x="694" y="405" on="1"/>
        <pt x="886" y="1362" on="1"/>
        <pt x="1099" y="1362" on="1"/>
        <pt x="905" y="394" on="1"/>
        <pt x="872" y="226" on="0"/>
        <pt x="687" y="20" on="0"/>
        <pt x="545" y="-13" on="1"/>
        <pt x="497" y="-28" on="0"/>
        <pt x="443" y="-68" on="0"/>
        <pt x="440" y="-87" on="1"/>
        <pt x="439" y="-90" on="0"/>
        <pt x="439" y="-96" on="1"/>
        <pt x="439" y="-104" on="0"/>
        <pt x="455" y="-110" on="0"/>
        <pt x="478" y="-110" on="1"/>
        <pt x="492" y="-110" on="0"/>
        <pt x="529" y="-103" on="0"/>
        <pt x="547" y="-99" on="1"/>
        <pt x="554" y="-284" on="1"/>
        <pt x="478" y="-303" on="0"/>
        <pt x="394" y="-303" on="1"/>
      </contour>
    </TTGlyph>
    <TTGlyph name="Uring" xMin="-23" yMin="-23" xMax="992" yMax="1902">
      <component glyphName="U" x="-107" y="0" flags="0x0"/>
      <component glyphName="uni030A.case" x="-97" y="0" flags="0x0"/>
    </TTGlyph>
    <TTGlyph name="Utilde" xMin="-23" yMin="-23" xMax="1006" yMax="1794">
      <component glyphName="U" x="-107" y="0" flags="0x0"/>
      <component glyphName="tildecomb.case" x="-97" y="0" flags="0x0"/>
    </TTGlyph>
    <TTGlyph name="V" xMin="221" yMin="0" xMax="1167" yMax="1362">
      <contour>
        <pt x="221" y="1362" on="1"/>
        <pt x="466" y="1362" on="1"/>
        <pt x="489" y="334" on="1"/>
        <pt x="933" y="1362" on="1"/>
        <pt x="1167" y="1362" on="1"/>
        <pt x="547" y="0" on="1"/>
        <pt x="284" y="0" on="1"/>
      </contour>
    </TTGlyph>
    <TTGlyph name="W" xMin="133" yMin="0" xMax="1441" yMax="1362">
      <contour>
        <pt x="772" y="1009" on="1"/>
        <pt x="450" y="0" on="1"/>
        <pt x="133" y="0" on="1"/>
        <pt x="253" y="1362" on="1"/>
        <pt x="467" y="1362" on="1"/>
        <pt x="355" y="267" on="1"/>
        <pt x="705" y="1362" on="1"/>
        <pt x="990" y="1362" on="1"/>
        <pt x="900" y="261" on="1"/>
        <pt x="1231" y="1362" on="1"/>
        <pt x="1441" y="1362" on="1"/>
        <pt x="1014" y="0" on="1"/>
        <pt x="690" y="0" on="1"/>
      </contour>
    </TTGlyph>
    <TTGlyph name="Wacute" xMin="26" yMin="0" xMax="1334" yMax="1870">
      <component glyphName="W" x="-107" y="0" flags="0x0"/>
      <component glyphName="acutecomb.case" x="45" y="0" flags="0x0"/>
    </TTGlyph>
    <TTGlyph name="Wcircumflex" xMin="26" yMin="0" xMax="1334" yMax="1870">
      <component glyphName="W" x="-107" y="0" flags="0x0"/>
      <component glyphName="uni0302.case" x="45" y="0" flags="0x0"/>
    </TTGlyph>
    <TTGlyph name="Wdieresis" xMin="26" yMin="0" xMax="1334" yMax="1861">
      <component glyphName="W" x="-107" y="0" flags="0x0"/>
      <component glyphName="uni0308.case" x="45" y="0" flags="0x0"/>
    </TTGlyph>
    <TTGlyph name="Wgrave" xMin="26" yMin="0" xMax="1334" yMax="1870">
      <component glyphName="W" x="-107" y="0" flags="0x0"/>
      <component glyphName="gravecomb.case" x="45" y="0" flags="0x0"/>
    </TTGlyph>
    <TTGlyph name="X" xMin="-64" yMin="0" xMax="1099" yMax="1362">
      <contour>
        <pt x="451" y="474" on="1"/>
        <pt x="174" y="0" on="1"/>
        <pt x="-64" y="0" on="1"/>
        <pt x="382" y="726" on="1"/>
        <pt x="208" y="1362" on="1"/>
        <pt x="460" y="1362" on="1"/>
        <pt x="580" y="926" on="1"/>
        <pt x="861" y="1362" on="1"/>
        <pt x="1099" y="1362" on="1"/>
        <pt x="644" y="691" on="1"/>
        <pt x="834" y="0" on="1"/>
        <pt x="581" y="0" on="1"/>
      </contour>
    </TTGlyph>
    <TTGlyph name="Y" xMin="163" yMin="0" xMax="1088" yMax="1362">
      <contour>
        <pt x="354" y="605" on="1"/>
        <pt x="163" y="1362" on="1"/>
        <pt x="418" y="1362" on="1"/>
        <pt x="532" y="855" on="1"/>
        <pt x="855" y="1362" on="1"/>
        <pt x="1088" y="1362" on="1"/>
        <pt x="581" y="605" on="1"/>
        <pt x="460" y="0" on="1"/>
        <pt x="233" y="0" on="1"/>
      </contour>
    </TTGlyph>
    <TTGlyph name="Yacute" xMin="56" yMin="0" xMax="981" yMax="1870">
      <component glyphName="Y" x="-107" y="0" flags="0x0"/>
      <component glyphName="acutecomb.case" x="-173" y="0" flags="0x0"/>
    </TTGlyph>
    <TTGlyph name="Ycircumflex" xMin="56" yMin="0" xMax="981" yMax="1870">
      <component glyphName="Y" x="-107" y="0" flags="0x0"/>
      <component glyphName="uni0302.case" x="-173" y="0" flags="0x0"/>
    </TTGlyph>
    <TTGlyph name="Ydieresis" xMin="56" yMin="0" xMax="981" yMax="1861">
      <component glyphName="Y" x="-107" y="0" flags="0x0"/>
      <component glyphName="uni0308.case" x="-173" y="0" flags="0x0"/>
    </TTGlyph>
    <TTGlyph name="Ygrave" xMin="56" yMin="0" xMax="981" yMax="1870">
      <component glyphName="Y" x="-107" y="0" flags="0x0"/>
      <component glyphName="gravecomb.case" x="-173" y="0" flags="0x0"/>
    </TTGlyph>
    <TTGlyph name="Z" xMin="-2" yMin="0" xMax="969" yMax="1362">
      <contour>
        <pt x="32" y="170" on="1"/>
        <pt x="672" y="1159" on="1"/>
        <pt x="230" y="1159" on="1"/>
        <pt x="271" y="1362" on="1"/>
        <pt x="969" y="1362" on="1"/>
        <pt x="934" y="1191" on="1"/>
        <pt x="294" y="202" on="1"/>
        <pt x="737" y="202" on="1"/>
        <pt x="696" y="0" on="1"/>
        <pt x="-2" y="0" on="1"/>
      </contour>
    </TTGlyph>
    <TTGlyph name="Zacute" xMin="-109" yMin="0" xMax="936" yMax="1870">
      <component glyphName="Z" x="-107" y="0" flags="0x0"/>
      <component glyphName="acutecomb.case" x="-173" y="0" flags="0x0"/>
    </TTGlyph>
    <TTGlyph name="Zcaron" xMin="-109" yMin="0" xMax="939" yMax="1870">
      <component glyphName="Z" x="-107" y="0" flags="0x0"/>
      <component glyphName="uni030C.case" x="-173" y="0" flags="0x0"/>
    </TTGlyph>
    <TTGlyph name="Zdotaccent" xMin="-109" yMin="0" xMax="862" yMax="1833">
      <component glyphName="Z" x="-107" y="0" flags="0x0"/>
      <component glyphName="uni0307" x="-114" y="294" flags="0x4"/>
    </TTGlyph>
    <TTGlyph name="a" xMin="38" yMin="-15" xMax="964" yMax="1095">
      <contour>
        <pt x="199" y="-15" on="0"/>
        <pt x="94" y="42" on="0"/>
        <pt x="38" y="146" on="0"/>
        <pt x="38" y="214" on="1"/>
        <pt x="38" y="249" on="0"/>
        <pt x="45" y="283" on="1"/>
        <pt x="80" y="454" on="0"/>
        <pt x="395" y="637" on="0"/>
        <pt x="654" y="637" on="1"/>
        <pt x="712" y="637" on="1"/>
        <pt x="726" y="710" on="1"/>
        <pt x="734" y="752" on="0"/>
        <pt x="734" y="779" on="1"/>
        <pt x="734" y="841" on="0"/>
        <pt x="658" y="894" on="0"/>
        <pt x="573" y="894" on="1"/>
        <pt x="457" y="894" on="0"/>
        <pt x="275" y="845" on="1"/>
        <pt x="254" y="1032" on="1"/>
        <pt x="358" y="1063" on="0"/>
        <pt x="559" y="1095" on="0"/>
        <pt x="643" y="1095" on="1"/>
        <pt x="801" y="1095" on="0"/>
        <pt x="964" y="954" on="0"/>
        <pt x="964" y="819" on="1"/>
        <pt x="964" y="762" on="0"/>
        <pt x="951" y="701" on="1"/>
        <pt x="811" y="0" on="1"/>
        <pt x="588" y="0" on="1"/>
        <pt x="621" y="162" on="1"/>
        <pt x="586" y="123" on="1"/>
        <pt x="499" y="49" on="0"/>
        <pt x="350" y="-15" on="0"/>
        <pt x="270" y="-15" on="1"/>
      </contour>
      <contour>
        <pt x="406" y="189" on="0"/>
        <pt x="509" y="246" on="0"/>
        <pt x="583" y="310" on="1"/>
        <pt x="657" y="366" on="1"/>
        <pt x="678" y="467" on="1"/>
        <pt x="644" y="467" on="1"/>
        <pt x="540" y="467" on="0"/>
        <pt x="374" y="412" on="0"/>
        <pt x="281" y="315" on="0"/>
        <pt x="281" y="254" on="1"/>
        <pt x="281" y="221" on="0"/>
        <pt x="320" y="189" on="0"/>
        <pt x="360" y="189" on="1"/>
      </contour>
    </TTGlyph>
    <TTGlyph name="a.sc" xMin="-144" yMin="0" xMax="773" yMax="1210">
      <component glyphName="A.hex" x="-107" y="0" flags="0x0"/>
    </TTGlyph>
    <TTGlyph name="aacute" xMin="-69" yMin="-15" xMax="957" yMax="1643">
      <component glyphName="a" x="-107" y="0" flags="0x0"/>
      <component glyphName="acutecomb" x="-107" y="0" flags="0x0"/>
    </TTGlyph>
    <TTGlyph name="aacute.sc" xMin="-251" yMin="0" xMax="986" yMax="1785">
      <component glyphName="a.sc" x="-107" y="0" flags="0x0"/>
      <component glyphName="acutecomb" x="-78" y="142" flags="0x4"/>
    </TTGlyph>
    <TTGlyph name="abreve" xMin="-69" yMin="-15" xMax="924" yMax="1596">
      <component glyphName="a" x="-107" y="0" flags="0x0"/>
      <component glyphName="uni0306" x="-107" y="0" flags="0x0"/>
    </TTGlyph>
    <TTGlyph name="abreve.sc" xMin="-251" yMin="0" xMax="953" yMax="1738">
      <component glyphName="a.sc" x="-107" y="0" flags="0x0"/>
      <component glyphName="uni0306" x="-78" y="142" flags="0x4"/>
    </TTGlyph>
    <TTGlyph name="acircumflex" xMin="-69" yMin="-15" xMax="881" yMax="1643">
      <component glyphName="a" x="-107" y="0" flags="0x0"/>
      <component glyphName="uni0302" x="-107" y="0" flags="0x0"/>
    </TTGlyph>
    <TTGlyph name="acircumflex.sc" xMin="-251" yMin="0" xMax="910" yMax="1785">
      <component glyphName="a.sc" x="-107" y="0" flags="0x0"/>
      <component glyphName="uni0302" x="-78" y="142" flags="0x4"/>
    </TTGlyph>
    <TTGlyph name="acute" xMin="390" yMin="756" xMax="924" yMax="1362">
      <contour>
        <pt x="390" y="756" on="1"/>
        <pt x="650" y="1362" on="1"/>
        <pt x="924" y="1362" on="1"/>
        <pt x="517" y="756" on="1"/>
      </contour>
    </TTGlyph>
    <TTGlyph name="acutecomb" xMin="580" yMin="1248" xMax="1064" yMax="1643">
      <contour>
        <pt x="804" y="1643" on="1"/>
        <pt x="1064" y="1643" on="1"/>
        <pt x="722" y="1248" on="1"/>
        <pt x="580" y="1248" on="1"/>
      </contour>
    </TTGlyph>
    <TTGlyph name="acutecomb.case" xMin="625" yMin="1475" xMax="1109" yMax="1870">
      <contour>
        <pt x="849" y="1870" on="1"/>
        <pt x="1109" y="1870" on="1"/>
        <pt x="767" y="1475" on="1"/>
        <pt x="625" y="1475" on="1"/>
      </contour>
    </TTGlyph>
    <TTGlyph name="adieresis" xMin="-69" yMin="-15" xMax="910" yMax="1524">
      <component glyphName="a" x="-107" y="0" flags="0x0"/>
      <component glyphName="uni0308" x="-107" y="0" flags="0x0"/>
    </TTGlyph>
    <TTGlyph name="adieresis.sc" xMin="-251" yMin="0" xMax="939" yMax="1666">
      <component glyphName="a.sc" x="-107" y="0" flags="0x0"/>
      <component glyphName="uni0308" x="-78" y="142" flags="0x4"/>
    </TTGlyph>
    <TTGlyph name="agrave" xMin="-69" yMin="-15" xMax="857" yMax="1643">
      <component glyphName="a" x="-107" y="0" flags="0x0"/>
      <component glyphName="gravecomb" x="-107" y="0" flags="0x0"/>
    </TTGlyph>
    <TTGlyph name="agrave.sc" xMin="-251" yMin="0" xMax="687" yMax="1785">
      <component glyphName="a.sc" x="-107" y="0" flags="0x0"/>
      <component glyphName="gravecomb" x="-78" y="142" flags="0x4"/>
    </TTGlyph>
    <TTGlyph name="amacron" xMin="-69" yMin="-15" xMax="903" yMax="1471">
      <component glyphName="a" x="-107" y="0" flags="0x0"/>
      <component glyphName="uni0304" x="-107" y="0" flags="0x0"/>
    </TTGlyph>
    <TTGlyph name="amacron.sc" xMin="-251" yMin="0" xMax="932" yMax="1613">
      <component glyphName="a.sc" x="-107" y="0" flags="0x0"/>
      <component glyphName="uni0304" x="-78" y="142" flags="0x4"/>
    </TTGlyph>
    <TTGlyph name="ampersand" xMin="-11" yMin="-17" xMax="1065" yMax="1377">
      <contour>
        <pt x="234" y="-17" on="0"/>
        <pt x="74" y="48" on="0"/>
        <pt x="-11" y="171" on="0"/>
        <pt x="-11" y="256" on="1"/>
        <pt x="-11" y="288" on="0"/>
        <pt x="-3" y="330" on="1"/>
        <pt x="21" y="448" on="0"/>
        <pt x="161" y="611" on="0"/>
        <pt x="279" y="684" on="1"/>
        <pt x="249" y="742" on="0"/>
        <pt x="221" y="854" on="0"/>
        <pt x="221" y="914" on="1"/>
        <pt x="221" y="969" on="0"/>
        <pt x="233" y="1030" on="1"/>
        <pt x="255" y="1140" on="0"/>
        <pt x="372" y="1297" on="0"/>
        <pt x="533" y="1377" on="0"/>
        <pt x="622" y="1377" on="1"/>
        <pt x="704" y="1377" on="0"/>
        <pt x="821" y="1314" on="0"/>
        <pt x="880" y="1205" on="0"/>
        <pt x="880" y="1137" on="1"/>
        <pt x="880" y="1102" on="0"/>
        <pt x="873" y="1071" on="1"/>
        <pt x="853" y="973" on="0"/>
        <pt x="735" y="827" on="0"/>
        <pt x="590" y="729" on="0"/>
        <pt x="460" y="655" on="1"/>
        <pt x="497" y="599" on="0"/>
        <pt x="571" y="508" on="1"/>
        <pt x="738" y="327" on="1"/>
        <pt x="804" y="413" on="0"/>
        <pt x="896" y="638" on="0"/>
        <pt x="918" y="765" on="1"/>
        <pt x="1065" y="747" on="1"/>
        <pt x="1037" y="586" on="0"/>
        <pt x="917" y="314" on="0"/>
        <pt x="827" y="211" on="1"/>
        <pt x="1005" y="0" on="1"/>
        <pt x="801" y="0" on="1"/>
        <pt x="714" y="105" on="1"/>
        <pt x="553" y="-17" on="0"/>
        <pt x="344" y="-17" on="1"/>
      </contour>
      <contour>
        <pt x="145" y="292" on="0"/>
        <pt x="145" y="270" on="1"/>
        <pt x="145" y="198" on="0"/>
        <pt x="248" y="119" on="0"/>
        <pt x="355" y="119" on="1"/>
        <pt x="427" y="119" on="0"/>
        <pt x="564" y="169" on="0"/>
        <pt x="624" y="214" on="1"/>
        <pt x="454" y="433" on="1"/>
        <pt x="423" y="471" on="1"/>
        <pt x="365" y="544" on="0"/>
        <pt x="339" y="570" on="1"/>
        <pt x="263" y="516" on="0"/>
        <pt x="165" y="395" on="0"/>
        <pt x="150" y="320" on="1"/>
      </contour>
      <contour>
        <pt x="370" y="953" on="0"/>
        <pt x="370" y="909" on="1"/>
        <pt x="370" y="832" on="0"/>
        <pt x="405" y="766" on="1"/>
        <pt x="495" y="820" on="0"/>
        <pt x="613" y="905" on="0"/>
        <pt x="701" y="1015" on="0"/>
        <pt x="715" y="1083" on="1"/>
        <pt x="720" y="1110" on="0"/>
        <pt x="720" y="1129" on="1"/>
        <pt x="720" y="1184" on="0"/>
        <pt x="659" y="1244" on="0"/>
        <pt x="604" y="1244" on="1"/>
        <pt x="526" y="1244" on="0"/>
        <pt x="404" y="1118" on="0"/>
        <pt x="381" y="1006" on="1"/>
      </contour>
    </TTGlyph>
    <TTGlyph name="aogonek" xMin="38" yMin="-303" xMax="964" yMax="1095">
      <contour>
        <pt x="199" y="-15" on="0"/>
        <pt x="94" y="42" on="0"/>
        <pt x="38" y="146" on="0"/>
        <pt x="38" y="214" on="1"/>
        <pt x="38" y="249" on="0"/>
        <pt x="45" y="283" on="1"/>
        <pt x="80" y="454" on="0"/>
        <pt x="395" y="637" on="0"/>
        <pt x="654" y="637" on="1"/>
        <pt x="712" y="637" on="1"/>
        <pt x="726" y="710" on="1"/>
        <pt x="734" y="752" on="0"/>
        <pt x="734" y="779" on="1"/>
        <pt x="734" y="841" on="0"/>
        <pt x="658" y="894" on="0"/>
        <pt x="573" y="894" on="1"/>
        <pt x="457" y="894" on="0"/>
        <pt x="275" y="845" on="1"/>
        <pt x="254" y="1032" on="1"/>
        <pt x="358" y="1063" on="0"/>
        <pt x="559" y="1095" on="0"/>
        <pt x="643" y="1095" on="1"/>
        <pt x="801" y="1095" on="0"/>
        <pt x="964" y="954" on="0"/>
        <pt x="964" y="819" on="1"/>
        <pt x="964" y="762" on="0"/>
        <pt x="951" y="701" on="1"/>
        <pt x="812" y="4" on="1"/>
        <pt x="819" y="-2" on="1"/>
        <pt x="753" y="-18" on="0"/>
        <pt x="682" y="-64" on="0"/>
        <pt x="678" y="-87" on="1"/>
        <pt x="677" y="-90" on="0"/>
        <pt x="677" y="-96" on="1"/>
        <pt x="677" y="-104" on="0"/>
        <pt x="693" y="-110" on="0"/>
        <pt x="716" y="-110" on="1"/>
        <pt x="730" y="-110" on="0"/>
        <pt x="767" y="-103" on="0"/>
        <pt x="785" y="-99" on="1"/>
        <pt x="792" y="-284" on="1"/>
        <pt x="716" y="-303" on="0"/>
        <pt x="632" y="-303" on="1"/>
        <pt x="540" y="-303" on="0"/>
        <pt x="429" y="-228" on="0"/>
        <pt x="429" y="-167" on="1"/>
        <pt x="429" y="-151" on="0"/>
        <pt x="431" y="-142" on="1"/>
        <pt x="442" y="-92" on="0"/>
        <pt x="514" y="-18" on="0"/>
        <pt x="583" y="11" on="1"/>
        <pt x="621" y="162" on="1"/>
        <pt x="586" y="123" on="1"/>
        <pt x="499" y="49" on="0"/>
        <pt x="350" y="-15" on="0"/>
        <pt x="270" y="-15" on="1"/>
      </contour>
      <contour>
        <pt x="406" y="189" on="0"/>
        <pt x="509" y="246" on="0"/>
        <pt x="583" y="310" on="1"/>
        <pt x="657" y="366" on="1"/>
        <pt x="678" y="467" on="1"/>
        <pt x="644" y="467" on="1"/>
        <pt x="540" y="467" on="0"/>
        <pt x="374" y="412" on="0"/>
        <pt x="281" y="315" on="0"/>
        <pt x="281" y="254" on="1"/>
        <pt x="281" y="221" on="0"/>
        <pt x="320" y="189" on="0"/>
        <pt x="360" y="189" on="1"/>
      </contour>
    </TTGlyph>
    <TTGlyph name="aogonek.sc" xMin="-37" yMin="-303" xMax="887" yMax="1210">
      <contour>
        <pt x="608" y="-303" on="0"/>
        <pt x="497" y="-228" on="0"/>
        <pt x="497" y="-167" on="1"/>
        <pt x="497" y="-151" on="0"/>
        <pt x="499" y="-142" on="1"/>
        <pt x="511" y="-84" on="0"/>
        <pt x="608" y="-1" on="0"/>
        <pt x="703" y="29" on="1"/>
        <pt x="683" y="310" on="1"/>
        <pt x="273" y="310" on="1"/>
        <pt x="114" y="0" on="1"/>
        <pt x="-37" y="0" on="1"/>
        <pt x="589" y="1210" on="1"/>
        <pt x="746" y="1210" on="1"/>
        <pt x="875" y="64" on="1"/>
        <pt x="869" y="65" on="1"/>
        <pt x="887" y="-2" on="1"/>
        <pt x="821" y="-18" on="0"/>
        <pt x="750" y="-64" on="0"/>
        <pt x="746" y="-87" on="1"/>
        <pt x="745" y="-90" on="0"/>
        <pt x="745" y="-96" on="1"/>
        <pt x="745" y="-104" on="0"/>
        <pt x="761" y="-110" on="0"/>
        <pt x="784" y="-110" on="1"/>
        <pt x="798" y="-110" on="0"/>
        <pt x="835" y="-103" on="0"/>
        <pt x="853" y="-99" on="1"/>
        <pt x="860" y="-284" on="1"/>
        <pt x="784" y="-303" on="0"/>
        <pt x="700" y="-303" on="1"/>
      </contour>
      <contour>
        <pt x="671" y="446" on="1"/>
        <pt x="620" y="990" on="1"/>
        <pt x="342" y="446" on="1"/>
      </contour>
    </TTGlyph>
    <TTGlyph name="aring" xMin="-69" yMin="-15" xMax="857" yMax="1675">
      <component glyphName="a" x="-107" y="0" flags="0x0"/>
      <component glyphName="uni030A" x="-107" y="0" flags="0x0"/>
    </TTGlyph>
    <TTGlyph name="aring.sc" xMin="-251" yMin="0" xMax="879" yMax="1817">
      <component glyphName="a.sc" x="-107" y="0" flags="0x0"/>
      <component glyphName="uni030A" x="-78" y="142" flags="0x4"/>
    </TTGlyph>
    <TTGlyph name="arrowdown" xMin="34" yMin="-43" xMax="971" yMax="1362">
      <contour>
        <pt x="34" y="399" on="1"/>
        <pt x="137" y="488" on="1"/>
        <pt x="385" y="189" on="1"/>
        <pt x="620" y="1362" on="1"/>
        <pt x="771" y="1362" on="1"/>
        <pt x="536" y="189" on="1"/>
        <pt x="904" y="488" on="1"/>
        <pt x="971" y="399" on="1"/>
        <pt x="452" y="-43" on="1"/>
        <pt x="377" y="-43" on="1"/>
      </contour>
    </TTGlyph>
    <TTGlyph name="arrowleft" xMin="-21" yMin="202" xMax="1100" yMax="1140">
      <contour>
        <pt x="-21" y="643" on="1"/>
        <pt x="-10" y="700" on="1"/>
        <pt x="520" y="1140" on="1"/>
        <pt x="592" y="1055" on="1"/>
        <pt x="224" y="738" on="1"/>
        <pt x="1100" y="738" on="1"/>
        <pt x="1073" y="605" on="1"/>
        <pt x="197" y="605" on="1"/>
        <pt x="439" y="287" on="1"/>
        <pt x="333" y="202" on="1"/>
      </contour>
    </TTGlyph>
    <TTGlyph name="arrowright" xMin="14" yMin="202" xMax="1135" yMax="1140">
      <contour>
        <pt x="522" y="287" on="1"/>
        <pt x="890" y="605" on="1"/>
        <pt x="14" y="605" on="1"/>
        <pt x="41" y="738" on="1"/>
        <pt x="917" y="738" on="1"/>
        <pt x="675" y="1055" on="1"/>
        <pt x="781" y="1140" on="1"/>
        <pt x="1135" y="700" on="1"/>
        <pt x="1124" y="643" on="1"/>
        <pt x="594" y="202" on="1"/>
      </contour>
    </TTGlyph>
    <TTGlyph name="arrowup" xMin="147" yMin="0" xMax="1084" yMax="1405">
      <contour>
        <pt x="582" y="1172" on="1"/>
        <pt x="214" y="874" on="1"/>
        <pt x="147" y="963" on="1"/>
        <pt x="666" y="1405" on="1"/>
        <pt x="741" y="1405" on="1"/>
        <pt x="1084" y="963" on="1"/>
        <pt x="981" y="874" on="1"/>
        <pt x="733" y="1172" on="1"/>
        <pt x="498" y="0" on="1"/>
        <pt x="347" y="0" on="1"/>
      </contour>
    </TTGlyph>
    <TTGlyph name="asciicircum" xMin="109" yMin="303" xMax="865" yMax="1210">
      <contour>
        <pt x="253" y="303" on="1"/>
        <pt x="625" y="1027" on="1"/>
        <pt x="707" y="303" on="1"/>
        <pt x="865" y="303" on="1"/>
        <pt x="744" y="1210" on="1"/>
        <pt x="593" y="1210" on="1"/>
        <pt x="109" y="303" on="1"/>
      </contour>
    </TTGlyph>
    <TTGlyph name="asciitilde" xMin="3" yMin="452" xMax="1119" yMax="909">
      <contour>
        <pt x="38" y="704" on="0"/>
        <pt x="224" y="904" on="0"/>
        <pt x="376" y="904" on="1"/>
        <pt x="448" y="904" on="0"/>
        <pt x="544" y="853" on="0"/>
        <pt x="599" y="780" on="0"/>
        <pt x="630" y="723" on="1"/>
        <pt x="653" y="680" on="0"/>
        <pt x="688" y="631" on="0"/>
        <pt x="738" y="598" on="0"/>
        <pt x="773" y="598" on="1"/>
        <pt x="847" y="598" on="0"/>
        <pt x="955" y="743" on="0"/>
        <pt x="983" y="909" on="1"/>
        <pt x="1119" y="891" on="1"/>
        <pt x="1082" y="659" on="0"/>
        <pt x="893" y="458" on="0"/>
        <pt x="742" y="458" on="1"/>
        <pt x="670" y="458" on="0"/>
        <pt x="575" y="510" on="0"/>
        <pt x="519" y="582" on="0"/>
        <pt x="486" y="640" on="1"/>
        <pt x="463" y="682" on="0"/>
        <pt x="428" y="732" on="0"/>
        <pt x="379" y="764" on="0"/>
        <pt x="345" y="764" on="1"/>
        <pt x="266" y="764" on="0"/>
        <pt x="163" y="619" on="0"/>
        <pt x="138" y="452" on="1"/>
        <pt x="3" y="470" on="1"/>
      </contour>
    </TTGlyph>
    <TTGlyph name="asterisk" xMin="44" yMin="179" xMax="1099" yMax="1184">
      <contour>
        <pt x="123" y="893" on="1"/>
        <pt x="502" y="752" on="1"/>
        <pt x="580" y="1184" on="1"/>
        <pt x="739" y="1184" on="1"/>
        <pt x="645" y="753" on="1"/>
        <pt x="1080" y="894" on="1"/>
        <pt x="1099" y="743" on="1"/>
        <pt x="662" y="618" on="1"/>
        <pt x="853" y="273" on="1"/>
        <pt x="706" y="179" on="1"/>
        <pt x="529" y="533" on="1"/>
        <pt x="211" y="180" on="1"/>
        <pt x="102" y="273" on="1"/>
        <pt x="430" y="617" on="1"/>
        <pt x="44" y="742" on="1"/>
      </contour>
    </TTGlyph>
    <TTGlyph name="at" xMin="99" yMin="-172" xMax="982" yMax="1231">
      <contour>
        <pt x="301" y="-172" on="0"/>
        <pt x="99" y="35" on="0"/>
        <pt x="99" y="255" on="1"/>
        <pt x="99" y="369" on="0"/>
        <pt x="127" y="510" on="1"/>
        <pt x="201" y="882" on="0"/>
        <pt x="473" y="1231" on="0"/>
        <pt x="679" y="1231" on="1"/>
        <pt x="832" y="1231" on="0"/>
        <pt x="982" y="1081" on="0"/>
        <pt x="982" y="953" on="1"/>
        <pt x="982" y="901" on="0"/>
        <pt x="970" y="844" on="1"/>
        <pt x="868" y="298" on="1"/>
        <pt x="814" y="282" on="0"/>
        <pt x="691" y="265" on="0"/>
        <pt x="635" y="265" on="1"/>
        <pt x="532" y="265" on="0"/>
        <pt x="428" y="353" on="0"/>
        <pt x="428" y="445" on="1"/>
        <pt x="428" y="489" on="0"/>
        <pt x="438" y="538" on="1"/>
        <pt x="463" y="664" on="0"/>
        <pt x="595" y="794" on="0"/>
        <pt x="717" y="794" on="1"/>
        <pt x="747" y="794" on="0"/>
        <pt x="799" y="790" on="1"/>
        <pt x="823" y="871" on="1"/>
        <pt x="833" y="917" on="0"/>
        <pt x="833" y="957" on="1"/>
        <pt x="833" y="1032" on="0"/>
        <pt x="749" y="1099" on="0"/>
        <pt x="660" y="1099" on="1"/>
        <pt x="575" y="1099" on="0"/>
        <pt x="438" y="988" on="0"/>
        <pt x="322" y="720" on="0"/>
        <pt x="276" y="492" on="1"/>
        <pt x="246" y="341" on="0"/>
        <pt x="246" y="238" on="1"/>
        <pt x="246" y="89" on="0"/>
        <pt x="372" y="-40" on="0"/>
        <pt x="501" y="-40" on="1"/>
        <pt x="593" y="-40" on="0"/>
        <pt x="744" y="-9" on="1"/>
        <pt x="753" y="-134" on="1"/>
        <pt x="598" y="-172" on="0"/>
        <pt x="483" y="-172" on="1"/>
      </contour>
      <contour>
        <pt x="576" y="474" on="0"/>
        <pt x="576" y="448" on="1"/>
        <pt x="576" y="413" on="0"/>
        <pt x="610" y="393" on="0"/>
        <pt x="654" y="393" on="1"/>
        <pt x="676" y="393" on="0"/>
        <pt x="722" y="401" on="1"/>
        <pt x="782" y="664" on="1"/>
        <pt x="730" y="666" on="1"/>
        <pt x="669" y="666" on="0"/>
        <pt x="601" y="600" on="0"/>
        <pt x="585" y="520" on="1"/>
      </contour>
    </TTGlyph>
    <TTGlyph name="atilde" xMin="-69" yMin="-15" xMax="951" yMax="1567">
      <component glyphName="a" x="-107" y="0" flags="0x0"/>
      <component glyphName="tildecomb" x="-107" y="0" flags="0x0"/>
    </TTGlyph>
    <TTGlyph name="atilde.sc" xMin="-251" yMin="0" xMax="980" yMax="1709">
      <component glyphName="a.sc" x="-107" y="0" flags="0x0"/>
      <component glyphName="tildecomb" x="-78" y="142" flags="0x4"/>
    </TTGlyph>
    <TTGlyph name="b" xMin="31" yMin="-21" xMax="1018" yMax="1513">
      <contour>
        <pt x="209" y="-21" on="0"/>
        <pt x="31" y="37" on="1"/>
        <pt x="319" y="1513" on="1"/>
        <pt x="546" y="1513" on="1"/>
        <pt x="423" y="899" on="1"/>
        <pt x="454" y="941" on="1"/>
        <pt x="527" y="1012" on="0"/>
        <pt x="675" y="1084" on="0"/>
        <pt x="760" y="1084" on="1"/>
        <pt x="884" y="1084" on="0"/>
        <pt x="1018" y="922" on="0"/>
        <pt x="1018" y="772" on="1"/>
        <pt x="1018" y="691" on="0"/>
        <pt x="999" y="599" on="1"/>
        <pt x="958" y="393" on="0"/>
        <pt x="776" y="115" on="0"/>
        <pt x="524" y="-21" on="0"/>
        <pt x="376" y="-21" on="1"/>
      </contour>
      <contour>
        <pt x="526" y="172" on="0"/>
        <pt x="720" y="389" on="0"/>
        <pt x="761" y="599" on="1"/>
        <pt x="780" y="690" on="0"/>
        <pt x="780" y="750" on="1"/>
        <pt x="780" y="819" on="0"/>
        <pt x="730" y="879" on="0"/>
        <pt x="679" y="879" on="1"/>
        <pt x="630" y="879" on="0"/>
        <pt x="527" y="816" on="0"/>
        <pt x="457" y="750" on="1"/>
        <pt x="381" y="687" on="1"/>
        <pt x="272" y="182" on="1"/>
        <pt x="323" y="173" on="0"/>
        <pt x="389" y="171" on="1"/>
      </contour>
    </TTGlyph>
    <TTGlyph name="b.sc" xMin="-63" yMin="0" xMax="867" yMax="1210">
      <component glyphName="B.hex" x="-107" y="0" flags="0x0"/>
    </TTGlyph>
    <TTGlyph name="backslash" xMin="342" yMin="-303" xMax="746" yMax="1513">
      <contour>
        <pt x="342" y="1513" on="1"/>
        <pt x="502" y="1513" on="1"/>
        <pt x="746" y="-303" on="1"/>
        <pt x="588" y="-303" on="1"/>
      </contour>
    </TTGlyph>
    <TTGlyph name="bar" xMin="454" yMin="-303" xMax="605" yMax="1513">
      <contour>
        <pt x="454" y="1513" on="1"/>
        <pt x="605" y="1513" on="1"/>
        <pt x="605" y="-303" on="1"/>
        <pt x="454" y="-303" on="1"/>
      </contour>
    </TTGlyph>
    <TTGlyph name="block" xMin="-167" yMin="-303" xMax="1255" yMax="1513">
      <contour>
        <pt x="196" y="1513" on="1"/>
        <pt x="1255" y="1513" on="1"/>
        <pt x="892" y="-303" on="1"/>
        <pt x="-167" y="-303" on="1"/>
      </contour>
    </TTGlyph>
    <TTGlyph name="braceleft" xMin="118" yMin="-289" xMax="1096" yMax="1501">
      <contour>
        <pt x="256" y="678" on="0"/>
        <pt x="409" y="729" on="0"/>
        <pt x="491" y="814" on="0"/>
        <pt x="505" y="885" on="1"/>
        <pt x="510" y="906" on="0"/>
        <pt x="518" y="976" on="1"/>
        <pt x="529" y="1061" on="0"/>
        <pt x="536" y="1096" on="1"/>
        <pt x="566" y="1245" on="0"/>
        <pt x="711" y="1413" on="0"/>
        <pt x="928" y="1486" on="0"/>
        <pt x="1092" y="1501" on="1"/>
        <pt x="1096" y="1378" on="1"/>
        <pt x="965" y="1360" on="0"/>
        <pt x="812" y="1309" on="0"/>
        <pt x="708" y="1189" on="0"/>
        <pt x="685" y="1076" on="1"/>
        <pt x="679" y="1044" on="0"/>
        <pt x="667" y="963" on="1"/>
        <pt x="660" y="911" on="0"/>
        <pt x="654" y="882" on="1"/>
        <pt x="637" y="798" on="0"/>
        <pt x="559" y="689" on="0"/>
        <pt x="423" y="622" on="0"/>
        <pt x="314" y="603" on="1"/>
        <pt x="432" y="579" on="0"/>
        <pt x="547" y="471" on="0"/>
        <pt x="547" y="382" on="1"/>
        <pt x="547" y="352" on="0"/>
        <pt x="539" y="310" on="1"/>
        <pt x="531" y="269" on="0"/>
        <pt x="518" y="219" on="1"/>
        <pt x="500" y="149" on="0"/>
        <pt x="493" y="116" on="1"/>
        <pt x="482" y="61" on="0"/>
        <pt x="482" y="24" on="1"/>
        <pt x="482" y="-47" on="0"/>
        <pt x="548" y="-122" on="0"/>
        <pt x="661" y="-154" on="0"/>
        <pt x="770" y="-170" on="1"/>
        <pt x="749" y="-289" on="1"/>
        <pt x="615" y="-277" on="0"/>
        <pt x="434" y="-213" on="0"/>
        <pt x="332" y="-85" on="0"/>
        <pt x="332" y="21" on="1"/>
        <pt x="332" y="71" on="0"/>
        <pt x="344" y="132" on="1"/>
        <pt x="353" y="180" on="0"/>
        <pt x="376" y="261" on="1"/>
        <pt x="393" y="322" on="0"/>
        <pt x="397" y="343" on="1"/>
        <pt x="403" y="373" on="0"/>
        <pt x="403" y="396" on="1"/>
        <pt x="403" y="445" on="0"/>
        <pt x="348" y="502" on="0"/>
        <pt x="229" y="536" on="0"/>
        <pt x="118" y="553" on="1"/>
        <pt x="123" y="659" on="1"/>
      </contour>
    </TTGlyph>
    <TTGlyph name="braceright" xMin="-8" yMin="-291" xMax="970" yMax="1499">
      <contour>
        <pt x="831" y="532" on="0"/>
        <pt x="678" y="481" on="0"/>
        <pt x="597" y="396" on="0"/>
        <pt x="582" y="325" on="1"/>
        <pt x="579" y="309" on="0"/>
        <pt x="570" y="243" on="1"/>
        <pt x="562" y="166" on="0"/>
        <pt x="551" y="114" on="1"/>
        <pt x="521" y="-35" on="0"/>
        <pt x="376" y="-203" on="0"/>
        <pt x="160" y="-276" on="0"/>
        <pt x="-4" y="-291" on="1"/>
        <pt x="-8" y="-168" on="1"/>
        <pt x="122" y="-150" on="0"/>
        <pt x="275" y="-99" on="0"/>
        <pt x="379" y="21" on="0"/>
        <pt x="402" y="134" on="1"/>
        <pt x="412" y="181" on="0"/>
        <pt x="419" y="240" on="1"/>
        <pt x="430" y="310" on="0"/>
        <pt x="434" y="328" on="1"/>
        <pt x="451" y="412" on="0"/>
        <pt x="528" y="521" on="0"/>
        <pt x="664" y="588" on="0"/>
        <pt x="773" y="607" on="1"/>
        <pt x="655" y="631" on="0"/>
        <pt x="540" y="739" on="0"/>
        <pt x="540" y="829" on="1"/>
        <pt x="540" y="858" on="0"/>
        <pt x="548" y="900" on="1"/>
        <pt x="552" y="921" on="0"/>
        <pt x="567" y="978" on="1"/>
        <pt x="587" y="1054" on="0"/>
        <pt x="594" y="1094" on="1"/>
        <pt x="605" y="1151" on="0"/>
        <pt x="605" y="1187" on="1"/>
        <pt x="605" y="1258" on="0"/>
        <pt x="539" y="1332" on="0"/>
        <pt x="426" y="1364" on="0"/>
        <pt x="317" y="1380" on="1"/>
        <pt x="338" y="1499" on="1"/>
        <pt x="472" y="1487" on="0"/>
        <pt x="654" y="1423" on="0"/>
        <pt x="756" y="1295" on="0"/>
        <pt x="756" y="1189" on="1"/>
        <pt x="756" y="1140" on="0"/>
        <pt x="744" y="1078" on="1"/>
        <pt x="735" y="1033" on="0"/>
        <pt x="714" y="959" on="1"/>
        <pt x="707" y="934" on="0"/>
        <pt x="694" y="885" on="0"/>
        <pt x="691" y="867" on="1"/>
        <pt x="685" y="837" on="0"/>
        <pt x="685" y="813" on="1"/>
        <pt x="685" y="765" on="0"/>
        <pt x="740" y="708" on="0"/>
        <pt x="859" y="674" on="0"/>
        <pt x="970" y="657" on="1"/>
        <pt x="964" y="551" on="1"/>
      </contour>
    </TTGlyph>
    <TTGlyph name="bracketleft" xMin="136" yMin="-303" xMax="1104" yMax="1513">
      <contour>
        <pt x="499" y="1513" on="1"/>
        <pt x="1104" y="1513" on="1"/>
        <pt x="1077" y="1380" on="1"/>
        <pt x="623" y="1380" on="1"/>
        <pt x="313" y="-170" on="1"/>
        <pt x="767" y="-170" on="1"/>
        <pt x="741" y="-303" on="1"/>
        <pt x="136" y="-303" on="1"/>
      </contour>
    </TTGlyph>
    <TTGlyph name="bracketright" xMin="-16" yMin="-303" xMax="952" yMax="1513">
      <contour>
        <pt x="10" y="-170" on="1"/>
        <pt x="464" y="-170" on="1"/>
        <pt x="774" y="1380" on="1"/>
        <pt x="320" y="1380" on="1"/>
        <pt x="347" y="1513" on="1"/>
        <pt x="952" y="1513" on="1"/>
        <pt x="589" y="-303" on="1"/>
        <pt x="-16" y="-303" on="1"/>
      </contour>
    </TTGlyph>
    <TTGlyph name="breve" xMin="324" yMin="1244" xMax="924" yMax="1596">
      <component glyphName="uni0306" x="-107" y="0" flags="0x0"/>
    </TTGlyph>
    <TTGlyph name="bullet" xMin="287" yMin="410" xMax="830" yMax="948">
      <contour>
        <pt x="446" y="410" on="0"/>
        <pt x="344" y="470" on="0"/>
        <pt x="287" y="572" on="0"/>
        <pt x="287" y="634" on="1"/>
        <pt x="287" y="657" on="0"/>
        <pt x="292" y="685" on="1"/>
        <pt x="307" y="758" on="0"/>
        <pt x="400" y="879" on="0"/>
        <pt x="532" y="948" on="0"/>
        <pt x="604" y="948" on="1"/>
        <pt x="671" y="948" on="0"/>
        <pt x="774" y="888" on="0"/>
        <pt x="830" y="784" on="0"/>
        <pt x="830" y="722" on="1"/>
        <pt x="830" y="694" on="0"/>
        <pt x="824" y="667" on="1"/>
        <pt x="810" y="596" on="0"/>
        <pt x="718" y="478" on="0"/>
        <pt x="585" y="410" on="0"/>
        <pt x="512" y="410" on="1"/>
      </contour>
    </TTGlyph>
    <TTGlyph name="c" xMin="90" yMin="-19" xMax="992" yMax="1074">
      <contour>
        <pt x="816" y="835" on="0"/>
        <pt x="703" y="870" on="0"/>
        <pt x="622" y="870" on="1"/>
        <pt x="511" y="870" on="0"/>
        <pt x="373" y="703" on="0"/>
        <pt x="336" y="520" on="1"/>
        <pt x="320" y="435" on="0"/>
        <pt x="320" y="381" on="1"/>
        <pt x="320" y="280" on="0"/>
        <pt x="414" y="185" on="0"/>
        <pt x="512" y="185" on="1"/>
        <pt x="570" y="185" on="0"/>
        <pt x="665" y="204" on="0"/>
        <pt x="729" y="222" on="1"/>
        <pt x="739" y="224" on="0"/>
        <pt x="759" y="230" on="1"/>
        <pt x="800" y="45" on="1"/>
        <pt x="719" y="13" on="0"/>
        <pt x="558" y="-19" on="0"/>
        <pt x="464" y="-19" on="1"/>
        <pt x="282" y="-19" on="0"/>
        <pt x="90" y="180" on="0"/>
        <pt x="90" y="365" on="1"/>
        <pt x="90" y="445" on="0"/>
        <pt x="108" y="538" on="1"/>
        <pt x="161" y="802" on="0"/>
        <pt x="437" y="1074" on="0"/>
        <pt x="650" y="1074" on="1"/>
        <pt x="841" y="1074" on="0"/>
        <pt x="992" y="967" on="1"/>
        <pt x="876" y="800" on="1"/>
      </contour>
    </TTGlyph>
    <TTGlyph name="c.sc" xMin="11" yMin="-21" xMax="904" yMax="1231">
      <component glyphName="C.hex" x="-107" y="0" flags="0x0"/>
    </TTGlyph>
    <TTGlyph name="cacute" xMin="-17" yMin="-19" xMax="984" yMax="1634">
      <component glyphName="c" x="-107" y="0" flags="0x0"/>
      <component glyphName="acutecomb" x="-80" y="-9" flags="0x4"/>
    </TTGlyph>
    <TTGlyph name="cacute.sc" xMin="-96" yMin="-21" xMax="1030" yMax="1785">
      <component glyphName="c.sc" x="-107" y="0" flags="0x0"/>
      <component glyphName="acutecomb" x="-34" y="142" flags="0x4"/>
    </TTGlyph>
    <TTGlyph name="caron" xMin="329" yMin="1248" xMax="960" yMax="1643">
      <component glyphName="uni030C" x="-107" y="0" flags="0x0"/>
    </TTGlyph>
    <TTGlyph name="ccaron" xMin="-17" yMin="-19" xMax="987" yMax="1634">
      <component glyphName="c" x="-107" y="0" flags="0x0"/>
      <component glyphName="uni030C" x="-80" y="-9" flags="0x4"/>
    </TTGlyph>
    <TTGlyph name="ccaron.sc" xMin="-96" yMin="-21" xMax="1033" yMax="1785">
      <component glyphName="c.sc" x="-107" y="0" flags="0x0"/>
      <component glyphName="uni030C" x="-34" y="142" flags="0x4"/>
    </TTGlyph>
    <TTGlyph name="ccedilla" xMin="90" yMin="-303" xMax="992" yMax="1074">
      <contour>
        <pt x="816" y="835" on="0"/>
        <pt x="703" y="870" on="0"/>
        <pt x="622" y="870" on="1"/>
        <pt x="511" y="870" on="0"/>
        <pt x="373" y="703" on="0"/>
        <pt x="336" y="520" on="1"/>
        <pt x="320" y="435" on="0"/>
        <pt x="320" y="381" on="1"/>
        <pt x="320" y="280" on="0"/>
        <pt x="414" y="185" on="0"/>
        <pt x="512" y="185" on="1"/>
        <pt x="570" y="185" on="0"/>
        <pt x="665" y="204" on="0"/>
        <pt x="729" y="222" on="1"/>
        <pt x="739" y="224" on="0"/>
        <pt x="759" y="230" on="1"/>
        <pt x="800" y="46" on="1"/>
        <pt x="720" y="15" on="0"/>
        <pt x="615" y="-13" on="1"/>
        <pt x="614" y="-32" on="0"/>
        <pt x="610" y="-75" on="0"/>
        <pt x="607" y="-92" on="1"/>
        <pt x="586" y="-200" on="0"/>
        <pt x="439" y="-303" on="0"/>
        <pt x="334" y="-303" on="1"/>
        <pt x="278" y="-303" on="0"/>
        <pt x="213" y="-285" on="1"/>
        <pt x="237" y="-162" on="1"/>
        <pt x="264" y="-166" on="0"/>
        <pt x="315" y="-166" on="1"/>
        <pt x="383" y="-166" on="0"/>
        <pt x="465" y="-102" on="0"/>
        <pt x="477" y="-42" on="1"/>
        <pt x="480" y="-19" on="1"/>
        <pt x="464" y="-19" on="1"/>
        <pt x="282" y="-19" on="0"/>
        <pt x="90" y="180" on="0"/>
        <pt x="90" y="365" on="1"/>
        <pt x="90" y="445" on="0"/>
        <pt x="108" y="538" on="1"/>
        <pt x="161" y="802" on="0"/>
        <pt x="437" y="1074" on="0"/>
        <pt x="650" y="1074" on="1"/>
        <pt x="841" y="1074" on="0"/>
        <pt x="992" y="967" on="1"/>
        <pt x="876" y="800" on="1"/>
      </contour>
    </TTGlyph>
    <TTGlyph name="ccedilla.sc" xMin="118" yMin="-303" xMax="1011" yMax="1231">
      <contour>
        <pt x="293" y="-21" on="0"/>
        <pt x="118" y="177" on="0"/>
        <pt x="118" y="374" on="1"/>
        <pt x="118" y="479" on="0"/>
        <pt x="145" y="614" on="1"/>
        <pt x="268" y="1231" on="0"/>
        <pt x="714" y="1231" on="1"/>
        <pt x="800" y="1231" on="0"/>
        <pt x="943" y="1167" on="0"/>
        <pt x="1011" y="1111" on="1"/>
        <pt x="940" y="1013" on="1"/>
        <pt x="888" y="1050" on="0"/>
        <pt x="770" y="1095" on="0"/>
        <pt x="695" y="1095" on="1"/>
        <pt x="561" y="1095" on="0"/>
        <pt x="351" y="869" on="0"/>
        <pt x="296" y="596" on="1"/>
        <pt x="270" y="461" on="0"/>
        <pt x="270" y="371" on="1"/>
        <pt x="270" y="238" on="0"/>
        <pt x="378" y="115" on="0"/>
        <pt x="490" y="115" on="1"/>
        <pt x="556" y="115" on="0"/>
        <pt x="676" y="163" on="0"/>
        <pt x="769" y="213" on="1"/>
        <pt x="820" y="99" on="1"/>
        <pt x="756" y="62" on="0"/>
        <pt x="668" y="17" on="0"/>
        <pt x="615" y="-3" on="1"/>
        <pt x="613" y="-64" on="0"/>
        <pt x="607" y="-92" on="1"/>
        <pt x="586" y="-200" on="0"/>
        <pt x="439" y="-303" on="0"/>
        <pt x="334" y="-303" on="1"/>
        <pt x="278" y="-303" on="0"/>
        <pt x="213" y="-285" on="1"/>
        <pt x="237" y="-162" on="1"/>
        <pt x="264" y="-166" on="0"/>
        <pt x="315" y="-166" on="1"/>
        <pt x="383" y="-166" on="0"/>
        <pt x="465" y="-102" on="0"/>
        <pt x="477" y="-42" on="1"/>
        <pt x="488" y="-21" on="1"/>
        <pt x="479" y="-22" on="0"/>
        <pt x="462" y="-21" on="0"/>
        <pt x="453" y="-21" on="1"/>
      </contour>
    </TTGlyph>
    <TTGlyph name="ccircumflex" xMin="-17" yMin="-19" xMax="908" yMax="1634">
      <component glyphName="c" x="-107" y="0" flags="0x0"/>
      <component glyphName="uni0302" x="-80" y="-9" flags="0x4"/>
    </TTGlyph>
    <TTGlyph name="ccircumflex.sc" xMin="-96" yMin="-21" xMax="954" yMax="1785">
      <component glyphName="c.sc" x="-107" y="0" flags="0x0"/>
      <component glyphName="uni0302" x="-34" y="142" flags="0x4"/>
    </TTGlyph>
    <TTGlyph name="cdotaccent" xMin="-17" yMin="-19" xMax="885" yMax="1530">
      <component glyphName="c" x="-107" y="0" flags="0x0"/>
      <component glyphName="uni0307" x="-80" y="-9" flags="0x4"/>
    </TTGlyph>
    <TTGlyph name="cdotaccent.sc" xMin="-96" yMin="-21" xMax="838" yMax="1681">
      <component glyphName="c.sc" x="-107" y="0" flags="0x0"/>
      <component glyphName="uni0307" x="-34" y="142" flags="0x4"/>
    </TTGlyph>
    <TTGlyph name="cedilla" xMin="106" yMin="-303" xMax="508" yMax="35">
      <component glyphName="uni0327" x="-107" y="0" flags="0x0"/>
    </TTGlyph>
    <TTGlyph name="circumflex" xMin="250" yMin="1248" xMax="881" yMax="1643">
      <component glyphName="uni0302" x="-107" y="0" flags="0x0"/>
    </TTGlyph>
    <TTGlyph name="colon" xMin="-72" yMin="-19" xMax="470" yMax="1125">
      <component glyphName="period" x="-107" y="0" flags="0x0"/>
      <component glyphName="period" x="44" y="756" flags="0x4"/>
    </TTGlyph>
    <TTGlyph name="comma" xMin="134" yMin="-303" xMax="667" yMax="303">
      <contour>
        <pt x="134" y="-303" on="1"/>
        <pt x="393" y="303" on="1"/>
        <pt x="667" y="303" on="1"/>
        <pt x="260" y="-303" on="1"/>
      </contour>
    </TTGlyph>
    <TTGlyph name="copyright" xMin="-13" yMin="-174" xMax="1100" yMax="1384">
      <contour>
        <pt x="266" y="-174" on="0"/>
        <pt x="83" y="-49" on="0"/>
        <pt x="-13" y="186" on="0"/>
        <pt x="-13" y="347" on="1"/>
        <pt x="-13" y="467" on="0"/>
        <pt x="16" y="614" on="1"/>
        <pt x="64" y="852" on="0"/>
        <pt x="258" y="1199" on="0"/>
        <pt x="530" y="1384" on="0"/>
        <pt x="691" y="1384" on="1"/>
        <pt x="820" y="1384" on="0"/>
        <pt x="1004" y="1259" on="0"/>
        <pt x="1100" y="1025" on="0"/>
        <pt x="1100" y="863" on="1"/>
        <pt x="1100" y="743" on="0"/>
        <pt x="1071" y="596" on="1"/>
        <pt x="1024" y="359" on="0"/>
        <pt x="829" y="11" on="0"/>
        <pt x="557" y="-174" on="0"/>
        <pt x="395" y="-174" on="1"/>
      </contour>
      <contour>
        <pt x="535" y="-38" on="0"/>
        <pt x="740" y="127" on="0"/>
        <pt x="885" y="422" on="0"/>
        <pt x="924" y="616" on="1"/>
        <pt x="955" y="773" on="0"/>
        <pt x="955" y="889" on="1"/>
        <pt x="955" y="1062" on="0"/>
        <pt x="821" y="1248" on="0"/>
        <pt x="682" y="1248" on="1"/>
        <pt x="556" y="1248" on="0"/>
        <pt x="349" y="1085" on="0"/>
        <pt x="202" y="791" on="0"/>
        <pt x="164" y="598" on="1"/>
        <pt x="134" y="450" on="0"/>
        <pt x="134" y="329" on="1"/>
        <pt x="134" y="153" on="0"/>
        <pt x="270" y="-38" on="0"/>
        <pt x="409" y="-38" on="1"/>
      </contour>
      <contour>
        <pt x="443" y="303" on="0"/>
        <pt x="335" y="366" on="0"/>
        <pt x="281" y="475" on="0"/>
        <pt x="281" y="543" on="1"/>
        <pt x="281" y="580" on="0"/>
        <pt x="288" y="614" on="1"/>
        <pt x="317" y="758" on="0"/>
        <pt x="496" y="908" on="0"/>
        <pt x="634" y="908" on="1"/>
        <pt x="673" y="908" on="0"/>
        <pt x="777" y="888" on="0"/>
        <pt x="814" y="876" on="1"/>
        <pt x="776" y="758" on="1"/>
        <pt x="720" y="772" on="0"/>
        <pt x="630" y="772" on="1"/>
        <pt x="563" y="772" on="0"/>
        <pt x="454" y="685" on="0"/>
        <pt x="436" y="596" on="1"/>
        <pt x="431" y="574" on="0"/>
        <pt x="431" y="547" on="1"/>
        <pt x="431" y="496" on="0"/>
        <pt x="492" y="448" on="0"/>
        <pt x="559" y="448" on="1"/>
        <pt x="627" y="448" on="0"/>
        <pt x="705" y="467" on="1"/>
        <pt x="720" y="344" on="1"/>
        <pt x="629" y="303" on="0"/>
        <pt x="522" y="303" on="1"/>
      </contour>
    </TTGlyph>
    <TTGlyph name="d" xMin="42" yMin="-15" xMax="1132" yMax="1513">
      <contour>
        <pt x="175" y="-15" on="0"/>
        <pt x="42" y="148" on="0"/>
        <pt x="42" y="299" on="1"/>
        <pt x="42" y="376" on="0"/>
        <pt x="60" y="469" on="1"/>
        <pt x="101" y="670" on="0"/>
        <pt x="275" y="950" on="0"/>
        <pt x="508" y="1089" on="0"/>
        <pt x="636" y="1089" on="1"/>
        <pt x="708" y="1089" on="0"/>
        <pt x="809" y="1070" on="1"/>
        <pt x="905" y="1513" on="1"/>
        <pt x="1132" y="1513" on="1"/>
        <pt x="829" y="0" on="1"/>
        <pt x="606" y="0" on="1"/>
        <pt x="641" y="173" on="1"/>
        <pt x="605" y="127" on="1"/>
        <pt x="533" y="57" on="0"/>
        <pt x="384" y="-15" on="0"/>
        <pt x="299" y="-15" on="1"/>
      </contour>
      <contour>
        <pt x="429" y="189" on="0"/>
        <pt x="532" y="251" on="0"/>
        <pt x="602" y="318" on="1"/>
        <pt x="678" y="381" on="1"/>
        <pt x="786" y="883" on="1"/>
        <pt x="748" y="897" on="0"/>
        <pt x="665" y="897" on="1"/>
        <pt x="534" y="897" on="0"/>
        <pt x="341" y="679" on="0"/>
        <pt x="298" y="469" on="1"/>
        <pt x="280" y="378" on="0"/>
        <pt x="280" y="319" on="1"/>
        <pt x="280" y="250" on="0"/>
        <pt x="330" y="189" on="0"/>
        <pt x="380" y="189" on="1"/>
      </contour>
    </TTGlyph>
    <TTGlyph name="d.sc" xMin="-63" yMin="0" xMax="883" yMax="1210">
      <component glyphName="D.hex" x="-107" y="0" flags="0x0"/>
    </TTGlyph>
    <TTGlyph name="dagger" xMin="123" yMin="-113" xMax="1058" yMax="1324">
      <contour>
        <pt x="502" y="772" on="1"/>
        <pt x="123" y="768" on="1"/>
        <pt x="151" y="911" on="1"/>
        <pt x="528" y="907" on="1"/>
        <pt x="606" y="1324" on="1"/>
        <pt x="769" y="1324" on="1"/>
        <pt x="680" y="907" on="1"/>
        <pt x="1058" y="911" on="1"/>
        <pt x="1030" y="768" on="1"/>
        <pt x="653" y="772" on="1"/>
        <pt x="476" y="-113" on="1"/>
        <pt x="325" y="-113" on="1"/>
      </contour>
    </TTGlyph>
    <TTGlyph name="dcaron.sc" xMin="-170" yMin="0" xMax="974" yMax="1785">
      <component glyphName="d.sc" x="-107" y="0" flags="0x0"/>
      <component glyphName="uni030C" x="-93" y="142" flags="0x4"/>
    </TTGlyph>
    <TTGlyph name="dcroat" xMin="42" yMin="-15" xMax="1261" yMax="1513">
      <contour>
        <pt x="175" y="-15" on="0"/>
        <pt x="42" y="148" on="0"/>
        <pt x="42" y="299" on="1"/>
        <pt x="42" y="376" on="0"/>
        <pt x="60" y="469" on="1"/>
        <pt x="101" y="670" on="0"/>
        <pt x="275" y="950" on="0"/>
        <pt x="508" y="1089" on="0"/>
        <pt x="636" y="1089" on="1"/>
        <pt x="708" y="1089" on="0"/>
        <pt x="809" y="1070" on="1"/>
        <pt x="841" y="1196" on="1"/>
        <pt x="598" y="1196" on="1"/>
        <pt x="639" y="1400" on="1"/>
        <pt x="882" y="1400" on="1"/>
        <pt x="905" y="1513" on="1"/>
        <pt x="1132" y="1513" on="1"/>
        <pt x="1109" y="1400" on="1"/>
        <pt x="1261" y="1400" on="1"/>
        <pt x="1220" y="1196" on="1"/>
        <pt x="1068" y="1196" on="1"/>
        <pt x="829" y="0" on="1"/>
        <pt x="606" y="0" on="1"/>
        <pt x="641" y="173" on="1"/>
        <pt x="605" y="127" on="1"/>
        <pt x="533" y="57" on="0"/>
        <pt x="384" y="-15" on="0"/>
        <pt x="299" y="-15" on="1"/>
      </contour>
      <contour>
        <pt x="429" y="189" on="0"/>
        <pt x="532" y="251" on="0"/>
        <pt x="602" y="318" on="1"/>
        <pt x="678" y="381" on="1"/>
        <pt x="786" y="883" on="1"/>
        <pt x="748" y="897" on="0"/>
        <pt x="665" y="897" on="1"/>
        <pt x="534" y="897" on="0"/>
        <pt x="341" y="679" on="0"/>
        <pt x="298" y="469" on="1"/>
        <pt x="280" y="378" on="0"/>
        <pt x="280" y="319" on="1"/>
        <pt x="280" y="250" on="0"/>
        <pt x="330" y="189" on="0"/>
        <pt x="380" y="189" on="1"/>
      </contour>
    </TTGlyph>
    <TTGlyph name="dcroat.sc" xMin="-105" yMin="0" xMax="883" yMax="1210">
      <component glyphName="eth.sc" x="-107" y="0" flags="0x0"/>
    </TTGlyph>
    <TTGlyph name="dieresis" xMin="280" yMin="1265" xMax="910" yMax="1524">
      <component glyphName="uni0308" x="-107" y="0" flags="0x0"/>
    </TTGlyph>
    <TTGlyph name="dollar" xMin="80" yMin="-303" xMax="1010" yMax="1664">
      <contour>
        <pt x="337" y="-14" on="1"/>
        <pt x="265" y="-7" on="0"/>
        <pt x="142" y="44" on="0"/>
        <pt x="80" y="86" on="1"/>
        <pt x="139" y="193" on="1"/>
        <pt x="191" y="161" on="0"/>
        <pt x="326" y="119" on="0"/>
        <pt x="391" y="119" on="1"/>
        <pt x="460" y="119" on="0"/>
        <pt x="578" y="173" on="0"/>
        <pt x="658" y="269" on="0"/>
        <pt x="670" y="330" on="1"/>
        <pt x="675" y="357" on="0"/>
        <pt x="675" y="377" on="1"/>
        <pt x="675" y="429" on="0"/>
        <pt x="628" y="519" on="0"/>
        <pt x="558" y="591" on="0"/>
        <pt x="499" y="643" on="1"/>
        <pt x="432" y="702" on="0"/>
        <pt x="351" y="789" on="0"/>
        <pt x="294" y="905" on="0"/>
        <pt x="294" y="976" on="1"/>
        <pt x="294" y="1007" on="0"/>
        <pt x="302" y="1049" on="1"/>
        <pt x="317" y="1127" on="0"/>
        <pt x="401" y="1263" on="0"/>
        <pt x="535" y="1359" on="0"/>
        <pt x="621" y="1375" on="1"/>
        <pt x="687" y="1664" on="1"/>
        <pt x="839" y="1664" on="1"/>
        <pt x="773" y="1374" on="1"/>
        <pt x="893" y="1359" on="0"/>
        <pt x="1010" y="1288" on="1"/>
        <pt x="948" y="1182" on="1"/>
        <pt x="830" y="1244" on="0"/>
        <pt x="702" y="1244" on="1"/>
        <pt x="638" y="1244" on="0"/>
        <pt x="533" y="1184" on="0"/>
        <pt x="465" y="1090" on="0"/>
        <pt x="456" y="1042" on="1"/>
        <pt x="451" y="1014" on="0"/>
        <pt x="451" y="993" on="1"/>
        <pt x="451" y="941" on="0"/>
        <pt x="497" y="852" on="0"/>
        <pt x="566" y="781" on="0"/>
        <pt x="624" y="732" on="1"/>
        <pt x="691" y="674" on="0"/>
        <pt x="773" y="588" on="0"/>
        <pt x="830" y="470" on="0"/>
        <pt x="830" y="396" on="1"/>
        <pt x="830" y="355" on="0"/>
        <pt x="822" y="316" on="1"/>
        <pt x="807" y="240" on="0"/>
        <pt x="721" y="105" on="0"/>
        <pt x="580" y="9" on="0"/>
        <pt x="489" y="-9" on="1"/>
        <pt x="423" y="-303" on="1"/>
        <pt x="272" y="-303" on="1"/>
      </contour>
    </TTGlyph>
    <TTGlyph name="dotaccent" xMin="416" yMin="1206" xMax="765" yMax="1539">
      <component glyphName="uni0307" x="-107" y="0" flags="0x0"/>
    </TTGlyph>
    <TTGlyph name="dotlessi" xMin="-23" yMin="0" xMax="751" yMax="1080">
      <contour>
        <pt x="717" y="0" on="1"/>
        <pt x="-23" y="0" on="1"/>
        <pt x="11" y="170" on="1"/>
        <pt x="271" y="189" on="1"/>
        <pt x="409" y="881" on="1"/>
        <pt x="172" y="881" on="1"/>
        <pt x="206" y="1051" on="1"/>
        <pt x="576" y="1080" on="1"/>
        <pt x="676" y="1080" on="1"/>
        <pt x="498" y="189" on="1"/>
        <pt x="751" y="170" on="1"/>
      </contour>
    </TTGlyph>
    <TTGlyph name="dotlessi.sans" xMin="25" yMin="0" xMax="466" yMax="1068">
      <contour>
        <pt x="239" y="1068" on="1"/>
        <pt x="466" y="1068" on="1"/>
        <pt x="252" y="0" on="1"/>
        <pt x="25" y="0" on="1"/>
      </contour>
    </TTGlyph>
    <TTGlyph name="dotlessi.sans.prop" xMin="309" yMin="0" xMax="750" yMax="1068">
      <contour>
        <pt x="523" y="1068" on="1"/>
        <pt x="750" y="1068" on="1"/>
        <pt x="536" y="0" on="1"/>
        <pt x="309" y="0" on="1"/>
      </contour>
    </TTGlyph>
    <TTGlyph name="dotlessi.sc" xMin="-63" yMin="0" xMax="784" yMax="1210">
      <component glyphName="i.sc" x="-107" y="0" flags="0x0"/>
    </TTGlyph>
    <TTGlyph name="e" xMin="66" yMin="-19" xMax="938" yMax="1084">
      <contour>
        <pt x="270" y="-19" on="0"/>
        <pt x="66" y="182" on="0"/>
        <pt x="66" y="370" on="1"/>
        <pt x="66" y="451" on="0"/>
        <pt x="85" y="543" on="1"/>
        <pt x="119" y="715" on="0"/>
        <pt x="269" y="957" on="0"/>
        <pt x="487" y="1084" on="0"/>
        <pt x="623" y="1084" on="1"/>
        <pt x="775" y="1084" on="0"/>
        <pt x="938" y="906" on="0"/>
        <pt x="938" y="748" on="1"/>
        <pt x="938" y="624" on="0"/>
        <pt x="886" y="469" on="1"/>
        <pt x="304" y="469" on="1"/>
        <pt x="297" y="423" on="0"/>
        <pt x="297" y="379" on="1"/>
        <pt x="297" y="275" on="0"/>
        <pt x="396" y="182" on="0"/>
        <pt x="504" y="182" on="1"/>
        <pt x="559" y="182" on="0"/>
        <pt x="685" y="208" on="0"/>
        <pt x="770" y="235" on="1"/>
        <pt x="794" y="44" on="1"/>
        <pt x="621" y="-19" on="0"/>
        <pt x="462" y="-19" on="1"/>
      </contour>
      <contour>
        <pt x="706" y="667" on="1"/>
        <pt x="714" y="718" on="0"/>
        <pt x="714" y="752" on="1"/>
        <pt x="714" y="823" on="0"/>
        <pt x="654" y="885" on="0"/>
        <pt x="589" y="885" on="1"/>
        <pt x="509" y="885" on="0"/>
        <pt x="385" y="766" on="0"/>
        <pt x="347" y="649" on="1"/>
      </contour>
    </TTGlyph>
    <TTGlyph name="e.sc" xMin="-40" yMin="0" xMax="911" yMax="1210">
      <component glyphName="E.hex" x="-107" y="0" flags="0x0"/>
    </TTGlyph>
    <TTGlyph name="eacute" xMin="-41" yMin="-19" xMax="948" yMax="1643">
      <component glyphName="e" x="-107" y="0" flags="0x0"/>
      <component glyphName="acutecomb" x="-116" y="0" flags="0x0"/>
    </TTGlyph>
    <TTGlyph name="eacute.sc" xMin="-147" yMin="0" xMax="996" yMax="1785">
      <component glyphName="e.sc" x="-107" y="0" flags="0x0"/>
      <component glyphName="acutecomb" x="-68" y="142" flags="0x4"/>
    </TTGlyph>
    <TTGlyph name="ebreve" xMin="-41" yMin="-19" xMax="915" yMax="1596">
      <component glyphName="e" x="-107" y="0" flags="0x0"/>
      <component glyphName="uni0306" x="-116" y="0" flags="0x0"/>
    </TTGlyph>
    <TTGlyph name="ebreve.sc" xMin="-147" yMin="0" xMax="963" yMax="1738">
      <component glyphName="e.sc" x="-107" y="0" flags="0x0"/>
      <component glyphName="uni0306" x="-68" y="142" flags="0x4"/>
    </TTGlyph>
    <TTGlyph name="ecaron" xMin="-41" yMin="-19" xMax="951" yMax="1643">
      <component glyphName="e" x="-107" y="0" flags="0x0"/>
      <component glyphName="uni030C" x="-116" y="0" flags="0x0"/>
    </TTGlyph>
    <TTGlyph name="ecaron.sc" xMin="-147" yMin="0" xMax="999" yMax="1785">
      <component glyphName="e.sc" x="-107" y="0" flags="0x0"/>
      <component glyphName="uni030C" x="-68" y="142" flags="0x4"/>
    </TTGlyph>
    <TTGlyph name="ecircumflex" xMin="-41" yMin="-19" xMax="872" yMax="1643">
      <component glyphName="e" x="-107" y="0" flags="0x0"/>
      <component glyphName="uni0302" x="-116" y="0" flags="0x0"/>
    </TTGlyph>
    <TTGlyph name="ecircumflex.sc" xMin="-147" yMin="0" xMax="920" yMax="1785">
      <component glyphName="e.sc" x="-107" y="0" flags="0x0"/>
      <component glyphName="uni0302" x="-68" y="142" flags="0x4"/>
    </TTGlyph>
    <TTGlyph name="edieresis" xMin="-41" yMin="-19" xMax="901" yMax="1524">
      <component glyphName="e" x="-107" y="0" flags="0x0"/>
      <component glyphName="uni0308" x="-116" y="0" flags="0x0"/>
    </TTGlyph>
    <TTGlyph name="edieresis.sc" xMin="-147" yMin="0" xMax="949" yMax="1666">
      <component glyphName="e.sc" x="-107" y="0" flags="0x0"/>
      <component glyphName="uni0308" x="-68" y="142" flags="0x4"/>
    </TTGlyph>
    <TTGlyph name="edotaccent" xMin="-41" yMin="-19" xMax="831" yMax="1539">
      <component glyphName="e" x="-107" y="0" flags="0x0"/>
      <component glyphName="uni0307" x="-116" y="0" flags="0x0"/>
    </TTGlyph>
    <TTGlyph name="edotaccent.sc" xMin="-147" yMin="0" xMax="804" yMax="1681">
      <component glyphName="e.sc" x="-107" y="0" flags="0x0"/>
      <component glyphName="uni0307" x="-68" y="142" flags="0x4"/>
    </TTGlyph>
    <TTGlyph name="egrave" xMin="-41" yMin="-19" xMax="831" yMax="1643">
      <component glyphName="e" x="-107" y="0" flags="0x0"/>
      <component glyphName="gravecomb" x="-116" y="0" flags="0x0"/>
    </TTGlyph>
    <TTGlyph name="egrave.sc" xMin="-147" yMin="0" xMax="804" yMax="1785">
      <component glyphName="e.sc" x="-107" y="0" flags="0x0"/>
      <component glyphName="gravecomb" x="-68" y="142" flags="0x4"/>
    </TTGlyph>
    <TTGlyph name="eight" xMin="48" yMin="-19" xMax="1018" yMax="1380">
      <contour>
        <pt x="297" y="-19" on="0"/>
        <pt x="129" y="51" on="0"/>
        <pt x="48" y="174" on="0"/>
        <pt x="48" y="252" on="1"/>
        <pt x="48" y="287" on="0"/>
        <pt x="55" y="319" on="1"/>
        <pt x="81" y="449" on="0"/>
        <pt x="271" y="631" on="0"/>
        <pt x="423" y="713" on="1"/>
        <pt x="369" y="775" on="1"/>
        <pt x="307" y="831" on="0"/>
        <pt x="242" y="935" on="0"/>
        <pt x="242" y="1004" on="1"/>
        <pt x="242" y="1036" on="0"/>
        <pt x="249" y="1068" on="1"/>
        <pt x="267" y="1157" on="0"/>
        <pt x="387" y="1299" on="0"/>
        <pt x="575" y="1380" on="0"/>
        <pt x="690" y="1380" on="1"/>
        <pt x="789" y="1380" on="0"/>
        <pt x="937" y="1308" on="0"/>
        <pt x="1018" y="1181" on="0"/>
        <pt x="1018" y="1101" on="1"/>
        <pt x="1018" y="1070" on="0"/>
        <pt x="1012" y="1037" on="1"/>
        <pt x="997" y="961" on="0"/>
        <pt x="915" y="843" on="0"/>
        <pt x="797" y="747" on="0"/>
        <pt x="699" y="681" on="1"/>
        <pt x="767" y="607" on="1"/>
        <pt x="844" y="535" on="0"/>
        <pt x="911" y="414" on="0"/>
        <pt x="911" y="351" on="1"/>
        <pt x="911" y="320" on="0"/>
        <pt x="906" y="297" on="1"/>
        <pt x="889" y="213" on="0"/>
        <pt x="763" y="68" on="0"/>
        <pt x="556" y="-19" on="0"/>
        <pt x="423" y="-19" on="1"/>
      </contour>
      <contour>
        <pt x="208" y="290" on="0"/>
        <pt x="208" y="274" on="1"/>
        <pt x="208" y="209" on="0"/>
        <pt x="317" y="117" on="0"/>
        <pt x="435" y="117" on="1"/>
        <pt x="520" y="117" on="0"/>
        <pt x="655" y="169" on="0"/>
        <pt x="739" y="258" on="0"/>
        <pt x="750" y="313" on="1"/>
        <pt x="755" y="338" on="0"/>
        <pt x="755" y="354" on="1"/>
        <pt x="755" y="389" on="0"/>
        <pt x="715" y="455" on="0"/>
        <pt x="664" y="503" on="1"/>
        <pt x="527" y="618" on="1"/>
        <pt x="385" y="547" on="0"/>
        <pt x="230" y="399" on="0"/>
        <pt x="211" y="305" on="1"/>
      </contour>
      <contour>
        <pt x="400" y="1031" on="0"/>
        <pt x="400" y="1009" on="1"/>
        <pt x="400" y="971" on="0"/>
        <pt x="435" y="912" on="0"/>
        <pt x="474" y="875" on="1"/>
        <pt x="604" y="770" on="1"/>
        <pt x="688" y="830" on="0"/>
        <pt x="776" y="901" on="0"/>
        <pt x="845" y="996" on="0"/>
        <pt x="857" y="1055" on="1"/>
        <pt x="861" y="1074" on="0"/>
        <pt x="861" y="1097" on="1"/>
        <pt x="861" y="1162" on="0"/>
        <pt x="772" y="1246" on="0"/>
        <pt x="676" y="1246" on="1"/>
        <pt x="606" y="1246" on="0"/>
        <pt x="490" y="1196" on="0"/>
        <pt x="417" y="1111" on="0"/>
        <pt x="406" y="1058" on="1"/>
      </contour>
    </TTGlyph>
    <TTGlyph name="ellipsis" xMin="29" yMin="-23" xMax="850" yMax="189">
      <contour>
        <pt x="82" y="-23" on="0"/>
        <pt x="29" y="31" on="0"/>
        <pt x="29" y="70" on="1"/>
        <pt x="29" y="85" on="0"/>
        <pt x="31" y="92" on="1"/>
        <pt x="40" y="139" on="0"/>
        <pt x="103" y="189" on="0"/>
        <pt x="150" y="189" on="1"/>
        <pt x="191" y="189" on="0"/>
        <pt x="245" y="136" on="0"/>
        <pt x="245" y="96" on="1"/>
        <pt x="245" y="81" on="0"/>
        <pt x="243" y="74" on="1"/>
        <pt x="234" y="28" on="0"/>
        <pt x="170" y="-23" on="0"/>
        <pt x="123" y="-23" on="1"/>
      </contour>
      <contour>
        <pt x="385" y="-23" on="0"/>
        <pt x="332" y="31" on="0"/>
        <pt x="332" y="70" on="1"/>
        <pt x="332" y="84" on="0"/>
        <pt x="334" y="92" on="1"/>
        <pt x="343" y="139" on="0"/>
        <pt x="405" y="189" on="0"/>
        <pt x="452" y="189" on="1"/>
        <pt x="493" y="189" on="0"/>
        <pt x="547" y="136" on="0"/>
        <pt x="547" y="96" on="1"/>
        <pt x="547" y="82" on="0"/>
        <pt x="545" y="74" on="1"/>
        <pt x="536" y="28" on="0"/>
        <pt x="473" y="-23" on="0"/>
        <pt x="425" y="-23" on="1"/>
      </contour>
      <contour>
        <pt x="687" y="-23" on="0"/>
        <pt x="634" y="31" on="0"/>
        <pt x="634" y="70" on="1"/>
        <pt x="634" y="85" on="0"/>
        <pt x="636" y="92" on="1"/>
        <pt x="645" y="139" on="0"/>
        <pt x="708" y="189" on="0"/>
        <pt x="755" y="189" on="1"/>
        <pt x="796" y="189" on="0"/>
        <pt x="850" y="136" on="0"/>
        <pt x="850" y="96" on="1"/>
        <pt x="850" y="81" on="0"/>
        <pt x="848" y="74" on="1"/>
        <pt x="839" y="28" on="0"/>
        <pt x="775" y="-23" on="0"/>
        <pt x="728" y="-23" on="1"/>
      </contour>
    </TTGlyph>
    <TTGlyph name="emacron" xMin="-41" yMin="-19" xMax="894" yMax="1471">
      <component glyphName="e" x="-107" y="0" flags="0x0"/>
      <component glyphName="uni0304" x="-116" y="0" flags="0x0"/>
    </TTGlyph>
    <TTGlyph name="emacron.sc" xMin="-147" yMin="0" xMax="942" yMax="1613">
      <component glyphName="e.sc" x="-107" y="0" flags="0x0"/>
      <component glyphName="uni0304" x="-68" y="142" flags="0x4"/>
    </TTGlyph>
    <TTGlyph name="emdash" xMin="7" yMin="570" xMax="1107" yMax="772">
      <contour>
        <pt x="48" y="772" on="1"/>
        <pt x="1107" y="772" on="1"/>
        <pt x="1066" y="570" on="1"/>
        <pt x="7" y="570" on="1"/>
      </contour>
    </TTGlyph>
    <TTGlyph name="endash" xMin="7" yMin="570" xMax="1107" yMax="772">
      <contour>
        <pt x="48" y="772" on="1"/>
        <pt x="1107" y="772" on="1"/>
        <pt x="1066" y="570" on="1"/>
        <pt x="7" y="570" on="1"/>
      </contour>
    </TTGlyph>
    <TTGlyph name="eogonek" xMin="66" yMin="-303" xMax="938" yMax="1084">
      <contour>
        <pt x="270" y="-19" on="0"/>
        <pt x="66" y="182" on="0"/>
        <pt x="66" y="370" on="1"/>
        <pt x="66" y="451" on="0"/>
        <pt x="85" y="543" on="1"/>
        <pt x="119" y="715" on="0"/>
        <pt x="269" y="957" on="0"/>
        <pt x="487" y="1084" on="0"/>
        <pt x="623" y="1084" on="1"/>
        <pt x="775" y="1084" on="0"/>
        <pt x="938" y="906" on="0"/>
        <pt x="938" y="748" on="1"/>
        <pt x="938" y="624" on="0"/>
        <pt x="886" y="469" on="1"/>
        <pt x="304" y="469" on="1"/>
        <pt x="297" y="423" on="0"/>
        <pt x="297" y="379" on="1"/>
        <pt x="297" y="275" on="0"/>
        <pt x="396" y="182" on="0"/>
        <pt x="504" y="182" on="1"/>
        <pt x="559" y="182" on="0"/>
        <pt x="685" y="208" on="0"/>
        <pt x="770" y="235" on="1"/>
        <pt x="788" y="47" on="1"/>
        <pt x="726" y="19" on="1"/>
        <pt x="589" y="-64" on="0"/>
        <pt x="589" y="-138" on="1"/>
        <pt x="589" y="-154" on="0"/>
        <pt x="612" y="-166" on="0"/>
        <pt x="642" y="-166" on="1"/>
        <pt x="669" y="-166" on="0"/>
        <pt x="717" y="-155" on="1"/>
        <pt x="727" y="-285" on="1"/>
        <pt x="665" y="-303" on="0"/>
        <pt x="593" y="-303" on="1"/>
        <pt x="517" y="-303" on="0"/>
        <pt x="425" y="-237" on="0"/>
        <pt x="425" y="-180" on="1"/>
        <pt x="425" y="-165" on="0"/>
        <pt x="428" y="-150" on="1"/>
        <pt x="437" y="-106" on="0"/>
        <pt x="491" y="-40" on="0"/>
        <pt x="542" y="-16" on="1"/>
        <pt x="514" y="-19" on="0"/>
        <pt x="462" y="-19" on="1"/>
      </contour>
      <contour>
        <pt x="706" y="667" on="1"/>
        <pt x="714" y="718" on="0"/>
        <pt x="714" y="752" on="1"/>
        <pt x="714" y="823" on="0"/>
        <pt x="654" y="885" on="0"/>
        <pt x="589" y="885" on="1"/>
        <pt x="509" y="885" on="0"/>
        <pt x="385" y="766" on="0"/>
        <pt x="347" y="649" on="1"/>
      </contour>
    </TTGlyph>
    <TTGlyph name="eogonek.sc" xMin="67" yMin="-303" xMax="1018" yMax="1210">
      <contour>
        <pt x="309" y="1210" on="1"/>
        <pt x="1018" y="1210" on="1"/>
        <pt x="991" y="1074" on="1"/>
        <pt x="433" y="1074" on="1"/>
        <pt x="354" y="677" on="1"/>
        <pt x="844" y="677" on="1"/>
        <pt x="816" y="541" on="1"/>
        <pt x="326" y="541" on="1"/>
        <pt x="245" y="136" on="1"/>
        <pt x="811" y="136" on="1"/>
        <pt x="791" y="-2" on="1"/>
        <pt x="725" y="-18" on="0"/>
        <pt x="654" y="-64" on="0"/>
        <pt x="650" y="-87" on="1"/>
        <pt x="649" y="-90" on="0"/>
        <pt x="649" y="-96" on="1"/>
        <pt x="649" y="-104" on="0"/>
        <pt x="665" y="-110" on="0"/>
        <pt x="688" y="-110" on="1"/>
        <pt x="702" y="-110" on="0"/>
        <pt x="739" y="-103" on="0"/>
        <pt x="757" y="-99" on="1"/>
        <pt x="764" y="-284" on="1"/>
        <pt x="688" y="-303" on="0"/>
        <pt x="604" y="-303" on="1"/>
        <pt x="512" y="-303" on="0"/>
        <pt x="401" y="-228" on="0"/>
        <pt x="401" y="-167" on="1"/>
        <pt x="401" y="-151" on="0"/>
        <pt x="403" y="-142" on="1"/>
        <pt x="413" y="-95" on="0"/>
        <pt x="477" y="-25" on="0"/>
        <pt x="539" y="4" on="1"/>
        <pt x="67" y="0" on="1"/>
      </contour>
    </TTGlyph>
    <TTGlyph name="equal" xMin="23" yMin="461" xMax="1094" yMax="900">
      <contour>
        <pt x="111" y="900" on="1"/>
        <pt x="1094" y="900" on="1"/>
        <pt x="1067" y="764" on="1"/>
        <pt x="84" y="764" on="1"/>
      </contour>
      <contour>
        <pt x="51" y="598" on="1"/>
        <pt x="1034" y="598" on="1"/>
        <pt x="1006" y="461" on="1"/>
        <pt x="23" y="461" on="1"/>
      </contour>
    </TTGlyph>
    <TTGlyph name="eth.sc" xMin="2" yMin="0" xMax="990" yMax="1210">
      <contour>
        <pt x="795" y="1210" on="0"/>
        <pt x="990" y="1008" on="0"/>
        <pt x="990" y="815" on="1"/>
        <pt x="990" y="719" on="0"/>
        <pt x="966" y="600" on="1"/>
        <pt x="926" y="401" on="0"/>
        <pt x="759" y="133" on="0"/>
        <pt x="524" y="0" on="0"/>
        <pt x="381" y="0" on="1"/>
        <pt x="44" y="0" on="1"/>
        <pt x="153" y="545" on="1"/>
        <pt x="2" y="545" on="1"/>
        <pt x="29" y="681" on="1"/>
        <pt x="180" y="681" on="1"/>
        <pt x="286" y="1210" on="1"/>
        <pt x="596" y="1210" on="1"/>
      </contour>
      <contour>
        <pt x="411" y="1074" on="1"/>
        <pt x="332" y="681" on="1"/>
        <pt x="593" y="681" on="1"/>
        <pt x="566" y="545" on="1"/>
        <pt x="305" y="545" on="1"/>
        <pt x="223" y="136" on="1"/>
        <pt x="401" y="136" on="1"/>
        <pt x="551" y="136" on="0"/>
        <pt x="760" y="361" on="0"/>
        <pt x="810" y="612" on="1"/>
        <pt x="835" y="742" on="0"/>
        <pt x="835" y="822" on="1"/>
        <pt x="835" y="957" on="0"/>
        <pt x="716" y="1074" on="0"/>
        <pt x="593" y="1074" on="1"/>
      </contour>
    </TTGlyph>
    <TTGlyph name="exclam" xMin="35" yMin="-19" xMax="871" yMax="1362">
      <contour>
        <pt x="520" y="1362" on="1"/>
        <pt x="871" y="1362" on="1"/>
        <pt x="605" y="529" on="1"/>
        <pt x="452" y="529" on="1"/>
      </contour>
      <contour>
        <pt x="151" y="-19" on="0"/>
        <pt x="76" y="25" on="0"/>
        <pt x="35" y="99" on="0"/>
        <pt x="35" y="144" on="1"/>
        <pt x="35" y="165" on="0"/>
        <pt x="39" y="182" on="1"/>
        <pt x="50" y="235" on="0"/>
        <pt x="115" y="320" on="0"/>
        <pt x="208" y="369" on="0"/>
        <pt x="261" y="369" on="1"/>
        <pt x="309" y="369" on="0"/>
        <pt x="384" y="325" on="0"/>
        <pt x="426" y="250" on="0"/>
        <pt x="426" y="204" on="1"/>
        <pt x="426" y="183" on="0"/>
        <pt x="422" y="164" on="1"/>
        <pt x="412" y="112" on="0"/>
        <pt x="347" y="29" on="0"/>
        <pt x="252" y="-19" on="0"/>
        <pt x="199" y="-19" on="1"/>
      </contour>
    </TTGlyph>
    <TTGlyph name="exclamdown" xMin="187" yMin="-303" xMax="1022" yMax="1078">
      <contour>
        <pt x="538" y="-303" on="1"/>
        <pt x="187" y="-303" on="1"/>
        <pt x="452" y="530" on="1"/>
        <pt x="605" y="530" on="1"/>
      </contour>
      <contour>
        <pt x="906" y="1078" on="0"/>
        <pt x="981" y="1034" on="0"/>
        <pt x="1022" y="958" on="0"/>
        <pt x="1022" y="913" on="1"/>
        <pt x="1022" y="895" on="0"/>
        <pt x="1019" y="877" on="1"/>
        <pt x="1008" y="824" on="0"/>
        <pt x="942" y="739" on="0"/>
        <pt x="849" y="690" on="0"/>
        <pt x="796" y="690" on="1"/>
        <pt x="748" y="690" on="0"/>
        <pt x="673" y="734" on="0"/>
        <pt x="631" y="809" on="0"/>
        <pt x="631" y="855" on="1"/>
        <pt x="631" y="876" on="0"/>
        <pt x="635" y="895" on="1"/>
        <pt x="645" y="947" on="0"/>
        <pt x="710" y="1030" on="0"/>
        <pt x="805" y="1078" on="0"/>
        <pt x="858" y="1078" on="1"/>
      </contour>
    </TTGlyph>
    <TTGlyph name="f" xMin="56" yMin="-331" xMax="1150" yMax="1536">
      <contour>
        <pt x="175" y="-108" on="0"/>
        <pt x="307" y="46" on="0"/>
        <pt x="331" y="163" on="1"/>
        <pt x="446" y="739" on="1"/>
        <pt x="152" y="739" on="1"/>
        <pt x="193" y="942" on="1"/>
        <pt x="487" y="942" on="1"/>
        <pt x="539" y="1203" on="1"/>
        <pt x="571" y="1365" on="0"/>
        <pt x="776" y="1536" on="0"/>
        <pt x="935" y="1536" on="1"/>
        <pt x="1036" y="1536" on="0"/>
        <pt x="1150" y="1498" on="1"/>
        <pt x="1090" y="1317" on="1"/>
        <pt x="1033" y="1335" on="0"/>
        <pt x="951" y="1335" on="1"/>
        <pt x="875" y="1335" on="0"/>
        <pt x="776" y="1251" on="0"/>
        <pt x="761" y="1179" on="1"/>
        <pt x="714" y="942" on="1"/>
        <pt x="1038" y="942" on="1"/>
        <pt x="997" y="739" on="1"/>
        <pt x="673" y="739" on="1"/>
        <pt x="557" y="161" on="1"/>
        <pt x="530" y="27" on="0"/>
        <pt x="411" y="-159" on="0"/>
        <pt x="239" y="-282" on="0"/>
        <pt x="117" y="-331" on="1"/>
        <pt x="56" y="-172" on="1"/>
      </contour>
    </TTGlyph>
    <TTGlyph name="f.sc" xMin="-25" yMin="0" xMax="936" yMax="1210">
      <component glyphName="F.hex" x="-107" y="0" flags="0x0"/>
    </TTGlyph>
    <TTGlyph name="five" xMin="-24" yMin="-322" xMax="975" yMax="1210">
      <contour>
        <pt x="195" y="-166" on="0"/>
        <pt x="485" y="-58" on="0"/>
        <pt x="651" y="110" on="0"/>
        <pt x="676" y="232" on="1"/>
        <pt x="682" y="262" on="0"/>
        <pt x="682" y="291" on="1"/>
        <pt x="682" y="386" on="0"/>
        <pt x="548" y="503" on="0"/>
        <pt x="407" y="503" on="1"/>
        <pt x="342" y="503" on="0"/>
        <pt x="230" y="493" on="0"/>
        <pt x="161" y="483" on="1"/>
        <pt x="298" y="1210" on="1"/>
        <pt x="975" y="1210" on="1"/>
        <pt x="948" y="1074" on="1"/>
        <pt x="422" y="1074" on="1"/>
        <pt x="326" y="632" on="1"/>
        <pt x="382" y="637" on="0"/>
        <pt x="450" y="637" on="1"/>
        <pt x="584" y="637" on="0"/>
        <pt x="761" y="552" on="0"/>
        <pt x="845" y="405" on="0"/>
        <pt x="845" y="311" on="1"/>
        <pt x="845" y="267" on="0"/>
        <pt x="836" y="222" on="1"/>
        <pt x="791" y="-1" on="0"/>
        <pt x="378" y="-273" on="0"/>
        <pt x="-14" y="-322" on="1"/>
        <pt x="-24" y="-198" on="1"/>
      </contour>
    </TTGlyph>
    <TTGlyph name="florin" xMin="152" yMin="0" xMax="1150" yMax="1536">
      <contour>
        <pt x="446" y="739" on="1"/>
        <pt x="152" y="739" on="1"/>
        <pt x="193" y="942" on="1"/>
        <pt x="487" y="942" on="1"/>
        <pt x="539" y="1203" on="1"/>
        <pt x="571" y="1364" on="0"/>
        <pt x="776" y="1536" on="0"/>
        <pt x="935" y="1536" on="1"/>
        <pt x="1036" y="1536" on="0"/>
        <pt x="1150" y="1498" on="1"/>
        <pt x="1090" y="1317" on="1"/>
        <pt x="1033" y="1335" on="0"/>
        <pt x="951" y="1335" on="1"/>
        <pt x="876" y="1335" on="0"/>
        <pt x="776" y="1253" on="0"/>
        <pt x="761" y="1179" on="1"/>
        <pt x="714" y="942" on="1"/>
        <pt x="1038" y="942" on="1"/>
        <pt x="997" y="739" on="1"/>
        <pt x="673" y="739" on="1"/>
        <pt x="525" y="0" on="1"/>
        <pt x="298" y="0" on="1"/>
      </contour>
    </TTGlyph>
    <TTGlyph name="four" xMin="6" yMin="-151" xMax="903" yMax="1210">
      <contour>
        <pt x="574" y="151" on="1"/>
        <pt x="6" y="151" on="1"/>
        <pt x="26" y="248" on="1"/>
        <pt x="647" y="1210" on="1"/>
        <pt x="803" y="1210" on="1"/>
        <pt x="197" y="284" on="1"/>
        <pt x="601" y="284" on="1"/>
        <pt x="686" y="709" on="1"/>
        <pt x="837" y="709" on="1"/>
        <pt x="752" y="284" on="1"/>
        <pt x="903" y="284" on="1"/>
        <pt x="876" y="151" on="1"/>
        <pt x="725" y="151" on="1"/>
        <pt x="665" y="-151" on="1"/>
        <pt x="514" y="-151" on="1"/>
      </contour>
    </TTGlyph>
    <TTGlyph name="g" xMin="-64" yMin="-318" xMax="1028" yMax="1089">
      <contour>
        <pt x="202" y="136" on="0"/>
        <pt x="64" y="290" on="0"/>
        <pt x="64" y="427" on="1"/>
        <pt x="64" y="488" on="0"/>
        <pt x="77" y="554" on="1"/>
        <pt x="112" y="727" on="0"/>
        <pt x="291" y="969" on="0"/>
        <pt x="538" y="1089" on="0"/>
        <pt x="676" y="1089" on="1"/>
        <pt x="852" y="1089" on="0"/>
        <pt x="1028" y="1031" on="1"/>
        <pt x="853" y="118" on="1"/>
        <pt x="825" y="-20" on="0"/>
        <pt x="682" y="-216" on="0"/>
        <pt x="466" y="-318" on="0"/>
        <pt x="332" y="-318" on="1"/>
        <pt x="139" y="-318" on="0"/>
        <pt x="-64" y="-207" on="1"/>
        <pt x="24" y="-43" on="1"/>
        <pt x="101" y="-81" on="0"/>
        <pt x="247" y="-117" on="0"/>
        <pt x="322" y="-117" on="1"/>
        <pt x="450" y="-117" on="0"/>
        <pt x="603" y="7" on="0"/>
        <pt x="625" y="115" on="1"/>
        <pt x="666" y="321" on="1"/>
        <pt x="635" y="279" on="1"/>
        <pt x="563" y="208" on="0"/>
        <pt x="414" y="136" on="0"/>
        <pt x="329" y="136" on="1"/>
      </contour>
      <contour>
        <pt x="459" y="340" on="0"/>
        <pt x="562" y="402" on="0"/>
        <pt x="632" y="469" on="1"/>
        <pt x="709" y="532" on="1"/>
        <pt x="787" y="886" on="1"/>
        <pt x="749" y="897" on="0"/>
        <pt x="668" y="897" on="1"/>
        <pt x="585" y="897" on="0"/>
        <pt x="440" y="816" on="0"/>
        <pt x="337" y="662" on="0"/>
        <pt x="315" y="556" on="1"/>
        <pt x="304" y="496" on="0"/>
        <pt x="304" y="459" on="1"/>
        <pt x="304" y="396" on="0"/>
        <pt x="357" y="340" on="0"/>
        <pt x="410" y="340" on="1"/>
      </contour>
    </TTGlyph>
    <TTGlyph name="g.sc" xMin="119" yMin="-21" xMax="1011" yMax="1231">
      <contour>
        <pt x="304" y="-21" on="0"/>
        <pt x="119" y="177" on="0"/>
        <pt x="119" y="377" on="1"/>
        <pt x="119" y="485" on="0"/>
        <pt x="145" y="614" on="1"/>
        <pt x="207" y="927" on="0"/>
        <pt x="497" y="1231" on="0"/>
        <pt x="722" y="1231" on="1"/>
        <pt x="803" y="1231" on="0"/>
        <pt x="943" y="1184" on="0"/>
        <pt x="1011" y="1142" on="1"/>
        <pt x="949" y="1031" on="1"/>
        <pt x="893" y="1061" on="0"/>
        <pt x="778" y="1095" on="0"/>
        <pt x="710" y="1095" on="1"/>
        <pt x="566" y="1095" on="0"/>
        <pt x="351" y="870" on="0"/>
        <pt x="296" y="596" on="1"/>
        <pt x="270" y="463" on="0"/>
        <pt x="270" y="374" on="1"/>
        <pt x="270" y="239" on="0"/>
        <pt x="384" y="115" on="0"/>
        <pt x="504" y="115" on="1"/>
        <pt x="575" y="115" on="0"/>
        <pt x="670" y="141" on="1"/>
        <pt x="743" y="469" on="1"/>
        <pt x="505" y="469" on="1"/>
        <pt x="532" y="605" on="1"/>
        <pt x="922" y="605" on="1"/>
        <pt x="817" y="44" on="1"/>
        <pt x="736" y="13" on="0"/>
        <pt x="571" y="-21" on="0"/>
        <pt x="479" y="-21" on="1"/>
      </contour>
    </TTGlyph>
    <TTGlyph name="gbreve" xMin="-171" yMin="-318" xMax="943" yMax="1596">
      <component glyphName="g" x="-107" y="0" flags="0x0"/>
      <component glyphName="uni0306" x="-88" y="0" flags="0x0"/>
    </TTGlyph>
    <TTGlyph name="gbreve.sc" xMin="12" yMin="-21" xMax="997" yMax="1738">
      <component glyphName="g.sc" x="-107" y="0" flags="0x0"/>
      <component glyphName="uni0306" x="-34" y="142" flags="0x4"/>
    </TTGlyph>
    <TTGlyph name="gcaron" xMin="-171" yMin="-318" xMax="979" yMax="1643">
      <component glyphName="g" x="-107" y="0" flags="0x0"/>
      <component glyphName="uni030C" x="-88" y="0" flags="0x0"/>
    </TTGlyph>
    <TTGlyph name="gcaron.sc" xMin="12" yMin="-21" xMax="1033" yMax="1785">
      <component glyphName="g.sc" x="-107" y="0" flags="0x0"/>
      <component glyphName="uni030C" x="-34" y="142" flags="0x4"/>
    </TTGlyph>
    <TTGlyph name="gcircumflex" xMin="-171" yMin="-318" xMax="921" yMax="1643">
      <component glyphName="g" x="-107" y="0" flags="0x0"/>
      <component glyphName="uni0302" x="-88" y="0" flags="0x0"/>
    </TTGlyph>
    <TTGlyph name="gcircumflex.sc" xMin="12" yMin="-21" xMax="954" yMax="1785">
      <component glyphName="g.sc" x="-107" y="0" flags="0x0"/>
      <component glyphName="uni0302" x="-34" y="142" flags="0x4"/>
    </TTGlyph>
    <TTGlyph name="gdotaccent" xMin="-171" yMin="-318" xMax="921" yMax="1539">
      <component glyphName="g" x="-107" y="0" flags="0x0"/>
      <component glyphName="uni0307" x="-88" y="0" flags="0x0"/>
    </TTGlyph>
    <TTGlyph name="gdotaccent.sc" xMin="12" yMin="-21" xMax="904" yMax="1681">
      <component glyphName="g.sc" x="-107" y="0" flags="0x0"/>
      <component glyphName="uni0307" x="-34" y="142" flags="0x4"/>
    </TTGlyph>
    <TTGlyph name="germandbls" xMin="-226" yMin="-331" xMax="1009" yMax="1532">
      <contour>
        <pt x="-107" y="-108" on="0"/>
        <pt x="25" y="46" on="0"/>
        <pt x="49" y="163" on="1"/>
        <pt x="246" y="1149" on="1"/>
        <pt x="283" y="1333" on="0"/>
        <pt x="519" y="1532" on="0"/>
        <pt x="693" y="1532" on="1"/>
        <pt x="789" y="1532" on="0"/>
        <pt x="932" y="1464" on="0"/>
        <pt x="1009" y="1338" on="0"/>
        <pt x="1009" y="1252" on="1"/>
        <pt x="1009" y="1213" on="0"/>
        <pt x="1000" y="1168" on="1"/>
        <pt x="988" y="1107" on="0"/>
        <pt x="935" y="1007" on="0"/>
        <pt x="875" y="936" on="0"/>
        <pt x="829" y="888" on="1"/>
        <pt x="782" y="840" on="0"/>
        <pt x="735" y="778" on="0"/>
        <pt x="728" y="743" on="1"/>
        <pt x="726" y="729" on="0"/>
        <pt x="726" y="724" on="1"/>
        <pt x="726" y="692" on="0"/>
        <pt x="769" y="645" on="0"/>
        <pt x="816" y="611" on="1"/>
        <pt x="862" y="579" on="0"/>
        <pt x="922" y="523" on="0"/>
        <pt x="964" y="436" on="0"/>
        <pt x="964" y="376" on="1"/>
        <pt x="964" y="337" on="0"/>
        <pt x="956" y="300" on="1"/>
        <pt x="940" y="216" on="0"/>
        <pt x="831" y="70" on="0"/>
        <pt x="653" y="-21" on="0"/>
        <pt x="538" y="-21" on="1"/>
        <pt x="481" y="-21" on="0"/>
        <pt x="387" y="6" on="0"/>
        <pt x="334" y="32" on="1"/>
        <pt x="405" y="200" on="1"/>
        <pt x="465" y="178" on="0"/>
        <pt x="527" y="178" on="1"/>
        <pt x="591" y="178" on="0"/>
        <pt x="686" y="232" on="0"/>
        <pt x="734" y="313" on="0"/>
        <pt x="734" y="352" on="1"/>
        <pt x="734" y="382" on="0"/>
        <pt x="706" y="427" on="0"/>
        <pt x="664" y="460" on="0"/>
        <pt x="628" y="482" on="1"/>
        <pt x="584" y="510" on="0"/>
        <pt x="530" y="554" on="0"/>
        <pt x="492" y="624" on="0"/>
        <pt x="492" y="673" on="1"/>
        <pt x="492" y="699" on="0"/>
        <pt x="498" y="729" on="1"/>
        <pt x="511" y="790" on="0"/>
        <pt x="572" y="876" on="0"/>
        <pt x="627" y="931" on="1"/>
        <pt x="667" y="971" on="0"/>
        <pt x="717" y="1030" on="0"/>
        <pt x="760" y="1113" on="0"/>
        <pt x="770" y="1165" on="1"/>
        <pt x="778" y="1203" on="0"/>
        <pt x="778" y="1230" on="1"/>
        <pt x="778" y="1282" on="0"/>
        <pt x="722" y="1333" on="0"/>
        <pt x="664" y="1333" on="1"/>
        <pt x="593" y="1333" on="0"/>
        <pt x="489" y="1230" on="0"/>
        <pt x="472" y="1143" on="1"/>
        <pt x="275" y="161" on="1"/>
        <pt x="248" y="27" on="0"/>
        <pt x="129" y="-159" on="0"/>
        <pt x="-43" y="-282" on="0"/>
        <pt x="-165" y="-331" on="1"/>
        <pt x="-226" y="-172" on="1"/>
      </contour>
    </TTGlyph>
    <TTGlyph name="germandbls.sc" xMin="2" yMin="-303" xMax="902" yMax="1229">
      <contour>
        <pt x="223" y="-17" on="0"/>
        <pt x="75" y="37" on="0"/>
        <pt x="2" y="86" on="1"/>
        <pt x="61" y="193" on="1"/>
        <pt x="114" y="161" on="0"/>
        <pt x="249" y="119" on="0"/>
        <pt x="314" y="119" on="1"/>
        <pt x="383" y="119" on="0"/>
        <pt x="500" y="166" on="0"/>
        <pt x="576" y="251" on="0"/>
        <pt x="587" y="306" on="1"/>
        <pt x="590" y="324" on="0"/>
        <pt x="590" y="340" on="1"/>
        <pt x="590" y="384" on="0"/>
        <pt x="543" y="460" on="0"/>
        <pt x="473" y="522" on="0"/>
        <pt x="413" y="565" on="1"/>
        <pt x="342" y="617" on="0"/>
        <pt x="255" y="696" on="0"/>
        <pt x="194" y="805" on="0"/>
        <pt x="194" y="873" on="1"/>
        <pt x="194" y="898" on="0"/>
        <pt x="201" y="936" on="1"/>
        <pt x="217" y="1014" on="0"/>
        <pt x="319" y="1148" on="0"/>
        <pt x="485" y="1229" on="0"/>
        <pt x="591" y="1229" on="1"/>
        <pt x="682" y="1229" on="0"/>
        <pt x="841" y="1174" on="0"/>
        <pt x="902" y="1136" on="1"/>
        <pt x="840" y="1031" on="1"/>
        <pt x="719" y="1093" on="0"/>
        <pt x="595" y="1093" on="1"/>
        <pt x="531" y="1093" on="0"/>
        <pt x="427" y="1043" on="0"/>
        <pt x="362" y="965" on="0"/>
        <pt x="354" y="923" on="1"/>
        <pt x="350" y="899" on="0"/>
        <pt x="350" y="888" on="1"/>
        <pt x="350" y="843" on="0"/>
        <pt x="397" y="766" on="0"/>
        <pt x="467" y="705" on="0"/>
        <pt x="527" y="661" on="1"/>
        <pt x="599" y="607" on="0"/>
        <pt x="686" y="529" on="0"/>
        <pt x="747" y="419" on="0"/>
        <pt x="747" y="351" on="1"/>
        <pt x="747" y="327" on="0"/>
        <pt x="740" y="288" on="1"/>
        <pt x="721" y="194" on="0"/>
        <pt x="588" y="44" on="0"/>
        <pt x="476" y="3" on="1"/>
        <pt x="476" y="-49" on="0"/>
        <pt x="468" y="-92" on="1"/>
        <pt x="447" y="-200" on="0"/>
        <pt x="300" y="-303" on="0"/>
        <pt x="195" y="-303" on="1"/>
        <pt x="139" y="-303" on="0"/>
        <pt x="74" y="-285" on="1"/>
        <pt x="98" y="-162" on="1"/>
        <pt x="125" y="-166" on="0"/>
        <pt x="176" y="-166" on="1"/>
        <pt x="244" y="-166" on="0"/>
        <pt x="326" y="-102" on="0"/>
        <pt x="338" y="-42" on="1"/>
        <pt x="349" y="-16" on="1"/>
        <pt x="339" y="-17" on="0"/>
        <pt x="321" y="-17" on="0"/>
        <pt x="312" y="-17" on="1"/>
      </contour>
    </TTGlyph>
    <TTGlyph name="grave" xMin="512" yMin="756" xMax="802" yMax="1362">
      <contour>
        <pt x="512" y="1362" on="1"/>
        <pt x="786" y="1362" on="1"/>
        <pt x="802" y="756" on="1"/>
        <pt x="676" y="756" on="1"/>
      </contour>
    </TTGlyph>
    <TTGlyph name="gravecomb" xMin="439" yMin="1248" xMax="765" yMax="1643">
      <contour>
        <pt x="623" y="1248" on="1"/>
        <pt x="439" y="1643" on="1"/>
        <pt x="699" y="1643" on="1"/>
        <pt x="765" y="1248" on="1"/>
      </contour>
    </TTGlyph>
    <TTGlyph name="gravecomb.case" xMin="484" yMin="1475" xMax="810" yMax="1870">
      <contour>
        <pt x="668" y="1475" on="1"/>
        <pt x="484" y="1870" on="1"/>
        <pt x="744" y="1870" on="1"/>
        <pt x="810" y="1475" on="1"/>
      </contour>
    </TTGlyph>
    <TTGlyph name="greater" xMin="31" yMin="-68" xMax="977" yMax="1432">
      <contour>
        <pt x="800" y="671" on="1"/>
        <pt x="290" y="1231" on="1"/>
        <pt x="331" y="1432" on="1"/>
        <pt x="977" y="717" on="1"/>
        <pt x="963" y="647" on="1"/>
        <pt x="31" y="-68" on="1"/>
        <pt x="66" y="110" on="1"/>
      </contour>
    </TTGlyph>
    <TTGlyph name="h" xMin="16" yMin="0" xMax="995" yMax="1513">
      <contour>
        <pt x="319" y="1513" on="1"/>
        <pt x="546" y="1513" on="1"/>
        <pt x="423" y="899" on="1"/>
        <pt x="454" y="938" on="1"/>
        <pt x="536" y="1012" on="0"/>
        <pt x="682" y="1084" on="0"/>
        <pt x="771" y="1084" on="1"/>
        <pt x="880" y="1084" on="0"/>
        <pt x="995" y="974" on="0"/>
        <pt x="995" y="870" on="1"/>
        <pt x="995" y="830" on="0"/>
        <pt x="986" y="782" on="1"/>
        <pt x="829" y="0" on="1"/>
        <pt x="602" y="0" on="1"/>
        <pt x="753" y="756" on="1"/>
        <pt x="760" y="793" on="0"/>
        <pt x="760" y="811" on="1"/>
        <pt x="760" y="845" on="0"/>
        <pt x="724" y="877" on="0"/>
        <pt x="682" y="877" on="1"/>
        <pt x="634" y="877" on="0"/>
        <pt x="533" y="817" on="0"/>
        <pt x="459" y="750" on="1"/>
        <pt x="382" y="692" on="1"/>
        <pt x="243" y="0" on="1"/>
        <pt x="16" y="0" on="1"/>
      </contour>
    </TTGlyph>
    <TTGlyph name="h.sc" xMin="44" yMin="0" xMax="1043" yMax="1210">
      <contour>
        <pt x="286" y="1210" on="1"/>
        <pt x="438" y="1210" on="1"/>
        <pt x="332" y="681" on="1"/>
        <pt x="785" y="681" on="1"/>
        <pt x="891" y="1210" on="1"/>
        <pt x="1043" y="1210" on="1"/>
        <pt x="801" y="0" on="1"/>
        <pt x="649" y="0" on="1"/>
        <pt x="758" y="545" on="1"/>
        <pt x="305" y="545" on="1"/>
        <pt x="196" y="0" on="1"/>
        <pt x="44" y="0" on="1"/>
      </contour>
    </TTGlyph>
    <TTGlyph name="h.short" xMin="16" yMin="0" xMax="995" yMax="1362">
      <contour>
        <pt x="289" y="1362" on="1"/>
        <pt x="516" y="1362" on="1"/>
        <pt x="423" y="899" on="1"/>
        <pt x="454" y="938" on="1"/>
        <pt x="536" y="1012" on="0"/>
        <pt x="682" y="1084" on="0"/>
        <pt x="771" y="1084" on="1"/>
        <pt x="880" y="1084" on="0"/>
        <pt x="995" y="974" on="0"/>
        <pt x="995" y="870" on="1"/>
        <pt x="995" y="830" on="0"/>
        <pt x="986" y="782" on="1"/>
        <pt x="829" y="0" on="1"/>
        <pt x="602" y="0" on="1"/>
        <pt x="753" y="756" on="1"/>
        <pt x="760" y="793" on="0"/>
        <pt x="760" y="811" on="1"/>
        <pt x="760" y="845" on="0"/>
        <pt x="724" y="877" on="0"/>
        <pt x="682" y="877" on="1"/>
        <pt x="634" y="877" on="0"/>
        <pt x="533" y="817" on="0"/>
        <pt x="459" y="750" on="1"/>
        <pt x="382" y="692" on="1"/>
        <pt x="243" y="0" on="1"/>
        <pt x="16" y="0" on="1"/>
      </contour>
    </TTGlyph>
    <TTGlyph name="hbar" xMin="16" yMin="0" xMax="995" yMax="1513">
      <contour>
        <pt x="254" y="1191" on="1"/>
        <pt x="102" y="1191" on="1"/>
        <pt x="143" y="1396" on="1"/>
        <pt x="295" y="1396" on="1"/>
        <pt x="319" y="1513" on="1"/>
        <pt x="546" y="1513" on="1"/>
        <pt x="522" y="1396" on="1"/>
        <pt x="784" y="1396" on="1"/>
        <pt x="743" y="1191" on="1"/>
        <pt x="481" y="1191" on="1"/>
        <pt x="423" y="899" on="1"/>
        <pt x="454" y="938" on="1"/>
        <pt x="536" y="1012" on="0"/>
        <pt x="682" y="1084" on="0"/>
        <pt x="771" y="1084" on="1"/>
        <pt x="880" y="1084" on="0"/>
        <pt x="995" y="974" on="0"/>
        <pt x="995" y="870" on="1"/>
        <pt x="995" y="830" on="0"/>
        <pt x="986" y="782" on="1"/>
        <pt x="829" y="0" on="1"/>
        <pt x="602" y="0" on="1"/>
        <pt x="753" y="756" on="1"/>
        <pt x="760" y="793" on="0"/>
        <pt x="760" y="811" on="1"/>
        <pt x="760" y="845" on="0"/>
        <pt x="724" y="877" on="0"/>
        <pt x="682" y="877" on="1"/>
        <pt x="634" y="877" on="0"/>
        <pt x="533" y="817" on="0"/>
        <pt x="459" y="750" on="1"/>
        <pt x="382" y="692" on="1"/>
        <pt x="243" y="0" on="1"/>
        <pt x="16" y="0" on="1"/>
      </contour>
    </TTGlyph>
    <TTGlyph name="hbar.sc" xMin="44" yMin="0" xMax="1164" yMax="1210">
      <contour>
        <pt x="229" y="923" on="1"/>
        <pt x="78" y="923" on="1"/>
        <pt x="105" y="1059" on="1"/>
        <pt x="256" y="1059" on="1"/>
        <pt x="286" y="1210" on="1"/>
        <pt x="438" y="1210" on="1"/>
        <pt x="408" y="1059" on="1"/>
        <pt x="861" y="1059" on="1"/>
        <pt x="891" y="1210" on="1"/>
        <pt x="1043" y="1210" on="1"/>
        <pt x="1013" y="1059" on="1"/>
        <pt x="1164" y="1059" on="1"/>
        <pt x="1137" y="923" on="1"/>
        <pt x="986" y="923" on="1"/>
        <pt x="801" y="0" on="1"/>
        <pt x="649" y="0" on="1"/>
        <pt x="758" y="545" on="1"/>
        <pt x="305" y="545" on="1"/>
        <pt x="196" y="0" on="1"/>
        <pt x="44" y="0" on="1"/>
      </contour>
      <contour>
        <pt x="785" y="681" on="1"/>
        <pt x="834" y="923" on="1"/>
        <pt x="381" y="923" on="1"/>
        <pt x="332" y="681" on="1"/>
      </contour>
    </TTGlyph>
    <TTGlyph name="hcircumflex" xMin="-91" yMin="0" xMax="926" yMax="1870">
      <component glyphName="h.short" x="-107" y="0" flags="0x0"/>
      <component glyphName="uni0302.case" x="-107" y="0" flags="0x0"/>
    </TTGlyph>
    <TTGlyph name="hcircumflex.sc" xMin="-63" yMin="0" xMax="936" yMax="1785">
      <component glyphName="h.sc" x="-107" y="0" flags="0x0"/>
      <component glyphName="uni0302" x="-78" y="142" flags="0x4"/>
    </TTGlyph>
    <TTGlyph name="hyphen" xMin="159" yMin="575" xMax="957" yMax="777">
      <contour>
        <pt x="200" y="777" on="1"/>
        <pt x="957" y="777" on="1"/>
        <pt x="916" y="575" on="1"/>
        <pt x="159" y="575" on="1"/>
      </contour>
    </TTGlyph>
    <TTGlyph name="i" xMin="-130" yMin="0" xMax="703" yMax="1539">
      <component glyphName="dotlessi" x="-107" y="0" flags="0x0"/>
      <component glyphName="uni0307" x="-169" y="0" flags="0x0"/>
    </TTGlyph>
    <TTGlyph name="i.sans" xMin="-82" yMin="0" xMax="480" yMax="1539">
      <component glyphName="dotlessi.sans" x="-107" y="0" flags="0x0"/>
      <component glyphName="uni0307" x="-392" y="0" flags="0x0"/>
    </TTGlyph>
    <TTGlyph name="i.sans.prop" xMin="202" yMin="0" xMax="764" yMax="1539">
      <component glyphName="dotlessi.sans.prop" x="-107" y="0" flags="0x0"/>
      <component glyphName="uni0307" x="-108" y="0" flags="0x0"/>
    </TTGlyph>
    <TTGlyph name="i.sc" xMin="44" yMin="0" xMax="891" yMax="1210">
      <contour>
        <pt x="68" y="121" on="1"/>
        <pt x="298" y="136" on="1"/>
        <pt x="486" y="1074" on="1"/>
        <pt x="262" y="1089" on="1"/>
        <pt x="286" y="1210" on="1"/>
        <pt x="891" y="1210" on="1"/>
        <pt x="867" y="1089" on="1"/>
        <pt x="637" y="1074" on="1"/>
        <pt x="449" y="136" on="1"/>
        <pt x="673" y="121" on="1"/>
        <pt x="649" y="0" on="1"/>
        <pt x="44" y="0" on="1"/>
      </contour>
    </TTGlyph>
    <TTGlyph name="iacute" xMin="-130" yMin="0" xMax="895" yMax="1643">
      <component glyphName="dotlessi" x="-107" y="0" flags="0x0"/>
      <component glyphName="acutecomb" x="-169" y="0" flags="0x0"/>
    </TTGlyph>
    <TTGlyph name="iacute.sc" xMin="-63" yMin="0" xMax="911" yMax="1785">
      <component glyphName="i.sc" x="-107" y="0" flags="0x0"/>
      <component glyphName="acutecomb" x="-153" y="142" flags="0x4"/>
    </TTGlyph>
    <TTGlyph name="ibreve" xMin="-130" yMin="0" xMax="862" yMax="1596">
      <component glyphName="dotlessi" x="-107" y="0" flags="0x0"/>
      <component glyphName="uni0306" x="-169" y="0" flags="0x0"/>
    </TTGlyph>
    <TTGlyph name="ibreve.sc" xMin="-63" yMin="0" xMax="878" yMax="1738">
      <component glyphName="i.sc" x="-107" y="0" flags="0x0"/>
      <component glyphName="uni0306" x="-153" y="142" flags="0x4"/>
    </TTGlyph>
    <TTGlyph name="icircumflex" xMin="-130" yMin="0" xMax="819" yMax="1643">
      <component glyphName="dotlessi" x="-107" y="0" flags="0x0"/>
      <component glyphName="uni0302" x="-169" y="0" flags="0x0"/>
    </TTGlyph>
    <TTGlyph name="icircumflex.sc" xMin="-63" yMin="0" xMax="835" yMax="1785">
      <component glyphName="i.sc" x="-107" y="0" flags="0x0"/>
      <component glyphName="uni0302" x="-153" y="142" flags="0x4"/>
    </TTGlyph>
    <TTGlyph name="idieresis" xMin="-130" yMin="0" xMax="848" yMax="1524">
      <component glyphName="dotlessi" x="-107" y="0" flags="0x0"/>
      <component glyphName="uni0308" x="-169" y="0" flags="0x0"/>
    </TTGlyph>
    <TTGlyph name="idieresis.sc" xMin="-63" yMin="0" xMax="864" yMax="1666">
      <component glyphName="i.sc" x="-107" y="0" flags="0x0"/>
      <component glyphName="uni0308" x="-153" y="142" flags="0x4"/>
    </TTGlyph>
    <TTGlyph name="igrave" xMin="-130" yMin="0" xMax="644" yMax="1643">
      <component glyphName="dotlessi" x="-107" y="0" flags="0x0"/>
      <component glyphName="gravecomb" x="-169" y="0" flags="0x0"/>
    </TTGlyph>
    <TTGlyph name="igrave.sc" xMin="-63" yMin="0" xMax="784" yMax="1785">
      <component glyphName="i.sc" x="-107" y="0" flags="0x0"/>
      <component glyphName="gravecomb" x="-153" y="142" flags="0x4"/>
    </TTGlyph>
    <TTGlyph name="ij.sc" xMin="-63" yMin="-23" xMax="1708" yMax="1210">
      <component glyphName="i.sc" x="-107" y="0" flags="0x0"/>
      <component glyphName="j.sc" x="801" y="0" flags="0x0"/>
    </TTGlyph>
    <TTGlyph name="imacron" xMin="-130" yMin="0" xMax="841" yMax="1471">
      <component glyphName="dotlessi" x="-107" y="0" flags="0x0"/>
      <component glyphName="uni0304" x="-169" y="0" flags="0x0"/>
    </TTGlyph>
    <TTGlyph name="imacron.sc" xMin="-63" yMin="0" xMax="857" yMax="1613">
      <component glyphName="i.sc" x="-107" y="0" flags="0x0"/>
      <component glyphName="uni0304" x="-153" y="142" flags="0x4"/>
    </TTGlyph>
    <TTGlyph name="iogonek" xMin="-23" yMin="-303" xMax="810" yMax="1539">
      <contour>
        <pt x="724" y="-2" on="1"/>
        <pt x="658" y="-18" on="0"/>
        <pt x="587" y="-64" on="0"/>
        <pt x="583" y="-87" on="1"/>
        <pt x="582" y="-90" on="0"/>
        <pt x="582" y="-96" on="1"/>
        <pt x="582" y="-104" on="0"/>
        <pt x="598" y="-110" on="0"/>
        <pt x="621" y="-110" on="1"/>
        <pt x="635" y="-110" on="0"/>
        <pt x="672" y="-103" on="0"/>
        <pt x="690" y="-99" on="1"/>
        <pt x="697" y="-284" on="1"/>
        <pt x="621" y="-303" on="0"/>
        <pt x="537" y="-303" on="1"/>
        <pt x="445" y="-303" on="0"/>
        <pt x="334" y="-228" on="0"/>
        <pt x="334" y="-167" on="1"/>
        <pt x="334" y="-151" on="0"/>
        <pt x="336" y="-142" on="1"/>
        <pt x="346" y="-95" on="0"/>
        <pt x="410" y="-25" on="0"/>
        <pt x="472" y="4" on="1"/>
        <pt x="-23" y="0" on="1"/>
        <pt x="11" y="170" on="1"/>
        <pt x="271" y="189" on="1"/>
        <pt x="409" y="881" on="1"/>
        <pt x="172" y="881" on="1"/>
        <pt x="206" y="1051" on="1"/>
        <pt x="576" y="1080" on="1"/>
        <pt x="676" y="1080" on="1"/>
        <pt x="498" y="189" on="1"/>
        <pt x="751" y="170" on="1"/>
      </contour>
      <contour>
        <pt x="542" y="1206" on="0"/>
        <pt x="461" y="1285" on="0"/>
        <pt x="461" y="1347" on="1"/>
        <pt x="461" y="1363" on="0"/>
        <pt x="464" y="1381" on="1"/>
        <pt x="478" y="1452" on="0"/>
        <pt x="586" y="1539" on="0"/>
        <pt x="661" y="1539" on="1"/>
        <pt x="728" y="1539" on="0"/>
        <pt x="810" y="1458" on="0"/>
        <pt x="810" y="1397" on="1"/>
        <pt x="810" y="1380" on="0"/>
        <pt x="807" y="1363" on="1"/>
        <pt x="793" y="1293" on="0"/>
        <pt x="684" y="1206" on="0"/>
        <pt x="609" y="1206" on="1"/>
      </contour>
    </TTGlyph>
    <TTGlyph name="iogonek.sc" xMin="44" yMin="-303" xMax="891" yMax="1210">
      <contour>
        <pt x="68" y="121" on="1"/>
        <pt x="298" y="136" on="1"/>
        <pt x="486" y="1074" on="1"/>
        <pt x="262" y="1089" on="1"/>
        <pt x="286" y="1210" on="1"/>
        <pt x="891" y="1210" on="1"/>
        <pt x="867" y="1089" on="1"/>
        <pt x="637" y="1074" on="1"/>
        <pt x="449" y="136" on="1"/>
        <pt x="673" y="121" on="1"/>
        <pt x="656" y="-2" on="1"/>
        <pt x="590" y="-18" on="0"/>
        <pt x="519" y="-64" on="0"/>
        <pt x="515" y="-87" on="1"/>
        <pt x="514" y="-90" on="0"/>
        <pt x="514" y="-96" on="1"/>
        <pt x="514" y="-104" on="0"/>
        <pt x="530" y="-110" on="0"/>
        <pt x="553" y="-110" on="1"/>
        <pt x="567" y="-110" on="0"/>
        <pt x="604" y="-103" on="0"/>
        <pt x="622" y="-99" on="1"/>
        <pt x="629" y="-284" on="1"/>
        <pt x="553" y="-303" on="0"/>
        <pt x="469" y="-303" on="1"/>
        <pt x="377" y="-303" on="0"/>
        <pt x="266" y="-228" on="0"/>
        <pt x="266" y="-167" on="1"/>
        <pt x="266" y="-151" on="0"/>
        <pt x="268" y="-142" on="1"/>
        <pt x="278" y="-95" on="0"/>
        <pt x="342" y="-25" on="0"/>
        <pt x="404" y="4" on="1"/>
        <pt x="44" y="0" on="1"/>
      </contour>
    </TTGlyph>
    <TTGlyph name="itilde" xMin="-130" yMin="0" xMax="889" yMax="1567">
      <component glyphName="dotlessi" x="-107" y="0" flags="0x0"/>
      <component glyphName="tildecomb" x="-169" y="0" flags="0x0"/>
    </TTGlyph>
    <TTGlyph name="itilde.sc" xMin="-63" yMin="0" xMax="905" yMax="1709">
      <component glyphName="i.sc" x="-107" y="0" flags="0x0"/>
      <component glyphName="tildecomb" x="-153" y="142" flags="0x4"/>
    </TTGlyph>
    <TTGlyph name="j" xMin="-238" yMin="-303" xMax="669" yMax="1539">
      <component glyphName="uni0237" x="-107" y="0" flags="0x0"/>
      <component glyphName="uni0307" x="-203" y="0" flags="0x0"/>
    </TTGlyph>
    <TTGlyph name="j.sans" xMin="-238" yMin="-303" xMax="669" yMax="1539">
      <component glyphName="uni0237" x="-107" y="0" flags="0x0"/>
      <component glyphName="uni0307" x="-203" y="0" flags="0x0"/>
    </TTGlyph>
    <TTGlyph name="j.sans.prop" xMin="-238" yMin="-303" xMax="669" yMax="1539">
      <component glyphName="uni0237" x="-107" y="0" flags="0x0"/>
      <component glyphName="uni0307" x="-203" y="0" flags="0x0"/>
    </TTGlyph>
    <TTGlyph name="j.sc" xMin="-12" yMin="-23" xMax="907" yMax="1210">
      <contour>
        <pt x="196" y="-23" on="0"/>
        <pt x="45" y="88" on="0"/>
        <pt x="-12" y="196" on="1"/>
        <pt x="96" y="265" on="1"/>
        <pt x="142" y="188" on="0"/>
        <pt x="241" y="113" on="0"/>
        <pt x="315" y="113" on="1"/>
        <pt x="416" y="113" on="0"/>
        <pt x="564" y="255" on="0"/>
        <pt x="590" y="383" on="1"/>
        <pt x="728" y="1074" on="1"/>
        <pt x="305" y="1074" on="1"/>
        <pt x="332" y="1210" on="1"/>
        <pt x="907" y="1210" on="1"/>
        <pt x="740" y="375" on="1"/>
        <pt x="715" y="250" on="0"/>
        <pt x="593" y="71" on="0"/>
        <pt x="415" y="-23" on="0"/>
        <pt x="308" y="-23" on="1"/>
      </contour>
    </TTGlyph>
    <TTGlyph name="jcircumflex" xMin="-238" yMin="-303" xMax="785" yMax="1643">
      <component glyphName="uni0237" x="-107" y="0" flags="0x0"/>
      <component glyphName="uni0302" x="-203" y="0" flags="0x0"/>
    </TTGlyph>
    <TTGlyph name="jcircumflex.sc" xMin="-119" yMin="-23" xMax="865" yMax="1785">
      <component glyphName="j.sc" x="-107" y="0" flags="0x0"/>
      <component glyphName="uni0302" x="-123" y="142" flags="0x4"/>
    </TTGlyph>
    <TTGlyph name="k" xMin="15" yMin="0" xMax="1007" yMax="1513">
      <contour>
        <pt x="15" y="0" on="1"/>
        <pt x="318" y="1513" on="1"/>
        <pt x="545" y="1513" on="1"/>
        <pt x="376" y="667" on="1"/>
        <pt x="739" y="1068" on="1"/>
        <pt x="1007" y="1068" on="1"/>
        <pt x="529" y="579" on="1"/>
        <pt x="811" y="0" on="1"/>
        <pt x="510" y="0" on="1"/>
        <pt x="325" y="415" on="1"/>
        <pt x="242" y="0" on="1"/>
      </contour>
    </TTGlyph>
    <TTGlyph name="k.sc" xMin="44" yMin="0" xMax="1029" yMax="1210">
      <contour>
        <pt x="44" y="0" on="1"/>
        <pt x="286" y="1210" on="1"/>
        <pt x="438" y="1210" on="1"/>
        <pt x="328" y="659" on="1"/>
        <pt x="855" y="1210" on="1"/>
        <pt x="1029" y="1210" on="1"/>
        <pt x="459" y="630" on="1"/>
        <pt x="818" y="0" on="1"/>
        <pt x="629" y="0" on="1"/>
        <pt x="312" y="581" on="1"/>
        <pt x="196" y="0" on="1"/>
      </contour>
    </TTGlyph>
    <TTGlyph name="l" xMin="-23" yMin="0" xMax="765" yMax="1524">
      <contour>
        <pt x="11" y="170" on="1"/>
        <pt x="271" y="189" on="1"/>
        <pt x="498" y="1326" on="1"/>
        <pt x="261" y="1326" on="1"/>
        <pt x="295" y="1496" on="1"/>
        <pt x="665" y="1524" on="1"/>
        <pt x="765" y="1524" on="1"/>
        <pt x="498" y="189" on="1"/>
        <pt x="751" y="170" on="1"/>
        <pt x="717" y="0" on="1"/>
        <pt x="-23" y="0" on="1"/>
      </contour>
    </TTGlyph>
    <TTGlyph name="l.sans" xMin="25" yMin="0" xMax="555" yMax="1513">
      <contour>
        <pt x="328" y="1513" on="1"/>
        <pt x="555" y="1513" on="1"/>
        <pt x="252" y="0" on="1"/>
        <pt x="25" y="0" on="1"/>
      </contour>
    </TTGlyph>
    <TTGlyph name="l.sans.prop" xMin="309" yMin="0" xMax="839" yMax="1513">
      <contour>
        <pt x="612" y="1513" on="1"/>
        <pt x="839" y="1513" on="1"/>
        <pt x="536" y="0" on="1"/>
        <pt x="309" y="0" on="1"/>
      </contour>
    </TTGlyph>
    <TTGlyph name="l.sc" xMin="44" yMin="0" xMax="752" yMax="1210">
      <contour>
        <pt x="286" y="1210" on="1"/>
        <pt x="438" y="1210" on="1"/>
        <pt x="223" y="136" on="1"/>
        <pt x="752" y="136" on="1"/>
        <pt x="725" y="0" on="1"/>
        <pt x="44" y="0" on="1"/>
      </contour>
    </TTGlyph>
    <TTGlyph name="lacute" xMin="-130" yMin="0" xMax="970" yMax="2021">
      <component glyphName="l" x="-107" y="0" flags="0x0"/>
      <component glyphName="acutecomb.case" x="-139" y="151" flags="0x4"/>
    </TTGlyph>
    <TTGlyph name="lacute.sc" xMin="-63" yMin="0" xMax="703" yMax="1785">
      <component glyphName="l.sc" x="-107" y="0" flags="0x0"/>
      <component glyphName="acutecomb" x="-361" y="142" flags="0x4"/>
    </TTGlyph>
    <TTGlyph name="lcaron.sc" xMin="-63" yMin="0" xMax="645" yMax="1210">
      <component glyphName="l.sc" x="-107" y="0" flags="0x0"/>
    </TTGlyph>
    <TTGlyph name="less" xMin="141" yMin="-70" xMax="1087" yMax="1430">
      <contour>
        <pt x="318" y="692" on="1"/>
        <pt x="827" y="131" on="1"/>
        <pt x="787" y="-70" on="1"/>
        <pt x="141" y="645" on="1"/>
        <pt x="155" y="715" on="1"/>
        <pt x="1087" y="1430" on="1"/>
        <pt x="1052" y="1252" on="1"/>
      </contour>
    </TTGlyph>
    <TTGlyph name="lslash.sc" xMin="-63" yMin="0" xMax="645" yMax="1210">
      <component glyphName="l.sc" x="-107" y="0" flags="0x0"/>
    </TTGlyph>
    <TTGlyph name="m" xMin="16" yMin="0" xMax="1307" yMax="1084">
      <contour>
        <pt x="230" y="1068" on="1"/>
        <pt x="439" y="1068" on="1"/>
        <pt x="407" y="907" on="1"/>
        <pt x="412" y="924" on="1"/>
        <pt x="483" y="1008" on="0"/>
        <pt x="608" y="1084" on="0"/>
        <pt x="688" y="1084" on="1"/>
        <pt x="776" y="1084" on="0"/>
        <pt x="860" y="984" on="0"/>
        <pt x="856" y="899" on="1"/>
        <pt x="863" y="924" on="1"/>
        <pt x="932" y="1008" on="0"/>
        <pt x="1059" y="1084" on="0"/>
        <pt x="1139" y="1084" on="1"/>
        <pt x="1225" y="1084" on="0"/>
        <pt x="1307" y="992" on="0"/>
        <pt x="1307" y="911" on="1"/>
        <pt x="1307" y="877" on="0"/>
        <pt x="1299" y="832" on="1"/>
        <pt x="1132" y="0" on="1"/>
        <pt x="918" y="0" on="1"/>
        <pt x="1081" y="812" on="1"/>
        <pt x="1085" y="829" on="0"/>
        <pt x="1085" y="845" on="1"/>
        <pt x="1085" y="867" on="0"/>
        <pt x="1064" y="887" on="0"/>
        <pt x="1039" y="887" on="1"/>
        <pt x="1006" y="887" on="0"/>
        <pt x="931" y="822" on="0"/>
        <pt x="875" y="753" on="1"/>
        <pt x="821" y="697" on="1"/>
        <pt x="681" y="0" on="1"/>
        <pt x="467" y="0" on="1"/>
        <pt x="629" y="812" on="1"/>
        <pt x="633" y="829" on="0"/>
        <pt x="633" y="846" on="1"/>
        <pt x="633" y="867" on="0"/>
        <pt x="612" y="887" on="0"/>
        <pt x="588" y="887" on="1"/>
        <pt x="554" y="887" on="0"/>
        <pt x="479" y="822" on="0"/>
        <pt x="424" y="753" on="1"/>
        <pt x="370" y="697" on="1"/>
        <pt x="230" y="0" on="1"/>
        <pt x="16" y="0" on="1"/>
      </contour>
    </TTGlyph>
    <TTGlyph name="m.sc" xMin="29" yMin="0" xMax="1266" yMax="1210">
      <contour>
        <pt x="620" y="199" on="1"/>
        <pt x="1052" y="1210" on="1"/>
        <pt x="1266" y="1210" on="1"/>
        <pt x="1118" y="0" on="1"/>
        <pt x="975" y="0" on="1"/>
        <pt x="1096" y="995" on="1"/>
        <pt x="670" y="0" on="1"/>
        <pt x="477" y="0" on="1"/>
        <pt x="449" y="994" on="1"/>
        <pt x="173" y="0" on="1"/>
        <pt x="29" y="0" on="1"/>
        <pt x="366" y="1210" on="1"/>
        <pt x="591" y="1210" on="1"/>
      </contour>
    </TTGlyph>
    <TTGlyph name="macron" xMin="286" yMin="1320" xMax="903" yMax="1471">
      <component glyphName="uni0304" x="-107" y="0" flags="0x0"/>
    </TTGlyph>
    <TTGlyph name="minus" xMin="47" yMin="579" xMax="1071" yMax="783">
      <contour>
        <pt x="88" y="783" on="1"/>
        <pt x="1071" y="783" on="1"/>
        <pt x="1030" y="579" on="1"/>
        <pt x="47" y="579" on="1"/>
      </contour>
    </TTGlyph>
    <TTGlyph name="multiply" xMin="44" yMin="226" xMax="1074" yMax="1136">
      <contour>
        <pt x="44" y="379" on="1"/>
        <pt x="406" y="681" on="1"/>
        <pt x="165" y="982" on="1"/>
        <pt x="348" y="1136" on="1"/>
        <pt x="590" y="834" on="1"/>
        <pt x="951" y="1136" on="1"/>
        <pt x="1074" y="982" on="1"/>
        <pt x="712" y="681" on="1"/>
        <pt x="953" y="379" on="1"/>
        <pt x="769" y="226" on="1"/>
        <pt x="528" y="528" on="1"/>
        <pt x="166" y="226" on="1"/>
      </contour>
    </TTGlyph>
    <TTGlyph name="n" xMin="16" yMin="0" xMax="995" yMax="1084">
      <contour>
        <pt x="230" y="1068" on="1"/>
        <pt x="453" y="1068" on="1"/>
        <pt x="418" y="894" on="1"/>
        <pt x="454" y="938" on="1"/>
        <pt x="535" y="1011" on="0"/>
        <pt x="682" y="1084" on="0"/>
        <pt x="771" y="1084" on="1"/>
        <pt x="880" y="1084" on="0"/>
        <pt x="995" y="974" on="0"/>
        <pt x="995" y="870" on="1"/>
        <pt x="995" y="830" on="0"/>
        <pt x="986" y="782" on="1"/>
        <pt x="829" y="0" on="1"/>
        <pt x="602" y="0" on="1"/>
        <pt x="753" y="756" on="1"/>
        <pt x="760" y="793" on="0"/>
        <pt x="760" y="811" on="1"/>
        <pt x="760" y="845" on="0"/>
        <pt x="724" y="877" on="0"/>
        <pt x="682" y="877" on="1"/>
        <pt x="634" y="877" on="0"/>
        <pt x="533" y="817" on="0"/>
        <pt x="459" y="750" on="1"/>
        <pt x="382" y="692" on="1"/>
        <pt x="243" y="0" on="1"/>
        <pt x="16" y="0" on="1"/>
      </contour>
    </TTGlyph>
    <TTGlyph name="n.sc" xMin="44" yMin="0" xMax="1043" yMax="1210">
      <contour>
        <pt x="286" y="1210" on="1"/>
        <pt x="447" y="1210" on="1"/>
        <pt x="730" y="342" on="1"/>
        <pt x="903" y="1210" on="1"/>
        <pt x="1043" y="1210" on="1"/>
        <pt x="801" y="0" on="1"/>
        <pt x="668" y="0" on="1"/>
        <pt x="370" y="927" on="1"/>
        <pt x="184" y="0" on="1"/>
        <pt x="44" y="0" on="1"/>
      </contour>
    </TTGlyph>
    <TTGlyph name="nacute" xMin="-91" yMin="0" xMax="957" yMax="1643">
      <component glyphName="n" x="-107" y="0" flags="0x0"/>
      <component glyphName="acutecomb" x="-107" y="0" flags="0x0"/>
    </TTGlyph>
    <TTGlyph name="nacute.sc" xMin="-63" yMin="0" xMax="986" yMax="1785">
      <component glyphName="n.sc" x="-107" y="0" flags="0x0"/>
      <component glyphName="acutecomb" x="-78" y="142" flags="0x4"/>
    </TTGlyph>
    <TTGlyph name="ncaron" xMin="-91" yMin="0" xMax="960" yMax="1643">
      <component glyphName="n" x="-107" y="0" flags="0x0"/>
      <component glyphName="uni030C" x="-107" y="0" flags="0x0"/>
    </TTGlyph>
    <TTGlyph name="ncaron.sc" xMin="-63" yMin="0" xMax="989" yMax="1785">
      <component glyphName="n.sc" x="-107" y="0" flags="0x0"/>
      <component glyphName="uni030C" x="-78" y="142" flags="0x4"/>
    </TTGlyph>
    <TTGlyph name="nine" xMin="82" yMin="-316" xMax="963" yMax="1227">
      <contour>
        <pt x="257" y="-143" on="0"/>
        <pt x="504" y="1" on="0"/>
        <pt x="682" y="243" on="0"/>
        <pt x="740" y="429" on="1"/>
        <pt x="666" y="370" on="0"/>
        <pt x="514" y="306" on="0"/>
        <pt x="427" y="306" on="1"/>
        <pt x="348" y="306" on="0"/>
        <pt x="214" y="378" on="0"/>
        <pt x="131" y="526" on="0"/>
        <pt x="131" y="635" on="1"/>
        <pt x="131" y="700" on="0"/>
        <pt x="145" y="767" on="1"/>
        <pt x="171" y="901" on="0"/>
        <pt x="312" y="1110" on="0"/>
        <pt x="517" y="1227" on="0"/>
        <pt x="636" y="1227" on="1"/>
        <pt x="795" y="1227" on="0"/>
        <pt x="963" y="1018" on="0"/>
        <pt x="963" y="818" on="1"/>
        <pt x="963" y="702" on="0"/>
        <pt x="935" y="562" on="1"/>
        <pt x="883" y="302" on="0"/>
        <pt x="672" y="-54" on="0"/>
        <pt x="338" y="-270" on="0"/>
        <pt x="99" y="-316" on="1"/>
        <pt x="82" y="-189" on="1"/>
      </contour>
      <contour>
        <pt x="295" y="685" on="0"/>
        <pt x="295" y="636" on="1"/>
        <pt x="295" y="539" on="0"/>
        <pt x="387" y="443" on="0"/>
        <pt x="471" y="443" on="1"/>
        <pt x="599" y="443" on="0"/>
        <pt x="769" y="594" on="1"/>
        <pt x="778" y="612" on="1"/>
        <pt x="804" y="739" on="0"/>
        <pt x="804" y="839" on="1"/>
        <pt x="804" y="1091" on="0"/>
        <pt x="624" y="1091" on="1"/>
        <pt x="550" y="1091" on="0"/>
        <pt x="420" y="1002" on="0"/>
        <pt x="327" y="845" on="0"/>
        <pt x="307" y="746" on="1"/>
      </contour>
    </TTGlyph>
    <TTGlyph name="ntilde" xMin="-91" yMin="0" xMax="951" yMax="1567">
      <component glyphName="n" x="-107" y="0" flags="0x0"/>
      <component glyphName="tildecomb" x="-107" y="0" flags="0x0"/>
    </TTGlyph>
    <TTGlyph name="ntilde.sc" xMin="-63" yMin="0" xMax="980" yMax="1709">
      <component glyphName="n.sc" x="-107" y="0" flags="0x0"/>
      <component glyphName="tildecomb" x="-78" y="142" flags="0x4"/>
    </TTGlyph>
    <TTGlyph name="numbersign" xMin="47" yMin="-38" xMax="1075" yMax="1399">
      <contour>
        <pt x="240" y="390" on="1"/>
        <pt x="47" y="390" on="1"/>
        <pt x="74" y="522" on="1"/>
        <pt x="267" y="522" on="1"/>
        <pt x="335" y="862" on="1"/>
        <pt x="142" y="862" on="1"/>
        <pt x="168" y="995" on="1"/>
        <pt x="361" y="995" on="1"/>
        <pt x="442" y="1399" on="1"/>
        <pt x="585" y="1399" on="1"/>
        <pt x="504" y="995" on="1"/>
        <pt x="739" y="995" on="1"/>
        <pt x="820" y="1399" on="1"/>
        <pt x="963" y="1399" on="1"/>
        <pt x="882" y="995" on="1"/>
        <pt x="1075" y="995" on="1"/>
        <pt x="1049" y="862" on="1"/>
        <pt x="856" y="862" on="1"/>
        <pt x="788" y="522" on="1"/>
        <pt x="981" y="522" on="1"/>
        <pt x="954" y="390" on="1"/>
        <pt x="761" y="390" on="1"/>
        <pt x="676" y="-38" on="1"/>
        <pt x="533" y="-38" on="1"/>
        <pt x="618" y="390" on="1"/>
        <pt x="383" y="390" on="1"/>
        <pt x="298" y="-38" on="1"/>
        <pt x="155" y="-38" on="1"/>
      </contour>
      <contour>
        <pt x="645" y="522" on="1"/>
        <pt x="713" y="862" on="1"/>
        <pt x="478" y="862" on="1"/>
        <pt x="410" y="522" on="1"/>
      </contour>
    </TTGlyph>
    <TTGlyph name="o" xMin="58" yMin="-19" xMax="1003" yMax="1087">
      <contour>
        <pt x="309" y="-19" on="0"/>
        <pt x="143" y="78" on="0"/>
        <pt x="58" y="257" on="0"/>
        <pt x="58" y="379" on="1"/>
        <pt x="58" y="461" on="0"/>
        <pt x="75" y="543" on="1"/>
        <pt x="108" y="704" on="0"/>
        <pt x="262" y="950" on="0"/>
        <pt x="491" y="1087" on="0"/>
        <pt x="632" y="1087" on="1"/>
        <pt x="818" y="1087" on="0"/>
        <pt x="1003" y="875" on="0"/>
        <pt x="1003" y="696" on="1"/>
        <pt x="1003" y="620" on="0"/>
        <pt x="984" y="525" on="1"/>
        <pt x="952" y="365" on="0"/>
        <pt x="789" y="118" on="0"/>
        <pt x="557" y="-19" on="0"/>
        <pt x="426" y="-19" on="1"/>
      </contour>
      <contour>
        <pt x="522" y="178" on="0"/>
        <pt x="645" y="264" on="0"/>
        <pt x="734" y="429" on="0"/>
        <pt x="756" y="543" on="1"/>
        <pt x="774" y="633" on="0"/>
        <pt x="774" y="699" on="1"/>
        <pt x="774" y="796" on="0"/>
        <pt x="693" y="891" on="0"/>
        <pt x="608" y="891" on="1"/>
        <pt x="496" y="891" on="0"/>
        <pt x="340" y="703" on="0"/>
        <pt x="303" y="525" on="1"/>
        <pt x="287" y="439" on="0"/>
        <pt x="287" y="382" on="1"/>
        <pt x="287" y="280" on="0"/>
        <pt x="369" y="178" on="0"/>
        <pt x="450" y="178" on="1"/>
      </contour>
    </TTGlyph>
    <TTGlyph name="o.sc" xMin="90" yMin="-19" xMax="998" yMax="1229">
      <contour>
        <pt x="261" y="-19" on="0"/>
        <pt x="90" y="173" on="0"/>
        <pt x="90" y="366" on="1"/>
        <pt x="90" y="477" on="0"/>
        <pt x="118" y="614" on="1"/>
        <pt x="179" y="921" on="0"/>
        <pt x="452" y="1229" on="0"/>
        <pt x="660" y="1229" on="1"/>
        <pt x="998" y="1229" on="0"/>
        <pt x="998" y="851" on="1"/>
        <pt x="998" y="741" on="0"/>
        <pt x="969" y="596" on="1"/>
        <pt x="928" y="392" on="0"/>
        <pt x="771" y="117" on="0"/>
        <pt x="556" y="-19" on="0"/>
        <pt x="426" y="-19" on="1"/>
      </contour>
      <contour>
        <pt x="572" y="113" on="0"/>
        <pt x="761" y="351" on="0"/>
        <pt x="814" y="614" on="1"/>
        <pt x="846" y="774" on="0"/>
        <pt x="846" y="871" on="1"/>
        <pt x="846" y="992" on="0"/>
        <pt x="751" y="1097" on="0"/>
        <pt x="649" y="1097" on="1"/>
        <pt x="554" y="1097" on="0"/>
        <pt x="414" y="998" on="0"/>
        <pt x="310" y="778" on="0"/>
        <pt x="273" y="596" on="1"/>
        <pt x="244" y="454" on="0"/>
        <pt x="244" y="353" on="1"/>
        <pt x="244" y="225" on="0"/>
        <pt x="341" y="113" on="0"/>
        <pt x="437" y="113" on="1"/>
      </contour>
    </TTGlyph>
    <TTGlyph name="oacute" xMin="-49" yMin="-19" xMax="957" yMax="1643">
      <component glyphName="o" x="-107" y="0" flags="0x0"/>
      <component glyphName="acutecomb" x="-107" y="0" flags="0x0"/>
    </TTGlyph>
    <TTGlyph name="oacute.sc" xMin="-17" yMin="-19" xMax="986" yMax="1785">
      <component glyphName="o.sc" x="-107" y="0" flags="0x0"/>
      <component glyphName="acutecomb" x="-78" y="142" flags="0x4"/>
    </TTGlyph>
    <TTGlyph name="obreve" xMin="-49" yMin="-19" xMax="924" yMax="1596">
      <component glyphName="o" x="-107" y="0" flags="0x0"/>
      <component glyphName="uni0306" x="-107" y="0" flags="0x0"/>
    </TTGlyph>
    <TTGlyph name="obreve.sc" xMin="-17" yMin="-19" xMax="953" yMax="1738">
      <component glyphName="o.sc" x="-107" y="0" flags="0x0"/>
      <component glyphName="uni0306" x="-78" y="142" flags="0x4"/>
    </TTGlyph>
    <TTGlyph name="ocircumflex" xMin="-49" yMin="-19" xMax="896" yMax="1643">
      <component glyphName="o" x="-107" y="0" flags="0x0"/>
      <component glyphName="uni0302" x="-107" y="0" flags="0x0"/>
    </TTGlyph>
    <TTGlyph name="ocircumflex.sc" xMin="-17" yMin="-19" xMax="910" yMax="1785">
      <component glyphName="o.sc" x="-107" y="0" flags="0x0"/>
      <component glyphName="uni0302" x="-78" y="142" flags="0x4"/>
    </TTGlyph>
    <TTGlyph name="odieresis" xMin="-49" yMin="-19" xMax="910" yMax="1524">
      <component glyphName="o" x="-107" y="0" flags="0x0"/>
      <component glyphName="uni0308" x="-107" y="0" flags="0x0"/>
    </TTGlyph>
    <TTGlyph name="odieresis.sc" xMin="-17" yMin="-19" xMax="939" yMax="1666">
      <component glyphName="o.sc" x="-107" y="0" flags="0x0"/>
      <component glyphName="uni0308" x="-78" y="142" flags="0x4"/>
    </TTGlyph>
    <TTGlyph name="ogonek" xMin="65" yMin="-303" xMax="455" yMax="66">
      <component glyphName="uni0328" x="-107" y="0" flags="0x0"/>
    </TTGlyph>
    <TTGlyph name="ograve" xMin="-49" yMin="-19" xMax="896" yMax="1643">
      <component glyphName="o" x="-107" y="0" flags="0x0"/>
      <component glyphName="gravecomb" x="-107" y="0" flags="0x0"/>
    </TTGlyph>
    <TTGlyph name="ograve.sc" xMin="-17" yMin="-19" xMax="891" yMax="1785">
      <component glyphName="o.sc" x="-107" y="0" flags="0x0"/>
      <component glyphName="gravecomb" x="-78" y="142" flags="0x4"/>
    </TTGlyph>
    <TTGlyph name="ohungarumlaut.sc" xMin="-17" yMin="-19" xMax="891" yMax="1229">
      <component glyphName="o.sc" x="-107" y="0" flags="0x0"/>
    </TTGlyph>
    <TTGlyph name="omacron" xMin="-49" yMin="-19" xMax="903" yMax="1471">
      <component glyphName="o" x="-107" y="0" flags="0x0"/>
      <component glyphName="uni0304" x="-107" y="0" flags="0x0"/>
    </TTGlyph>
    <TTGlyph name="omacron.sc" xMin="-17" yMin="-19" xMax="932" yMax="1613">
      <component glyphName="o.sc" x="-107" y="0" flags="0x0"/>
      <component glyphName="uni0304" x="-78" y="142" flags="0x4"/>
    </TTGlyph>
    <TTGlyph name="one" xMin="41" yMin="0" xMax="883" yMax="1233">
      <contour>
        <pt x="75" y="169" on="1"/>
        <pt x="372" y="199" on="1"/>
        <pt x="531" y="992" on="1"/>
        <pt x="260" y="920" on="1"/>
        <pt x="258" y="1113" on="1"/>
        <pt x="670" y="1233" on="1"/>
        <pt x="806" y="1233" on="1"/>
        <pt x="599" y="199" on="1"/>
        <pt x="883" y="169" on="1"/>
        <pt x="849" y="0" on="1"/>
        <pt x="41" y="0" on="1"/>
      </contour>
    </TTGlyph>
    <TTGlyph name="oslash.sc" xMin="-17" yMin="-19" xMax="891" yMax="1229">
      <component glyphName="o.sc" x="-107" y="0" flags="0x0"/>
    </TTGlyph>
    <TTGlyph name="otilde" xMin="-49" yMin="-19" xMax="951" yMax="1567">
      <component glyphName="o" x="-107" y="0" flags="0x0"/>
      <component glyphName="tildecomb" x="-107" y="0" flags="0x0"/>
    </TTGlyph>
    <TTGlyph name="otilde.sc" xMin="-17" yMin="-19" xMax="980" yMax="1709">
      <component glyphName="o.sc" x="-107" y="0" flags="0x0"/>
      <component glyphName="tildecomb" x="-78" y="142" flags="0x4"/>
    </TTGlyph>
    <TTGlyph name="p" xMin="-44" yMin="-303" xMax="1018" yMax="1084">
      <contour>
        <pt x="230" y="1068" on="1"/>
        <pt x="453" y="1068" on="1"/>
        <pt x="418" y="895" on="1"/>
        <pt x="454" y="941" on="1"/>
        <pt x="526" y="1011" on="0"/>
        <pt x="676" y="1084" on="0"/>
        <pt x="760" y="1084" on="1"/>
        <pt x="884" y="1084" on="0"/>
        <pt x="1018" y="922" on="0"/>
        <pt x="1018" y="772" on="1"/>
        <pt x="1018" y="691" on="0"/>
        <pt x="999" y="599" on="1"/>
        <pt x="959" y="398" on="0"/>
        <pt x="785" y="119" on="0"/>
        <pt x="552" y="-21" on="0"/>
        <pt x="423" y="-21" on="1"/>
        <pt x="381" y="-21" on="0"/>
        <pt x="307" y="-12" on="0"/>
        <pt x="250" y="-3" on="1"/>
        <pt x="183" y="-303" on="1"/>
        <pt x="-44" y="-303" on="1"/>
      </contour>
      <contour>
        <pt x="525" y="172" on="0"/>
        <pt x="720" y="391" on="0"/>
        <pt x="761" y="599" on="1"/>
        <pt x="780" y="690" on="0"/>
        <pt x="780" y="750" on="1"/>
        <pt x="780" y="819" on="0"/>
        <pt x="730" y="879" on="0"/>
        <pt x="679" y="879" on="1"/>
        <pt x="630" y="879" on="0"/>
        <pt x="527" y="816" on="0"/>
        <pt x="457" y="750" on="1"/>
        <pt x="381" y="687" on="1"/>
        <pt x="273" y="186" on="1"/>
        <pt x="327" y="173" on="0"/>
        <pt x="392" y="171" on="1"/>
      </contour>
    </TTGlyph>
    <TTGlyph name="p.sc" xMin="44" yMin="0" xMax="964" yMax="1210">
      <contour>
        <pt x="286" y="1210" on="1"/>
        <pt x="585" y="1210" on="1"/>
        <pt x="772" y="1210" on="0"/>
        <pt x="964" y="1045" on="0"/>
        <pt x="964" y="899" on="1"/>
        <pt x="964" y="854" on="0"/>
        <pt x="953" y="797" on="1"/>
        <pt x="915" y="609" on="0"/>
        <pt x="644" y="393" on="0"/>
        <pt x="417" y="393" on="1"/>
        <pt x="353" y="393" on="0"/>
        <pt x="284" y="402" on="1"/>
        <pt x="196" y="0" on="1"/>
        <pt x="44" y="0" on="1"/>
      </contour>
      <contour>
        <pt x="360" y="529" on="0"/>
        <pt x="420" y="529" on="1"/>
        <pt x="592" y="529" on="0"/>
        <pt x="768" y="668" on="0"/>
        <pt x="796" y="807" on="1"/>
        <pt x="806" y="860" on="0"/>
        <pt x="806" y="895" on="1"/>
        <pt x="806" y="984" on="0"/>
        <pt x="697" y="1074" on="0"/>
        <pt x="577" y="1074" on="1"/>
        <pt x="411" y="1074" on="1"/>
        <pt x="295" y="534" on="1"/>
      </contour>
    </TTGlyph>
    <TTGlyph name="parenleft" xMin="279" yMin="-289" xMax="1094" yMax="1501">
      <contour>
        <pt x="388" y="990" on="0"/>
        <pt x="755" y="1457" on="0"/>
        <pt x="1086" y="1501" on="1"/>
        <pt x="1094" y="1371" on="1"/>
        <pt x="907" y="1338" on="0"/>
        <pt x="661" y="1133" on="0"/>
        <pt x="517" y="818" on="0"/>
        <pt x="472" y="596" on="1"/>
        <pt x="432" y="391" on="0"/>
        <pt x="432" y="264" on="1"/>
        <pt x="432" y="83" on="0"/>
        <pt x="588" y="-130" on="0"/>
        <pt x="772" y="-165" on="1"/>
        <pt x="743" y="-289" on="1"/>
        <pt x="501" y="-255" on="0"/>
        <pt x="279" y="56" on="0"/>
        <pt x="279" y="304" on="1"/>
        <pt x="279" y="446" on="0"/>
        <pt x="313" y="614" on="1"/>
      </contour>
    </TTGlyph>
    <TTGlyph name="parenright" xMin="150" yMin="-291" xMax="965" yMax="1499">
      <contour>
        <pt x="856" y="221" on="0"/>
        <pt x="489" y="-247" on="0"/>
        <pt x="159" y="-291" on="1"/>
        <pt x="150" y="-161" on="1"/>
        <pt x="338" y="-128" on="0"/>
        <pt x="584" y="77" on="0"/>
        <pt x="728" y="392" on="0"/>
        <pt x="772" y="614" on="1"/>
        <pt x="812" y="811" on="0"/>
        <pt x="812" y="946" on="1"/>
        <pt x="812" y="1127" on="0"/>
        <pt x="656" y="1340" on="0"/>
        <pt x="473" y="1375" on="1"/>
        <pt x="501" y="1499" on="1"/>
        <pt x="743" y="1465" on="0"/>
        <pt x="965" y="1154" on="0"/>
        <pt x="965" y="907" on="1"/>
        <pt x="965" y="764" on="0"/>
        <pt x="931" y="596" on="1"/>
      </contour>
    </TTGlyph>
    <TTGlyph name="percent" xMin="-58" yMin="-19" xMax="1175" yMax="1380">
      <contour>
        <pt x="1016" y="1210" on="1"/>
        <pt x="1175" y="1210" on="1"/>
        <pt x="101" y="151" on="1"/>
        <pt x="-58" y="151" on="1"/>
      </contour>
      <contour>
        <pt x="605" y="-19" on="0"/>
        <pt x="509" y="96" on="0"/>
        <pt x="509" y="197" on="1"/>
        <pt x="509" y="245" on="0"/>
        <pt x="519" y="295" on="1"/>
        <pt x="547" y="438" on="0"/>
        <pt x="690" y="588" on="0"/>
        <pt x="797" y="588" on="1"/>
        <pt x="883" y="588" on="0"/>
        <pt x="978" y="476" on="0"/>
        <pt x="978" y="376" on="1"/>
        <pt x="978" y="328" on="0"/>
        <pt x="968" y="277" on="1"/>
        <pt x="939" y="133" on="0"/>
        <pt x="797" y="-19" on="0"/>
        <pt x="691" y="-19" on="1"/>
      </contour>
      <contour>
        <pt x="745" y="104" on="0"/>
        <pt x="820" y="198" on="0"/>
        <pt x="839" y="295" on="1"/>
        <pt x="851" y="354" on="0"/>
        <pt x="851" y="389" on="1"/>
        <pt x="851" y="432" on="0"/>
        <pt x="819" y="467" on="0"/>
        <pt x="786" y="467" on="1"/>
        <pt x="739" y="467" on="0"/>
        <pt x="665" y="373" on="0"/>
        <pt x="646" y="277" on="1"/>
        <pt x="634" y="217" on="0"/>
        <pt x="634" y="181" on="1"/>
        <pt x="634" y="139" on="0"/>
        <pt x="665" y="104" on="0"/>
        <pt x="698" y="104" on="1"/>
      </contour>
      <contour>
        <pt x="234" y="773" on="0"/>
        <pt x="138" y="887" on="0"/>
        <pt x="138" y="988" on="1"/>
        <pt x="138" y="1030" on="0"/>
        <pt x="149" y="1087" on="1"/>
        <pt x="177" y="1230" on="0"/>
        <pt x="319" y="1380" on="0"/>
        <pt x="426" y="1380" on="1"/>
        <pt x="512" y="1380" on="0"/>
        <pt x="607" y="1268" on="0"/>
        <pt x="607" y="1168" on="1"/>
        <pt x="607" y="1120" on="0"/>
        <pt x="597" y="1069" on="1"/>
        <pt x="568" y="925" on="0"/>
        <pt x="427" y="773" on="0"/>
        <pt x="321" y="773" on="1"/>
      </contour>
      <contour>
        <pt x="375" y="896" on="0"/>
        <pt x="450" y="990" on="0"/>
        <pt x="469" y="1087" on="1"/>
        <pt x="480" y="1141" on="0"/>
        <pt x="480" y="1181" on="1"/>
        <pt x="480" y="1224" on="0"/>
        <pt x="449" y="1259" on="0"/>
        <pt x="416" y="1259" on="1"/>
        <pt x="369" y="1259" on="0"/>
        <pt x="294" y="1165" on="0"/>
        <pt x="275" y="1069" on="1"/>
        <pt x="263" y="1011" on="0"/>
        <pt x="263" y="975" on="1"/>
        <pt x="263" y="932" on="0"/>
        <pt x="295" y="896" on="0"/>
        <pt x="328" y="896" on="1"/>
      </contour>
    </TTGlyph>
    <TTGlyph name="period" xMin="35" yMin="-19" xMax="426" yMax="369">
      <contour>
        <pt x="151" y="-19" on="0"/>
        <pt x="76" y="25" on="0"/>
        <pt x="35" y="99" on="0"/>
        <pt x="35" y="144" on="1"/>
        <pt x="35" y="165" on="0"/>
        <pt x="39" y="182" on="1"/>
        <pt x="50" y="235" on="0"/>
        <pt x="115" y="320" on="0"/>
        <pt x="208" y="369" on="0"/>
        <pt x="261" y="369" on="1"/>
        <pt x="309" y="369" on="0"/>
        <pt x="384" y="325" on="0"/>
        <pt x="426" y="250" on="0"/>
        <pt x="426" y="204" on="1"/>
        <pt x="426" y="183" on="0"/>
        <pt x="422" y="164" on="1"/>
        <pt x="412" y="112" on="0"/>
        <pt x="347" y="29" on="0"/>
        <pt x="252" y="-19" on="0"/>
        <pt x="199" y="-19" on="1"/>
      </contour>
    </TTGlyph>
    <TTGlyph name="periodcentered" xMin="396" yMin="517" xMax="720" yMax="838">
      <contour>
        <pt x="474" y="518" on="0"/>
        <pt x="396" y="596" on="0"/>
        <pt x="396" y="654" on="1"/>
        <pt x="396" y="669" on="0"/>
        <pt x="399" y="685" on="1"/>
        <pt x="413" y="753" on="0"/>
        <pt x="515" y="838" on="0"/>
        <pt x="582" y="837" on="1"/>
        <pt x="643" y="838" on="0"/>
        <pt x="720" y="758" on="0"/>
        <pt x="720" y="699" on="1"/>
        <pt x="720" y="684" on="0"/>
        <pt x="717" y="667" on="1"/>
        <pt x="704" y="600" on="0"/>
        <pt x="602" y="518" on="0"/>
        <pt x="533" y="517" on="1"/>
      </contour>
    </TTGlyph>
    <TTGlyph name="pi" xMin="16" yMin="0" xMax="1043" yMax="1068">
      <contour>
        <pt x="829" y="0" on="1"/>
        <pt x="602" y="0" on="1"/>
        <pt x="775" y="864" on="1"/>
        <pt x="416" y="864" on="1"/>
        <pt x="243" y="0" on="1"/>
        <pt x="16" y="0" on="1"/>
        <pt x="230" y="1068" on="1"/>
        <pt x="1043" y="1068" on="1"/>
      </contour>
    </TTGlyph>
    <TTGlyph name="plus" xMin="47" yMin="189" xMax="1071" yMax="1172">
      <contour>
        <pt x="425" y="579" on="1"/>
        <pt x="47" y="579" on="1"/>
        <pt x="88" y="783" on="1"/>
        <pt x="466" y="783" on="1"/>
        <pt x="544" y="1172" on="1"/>
        <pt x="771" y="1172" on="1"/>
        <pt x="693" y="783" on="1"/>
        <pt x="1071" y="783" on="1"/>
        <pt x="1030" y="579" on="1"/>
        <pt x="652" y="579" on="1"/>
        <pt x="574" y="189" on="1"/>
        <pt x="347" y="189" on="1"/>
      </contour>
    </TTGlyph>
    <TTGlyph name="plusminus" xMin="-182" yMin="-34" xMax="994" yMax="1323">
      <component glyphName="minus" x="-229" y="-613" flags="0x4"/>
      <component glyphName="plus" x="-77" y="151" flags="0x4"/>
    </TTGlyph>
    <TTGlyph name="q" xMin="42" yMin="-303" xMax="1028" yMax="1089">
      <contour>
        <pt x="636" y="169" on="1"/>
        <pt x="605" y="127" on="1"/>
        <pt x="533" y="56" on="0"/>
        <pt x="384" y="-15" on="0"/>
        <pt x="299" y="-15" on="1"/>
        <pt x="175" y="-15" on="0"/>
        <pt x="42" y="148" on="0"/>
        <pt x="42" y="299" on="1"/>
        <pt x="42" y="376" on="0"/>
        <pt x="60" y="469" on="1"/>
        <pt x="102" y="676" on="0"/>
        <pt x="284" y="954" on="0"/>
        <pt x="535" y="1089" on="0"/>
        <pt x="683" y="1089" on="1"/>
        <pt x="856" y="1089" on="0"/>
        <pt x="1028" y="1031" on="1"/>
        <pt x="769" y="-303" on="1"/>
        <pt x="542" y="-303" on="1"/>
      </contour>
      <contour>
        <pt x="429" y="189" on="0"/>
        <pt x="532" y="251" on="0"/>
        <pt x="602" y="318" on="1"/>
        <pt x="678" y="381" on="1"/>
        <pt x="787" y="886" on="1"/>
        <pt x="749" y="897" on="0"/>
        <pt x="668" y="897" on="1"/>
        <pt x="534" y="897" on="0"/>
        <pt x="341" y="679" on="0"/>
        <pt x="298" y="469" on="1"/>
        <pt x="280" y="378" on="0"/>
        <pt x="280" y="319" on="1"/>
        <pt x="280" y="250" on="0"/>
        <pt x="330" y="189" on="0"/>
        <pt x="380" y="189" on="1"/>
      </contour>
    </TTGlyph>
    <TTGlyph name="q.sc" xMin="90" yMin="-310" xMax="998" yMax="1229">
      <contour>
        <pt x="473" y="-310" on="0"/>
        <pt x="349" y="-180" on="0"/>
        <pt x="349" y="-53" on="1"/>
        <pt x="349" y="-40" on="0"/>
        <pt x="351" y="-12" on="1"/>
        <pt x="223" y="7" on="0"/>
        <pt x="90" y="196" on="0"/>
        <pt x="90" y="366" on="1"/>
        <pt x="90" y="477" on="0"/>
        <pt x="118" y="614" on="1"/>
        <pt x="179" y="921" on="0"/>
        <pt x="452" y="1229" on="0"/>
        <pt x="660" y="1229" on="1"/>
        <pt x="998" y="1229" on="0"/>
        <pt x="998" y="851" on="1"/>
        <pt x="998" y="741" on="0"/>
        <pt x="969" y="596" on="1"/>
        <pt x="914" y="318" on="0"/>
        <pt x="664" y="9" on="0"/>
        <pt x="484" y="-23" on="1"/>
        <pt x="483" y="-31" on="0"/>
        <pt x="483" y="-47" on="1"/>
        <pt x="483" y="-116" on="0"/>
        <pt x="551" y="-174" on="0"/>
        <pt x="626" y="-174" on="1"/>
        <pt x="663" y="-174" on="0"/>
        <pt x="749" y="-162" on="1"/>
        <pt x="758" y="-287" on="1"/>
        <pt x="690" y="-310" on="0"/>
        <pt x="584" y="-310" on="1"/>
      </contour>
      <contour>
        <pt x="572" y="113" on="0"/>
        <pt x="761" y="351" on="0"/>
        <pt x="814" y="614" on="1"/>
        <pt x="846" y="774" on="0"/>
        <pt x="846" y="871" on="1"/>
        <pt x="846" y="992" on="0"/>
        <pt x="751" y="1097" on="0"/>
        <pt x="649" y="1097" on="1"/>
        <pt x="554" y="1097" on="0"/>
        <pt x="414" y="998" on="0"/>
        <pt x="310" y="778" on="0"/>
        <pt x="273" y="596" on="1"/>
        <pt x="244" y="454" on="0"/>
        <pt x="244" y="353" on="1"/>
        <pt x="244" y="225" on="0"/>
        <pt x="341" y="113" on="0"/>
        <pt x="437" y="113" on="1"/>
      </contour>
    </TTGlyph>
    <TTGlyph name="question" xMin="35" yMin="-19" xMax="1017" yMax="1380">
      <contour>
        <pt x="634" y="675" on="0"/>
        <pt x="816" y="869" on="0"/>
        <pt x="839" y="983" on="1"/>
        <pt x="847" y="1023" on="0"/>
        <pt x="847" y="1054" on="1"/>
        <pt x="847" y="1147" on="0"/>
        <pt x="724" y="1244" on="0"/>
        <pt x="600" y="1244" on="1"/>
        <pt x="538" y="1244" on="0"/>
        <pt x="376" y="1211" on="0"/>
        <pt x="311" y="1190" on="1"/>
        <pt x="285" y="1305" on="1"/>
        <pt x="365" y="1338" on="0"/>
        <pt x="550" y="1380" on="0"/>
        <pt x="638" y="1380" on="1"/>
        <pt x="755" y="1380" on="0"/>
        <pt x="926" y="1302" on="0"/>
        <pt x="1017" y="1159" on="0"/>
        <pt x="1017" y="1064" on="1"/>
        <pt x="1017" y="1023" on="0"/>
        <pt x="1008" y="978" on="1"/>
        <pt x="978" y="827" on="0"/>
        <pt x="729" y="567" on="0"/>
        <pt x="529" y="449" on="1"/>
        <pt x="458" y="554" on="1"/>
      </contour>
      <contour>
        <pt x="151" y="-19" on="0"/>
        <pt x="76" y="25" on="0"/>
        <pt x="35" y="99" on="0"/>
        <pt x="35" y="144" on="1"/>
        <pt x="35" y="165" on="0"/>
        <pt x="39" y="182" on="1"/>
        <pt x="50" y="235" on="0"/>
        <pt x="115" y="320" on="0"/>
        <pt x="208" y="369" on="0"/>
        <pt x="261" y="369" on="1"/>
        <pt x="309" y="369" on="0"/>
        <pt x="384" y="325" on="0"/>
        <pt x="426" y="250" on="0"/>
        <pt x="426" y="204" on="1"/>
        <pt x="426" y="183" on="0"/>
        <pt x="422" y="164" on="1"/>
        <pt x="412" y="112" on="0"/>
        <pt x="347" y="29" on="0"/>
        <pt x="252" y="-19" on="0"/>
        <pt x="199" y="-19" on="1"/>
      </contour>
    </TTGlyph>
    <TTGlyph name="questiondown" xMin="40" yMin="-321" xMax="1022" yMax="1078">
      <contour>
        <pt x="423" y="385" on="0"/>
        <pt x="241" y="190" on="0"/>
        <pt x="218" y="76" on="1"/>
        <pt x="210" y="36" on="0"/>
        <pt x="210" y="5" on="1"/>
        <pt x="210" y="-88" on="0"/>
        <pt x="333" y="-185" on="0"/>
        <pt x="457" y="-185" on="1"/>
        <pt x="519" y="-185" on="0"/>
        <pt x="680" y="-152" on="0"/>
        <pt x="747" y="-131" on="1"/>
        <pt x="772" y="-246" on="1"/>
        <pt x="692" y="-279" on="0"/>
        <pt x="507" y="-321" on="0"/>
        <pt x="419" y="-321" on="1"/>
        <pt x="302" y="-321" on="0"/>
        <pt x="131" y="-243" on="0"/>
        <pt x="40" y="-100" on="0"/>
        <pt x="40" y="-5" on="1"/>
        <pt x="40" y="36" on="0"/>
        <pt x="49" y="81" on="1"/>
        <pt x="79" y="232" on="0"/>
        <pt x="328" y="492" on="0"/>
        <pt x="529" y="610" on="1"/>
        <pt x="599" y="505" on="1"/>
      </contour>
      <contour>
        <pt x="906" y="1078" on="0"/>
        <pt x="981" y="1034" on="0"/>
        <pt x="1022" y="958" on="0"/>
        <pt x="1022" y="913" on="1"/>
        <pt x="1022" y="895" on="0"/>
        <pt x="1019" y="877" on="1"/>
        <pt x="1008" y="824" on="0"/>
        <pt x="942" y="739" on="0"/>
        <pt x="849" y="690" on="0"/>
        <pt x="796" y="690" on="1"/>
        <pt x="748" y="690" on="0"/>
        <pt x="673" y="734" on="0"/>
        <pt x="631" y="809" on="0"/>
        <pt x="631" y="855" on="1"/>
        <pt x="631" y="876" on="0"/>
        <pt x="635" y="895" on="1"/>
        <pt x="645" y="947" on="0"/>
        <pt x="710" y="1030" on="0"/>
        <pt x="805" y="1078" on="0"/>
        <pt x="858" y="1078" on="1"/>
      </contour>
    </TTGlyph>
    <TTGlyph name="quotedbl" xMin="190" yMin="756" xMax="929" yMax="1362">
      <component glyphName="quotesingle" x="-323" y="0" flags="0x0"/>
      <component glyphName="quotesingle" x="109" y="0" flags="0x0"/>
    </TTGlyph>
    <TTGlyph name="quotedblbase" xMin="-254" yMin="-315" xMax="806" yMax="323">
      <component glyphName="quoteright" x="-550" y="-1059" flags="0x4"/>
      <component glyphName="quoteright" x="-47" y="-1059" flags="0x4"/>
    </TTGlyph>
    <TTGlyph name="quotedblleft" xMin="156" yMin="800" xMax="1217" yMax="1438">
      <contour>
        <pt x="743" y="800" on="0"/>
        <pt x="659" y="890" on="0"/>
        <pt x="659" y="970" on="1"/>
        <pt x="659" y="1002" on="0"/>
        <pt x="666" y="1036" on="1"/>
        <pt x="700" y="1202" on="0"/>
        <pt x="967" y="1404" on="0"/>
        <pt x="1200" y="1438" on="1"/>
        <pt x="1217" y="1318" on="1"/>
        <pt x="1115" y="1299" on="0"/>
        <pt x="961" y="1237" on="0"/>
        <pt x="878" y="1167" on="0"/>
        <pt x="878" y="1134" on="1"/>
        <pt x="878" y="1121" on="0"/>
        <pt x="897" y="1100" on="0"/>
        <pt x="919" y="1089" on="1"/>
        <pt x="952" y="1072" on="0"/>
        <pt x="988" y="1012" on="0"/>
        <pt x="988" y="977" on="1"/>
        <pt x="988" y="963" on="0"/>
        <pt x="985" y="949" on="1"/>
        <pt x="971" y="880" on="0"/>
        <pt x="878" y="800" on="0"/>
        <pt x="808" y="800" on="1"/>
      </contour>
      <contour>
        <pt x="240" y="800" on="0"/>
        <pt x="156" y="890" on="0"/>
        <pt x="156" y="970" on="1"/>
        <pt x="156" y="1002" on="0"/>
        <pt x="163" y="1036" on="1"/>
        <pt x="197" y="1202" on="0"/>
        <pt x="464" y="1404" on="0"/>
        <pt x="697" y="1438" on="1"/>
        <pt x="714" y="1318" on="1"/>
        <pt x="612" y="1299" on="0"/>
        <pt x="458" y="1237" on="0"/>
        <pt x="375" y="1167" on="0"/>
        <pt x="375" y="1134" on="1"/>
        <pt x="375" y="1121" on="0"/>
        <pt x="394" y="1100" on="0"/>
        <pt x="416" y="1089" on="1"/>
        <pt x="449" y="1072" on="0"/>
        <pt x="485" y="1012" on="0"/>
        <pt x="485" y="977" on="1"/>
        <pt x="485" y="963" on="0"/>
        <pt x="482" y="949" on="1"/>
        <pt x="468" y="880" on="0"/>
        <pt x="375" y="800" on="0"/>
        <pt x="305" y="800" on="1"/>
      </contour>
    </TTGlyph>
    <TTGlyph name="quotedblright" xMin="-42" yMin="744" xMax="1018" yMax="1382">
      <component glyphName="quoteright" x="-338" y="0" flags="0x0"/>
      <component glyphName="quoteright" x="165" y="0" flags="0x0"/>
    </TTGlyph>
    <TTGlyph name="quoteleft" xMin="428" yMin="800" xMax="986" yMax="1438">
      <contour>
        <pt x="512" y="800" on="0"/>
        <pt x="428" y="890" on="0"/>
        <pt x="428" y="970" on="1"/>
        <pt x="428" y="1002" on="0"/>
        <pt x="435" y="1036" on="1"/>
        <pt x="469" y="1202" on="0"/>
        <pt x="736" y="1404" on="0"/>
        <pt x="969" y="1438" on="1"/>
        <pt x="986" y="1318" on="1"/>
        <pt x="884" y="1299" on="0"/>
        <pt x="730" y="1237" on="0"/>
        <pt x="647" y="1167" on="0"/>
        <pt x="647" y="1134" on="1"/>
        <pt x="647" y="1121" on="0"/>
        <pt x="666" y="1100" on="0"/>
        <pt x="688" y="1089" on="1"/>
        <pt x="721" y="1072" on="0"/>
        <pt x="757" y="1012" on="0"/>
        <pt x="757" y="977" on="1"/>
        <pt x="757" y="963" on="0"/>
        <pt x="754" y="949" on="1"/>
        <pt x="740" y="880" on="0"/>
        <pt x="647" y="800" on="0"/>
        <pt x="577" y="800" on="1"/>
      </contour>
    </TTGlyph>
    <TTGlyph name="quoteright" xMin="296" yMin="744" xMax="853" yMax="1382">
      <contour>
        <pt x="770" y="1382" on="0"/>
        <pt x="853" y="1293" on="0"/>
        <pt x="853" y="1213" on="1"/>
        <pt x="853" y="1180" on="0"/>
        <pt x="846" y="1146" on="1"/>
        <pt x="813" y="980" on="0"/>
        <pt x="546" y="778" on="0"/>
        <pt x="313" y="744" on="1"/>
        <pt x="296" y="864" on="1"/>
        <pt x="398" y="883" on="0"/>
        <pt x="552" y="945" on="0"/>
        <pt x="635" y="1015" on="0"/>
        <pt x="635" y="1048" on="1"/>
        <pt x="635" y="1061" on="0"/>
        <pt x="616" y="1081" on="0"/>
        <pt x="594" y="1093" on="1"/>
        <pt x="561" y="1109" on="0"/>
        <pt x="525" y="1169" on="0"/>
        <pt x="525" y="1204" on="1"/>
        <pt x="525" y="1218" on="0"/>
        <pt x="528" y="1233" on="1"/>
        <pt x="542" y="1302" on="0"/>
        <pt x="635" y="1382" on="0"/>
        <pt x="705" y="1382" on="1"/>
      </contour>
    </TTGlyph>
    <TTGlyph name="quotesinglbase" xMin="-23" yMin="-315" xMax="534" yMax="323">
      <component glyphName="quoteright" x="-319" y="-1059" flags="0x4"/>
    </TTGlyph>
    <TTGlyph name="quotesingle" xMin="513" yMin="756" xMax="820" yMax="1362">
      <contour>
        <pt x="571" y="1362" on="1"/>
        <pt x="820" y="1362" on="1"/>
        <pt x="634" y="756" on="1"/>
        <pt x="513" y="756" on="1"/>
      </contour>
    </TTGlyph>
    <TTGlyph name="r" xMin="16" yMin="0" xMax="910" yMax="1084">
      <contour>
        <pt x="838" y="1084" on="0"/>
        <pt x="910" y="1064" on="1"/>
        <pt x="838" y="847" on="1"/>
        <pt x="786" y="862" on="0"/>
        <pt x="721" y="862" on="1"/>
        <pt x="648" y="862" on="0"/>
        <pt x="521" y="785" on="0"/>
        <pt x="446" y="707" on="1"/>
        <pt x="371" y="639" on="1"/>
        <pt x="243" y="0" on="1"/>
        <pt x="16" y="0" on="1"/>
        <pt x="230" y="1068" on="1"/>
        <pt x="453" y="1068" on="1"/>
        <pt x="410" y="853" on="1"/>
        <pt x="451" y="909" on="1"/>
        <pt x="527" y="994" on="0"/>
        <pt x="680" y="1084" on="0"/>
        <pt x="779" y="1084" on="1"/>
      </contour>
    </TTGlyph>
    <TTGlyph name="r.sc" xMin="44" yMin="0" xMax="971" yMax="1210">
      <contour>
        <pt x="286" y="1210" on="1"/>
        <pt x="585" y="1210" on="1"/>
        <pt x="775" y="1210" on="0"/>
        <pt x="971" y="1060" on="0"/>
        <pt x="971" y="928" on="1"/>
        <pt x="971" y="888" on="0"/>
        <pt x="962" y="846" on="1"/>
        <pt x="935" y="709" on="0"/>
        <pt x="754" y="533" on="0"/>
        <pt x="601" y="507" on="1"/>
        <pt x="833" y="0" on="1"/>
        <pt x="646" y="0" on="1"/>
        <pt x="435" y="492" on="1"/>
        <pt x="295" y="492" on="1"/>
        <pt x="196" y="0" on="1"/>
        <pt x="44" y="0" on="1"/>
      </contour>
      <contour>
        <pt x="625" y="628" on="0"/>
        <pt x="783" y="745" on="0"/>
        <pt x="805" y="856" on="1"/>
        <pt x="812" y="888" on="0"/>
        <pt x="812" y="919" on="1"/>
        <pt x="812" y="996" on="0"/>
        <pt x="701" y="1074" on="0"/>
        <pt x="577" y="1074" on="1"/>
        <pt x="411" y="1074" on="1"/>
        <pt x="322" y="628" on="1"/>
        <pt x="489" y="628" on="1"/>
      </contour>
    </TTGlyph>
    <TTGlyph name="racute" xMin="-91" yMin="0" xMax="882" yMax="1643">
      <component glyphName="r" x="-107" y="0" flags="0x0"/>
      <component glyphName="acutecomb" x="-182" y="0" flags="0x0"/>
    </TTGlyph>
    <TTGlyph name="racute.sc" xMin="-63" yMin="0" xMax="952" yMax="1785">
      <component glyphName="r.sc" x="-107" y="0" flags="0x0"/>
      <component glyphName="acutecomb" x="-112" y="142" flags="0x4"/>
    </TTGlyph>
    <TTGlyph name="rcaron" xMin="-91" yMin="0" xMax="885" yMax="1643">
      <component glyphName="r" x="-107" y="0" flags="0x0"/>
      <component glyphName="uni030C" x="-182" y="0" flags="0x0"/>
    </TTGlyph>
</ttFont>
